{"glyphs":{"0":{"ha":799,"x_min":69,"x_max":730,"o":"m 399 -18 q 153 73 236 -18 q 69 335 69 163 l 69 553 q 152 815 69 724 q 399 906 235 906 q 647 815 563 906 q 730 553 730 724 l 730 335 q 647 73 730 163 q 399 -18 563 -18 m 399 98 q 542 157 496 98 q 588 328 588 217 l 588 558 q 542 730 588 671 q 399 790 496 790 q 257 730 303 790 q 211 558 211 671 l 211 328 q 257 157 211 217 q 399 98 303 98 z "},"1":{"ha":476,"x_min":31,"x_max":379,"o":"m 379 0 l 240 0 l 240 744 l 231 744 l 31 632 l 35 767 l 246 888 l 379 888 l 379 0 z "},"2":{"ha":660,"x_min":45,"x_max":610,"o":"m 610 0 l 45 0 l 45 130 l 266 341 q 369 445 327 399 q 433 535 411 492 q 456 628 456 579 l 456 635 q 438 715 456 682 q 382 766 419 748 q 283 783 344 783 q 156 762 215 783 q 50 713 96 740 l 63 837 q 126 869 90 853 q 209 894 163 884 q 312 903 256 903 q 526 838 455 903 q 597 653 597 773 l 597 643 q 573 518 597 574 q 503 408 549 463 q 390 288 457 353 l 219 124 l 219 94 l 163 118 l 610 118 l 610 0 z "},"3":{"ha":688,"x_min":48,"x_max":631,"o":"m 310 -16 q 205 -8 253 -16 q 122 13 158 1 q 61 36 85 25 l 48 171 q 159 126 95 145 q 298 106 222 106 q 409 123 367 106 q 469 171 451 140 q 488 248 488 203 l 488 261 q 470 337 488 308 q 413 381 453 367 q 306 397 373 396 l 160 400 l 160 510 l 306 514 q 410 531 372 515 q 466 575 449 547 q 483 644 483 604 l 483 654 q 443 752 483 719 q 306 785 403 785 q 167 766 232 785 q 53 720 102 746 l 65 841 q 174 884 108 865 q 329 903 240 903 q 552 844 481 903 q 624 676 624 784 l 624 662 q 607 570 624 610 q 555 505 590 530 q 463 469 519 479 l 463 449 l 459 463 q 591 398 550 446 q 631 263 631 351 l 631 239 q 553 52 631 119 q 310 -16 475 -16 z "},"4":{"ha":740,"x_min":38,"x_max":718,"o":"m 605 0 l 472 0 l 472 589 l 477 791 l 459 791 l 176 292 l 176 231 l 122 282 l 718 282 l 718 165 l 38 165 l 38 301 l 376 888 l 605 888 l 605 0 z "},"5":{"ha":731,"x_min":81,"x_max":672,"o":"m 347 -16 q 195 2 260 -16 q 95 40 131 21 l 81 172 q 151 141 112 156 q 236 116 190 126 q 335 107 283 107 q 450 126 406 107 q 514 182 494 145 q 533 269 533 218 l 533 308 q 498 419 533 379 q 386 458 463 458 q 280 432 324 458 q 208 360 237 405 l 85 381 l 85 888 l 645 888 l 645 769 l 220 769 l 220 576 l 218 459 l 224 459 q 301 541 250 508 q 435 573 352 573 q 614 503 555 573 q 672 312 672 434 l 672 268 q 638 117 672 181 q 532 19 604 53 q 347 -16 460 -16 z "},"6":{"ha":761,"x_min":66,"x_max":702,"o":"m 393 -18 q 216 23 290 -18 q 105 143 143 63 q 66 343 66 224 l 66 533 q 154 807 66 710 q 412 903 242 903 q 552 887 494 903 q 651 850 610 870 l 665 725 q 601 755 635 742 q 527 776 568 768 q 435 783 487 783 q 262 719 319 783 q 204 529 204 656 l 204 327 q 227 200 204 251 q 292 123 249 149 q 396 98 335 98 q 523 144 482 98 q 565 261 565 190 l 565 297 q 549 384 565 347 q 500 440 534 420 q 408 460 465 460 q 314 441 356 460 q 242 386 272 422 q 198 301 213 350 l 188 420 l 211 420 q 256 497 226 463 q 333 551 285 531 q 449 571 381 571 q 639 500 575 571 q 702 299 702 428 l 702 259 q 624 58 702 133 q 393 -18 546 -18 z "},"7":{"ha":649,"x_min":38,"x_max":609,"o":"m 290 0 l 138 0 l 463 769 l 38 769 l 38 888 l 609 888 l 609 767 l 290 0 z "},"8":{"ha":779,"x_min":60,"x_max":720,"o":"m 389 -19 q 238 -1 301 -19 q 136 50 176 17 q 78 128 97 83 q 60 228 60 173 l 60 246 q 80 351 60 307 q 138 422 100 394 q 228 463 176 450 l 228 469 q 140 504 176 479 q 87 568 105 529 q 69 659 69 608 l 69 676 q 146 844 69 782 q 389 906 224 906 q 634 844 556 906 q 711 676 711 782 l 711 659 q 693 568 711 608 q 640 504 675 529 q 552 469 604 479 l 552 463 q 642 422 605 449 q 700 350 680 394 q 720 246 720 307 l 720 228 q 702 129 720 174 q 645 51 685 84 q 543 0 606 18 q 389 -19 480 -19 m 391 97 q 535 138 490 97 q 579 242 579 178 l 579 258 q 530 359 579 320 q 386 409 481 399 q 248 359 295 398 q 201 258 201 319 l 201 242 q 246 138 201 178 q 391 97 292 97 m 393 507 q 521 547 469 512 q 573 651 573 583 l 573 661 q 529 756 573 720 q 389 792 485 792 q 251 756 294 792 q 207 661 207 720 l 207 651 q 231 575 207 606 q 297 527 255 544 q 393 507 338 510 z "},"9":{"ha":761,"x_min":59,"x_max":695,"o":"m 369 906 q 613 816 531 906 q 695 553 695 727 l 695 344 q 605 76 695 170 q 335 -17 515 -17 q 203 -2 258 -17 q 110 31 149 13 l 96 162 q 192 121 140 138 q 319 104 244 104 q 499 165 441 104 q 557 348 557 226 l 557 567 q 511 734 557 678 q 366 790 465 790 q 238 744 280 790 q 197 626 197 699 l 197 586 q 235 469 197 513 q 362 425 273 425 q 451 444 411 425 q 520 499 492 463 q 563 584 549 535 l 573 465 l 550 465 q 507 388 536 422 q 432 334 478 353 q 319 314 385 314 q 124 385 189 314 q 59 582 59 456 l 59 628 q 138 830 59 755 q 369 906 216 906 z "},"\u0000":{"ha":0,"x_min":0,"x_max":0,"o":""},"\r":{"ha":1280,"x_min":0,"x_max":0,"o":""}," ":{"ha":333,"x_min":0,"x_max":0,"o":""},"಄":{"ha":1052,"x_min":56,"x_max":998,"o":"m 998 370 l 998 394 q 900 667 998 575 q 619 760 802 760 q 351 675 445 760 q 257 431 257 590 l 257 407 q 332 204 257 274 q 544 134 408 134 q 733 195 666 134 q 799 373 799 256 l 799 405 q 752 546 799 498 q 619 594 706 594 q 494 553 538 594 q 451 429 451 512 l 451 415 q 479 320 451 353 q 558 288 508 288 q 592 291 576 288 q 616 301 607 294 l 616 370 q 578 383 591 370 q 565 424 565 397 l 565 434 q 580 480 565 465 q 622 496 594 496 q 669 475 653 496 q 685 408 685 453 l 685 375 q 649 268 685 303 q 544 233 614 233 q 417 277 462 233 q 372 408 372 322 l 372 432 q 435 603 372 545 q 618 661 499 661 q 814 595 746 661 q 883 398 883 530 l 883 374 q 795 146 883 225 q 541 67 707 67 q 340 106 423 67 q 214 220 257 144 q 171 406 171 295 l 171 431 q 219 645 171 558 q 364 776 268 731 q 599 820 459 820 l 590 919 q 296 863 415 919 q 116 699 177 808 q 56 431 56 590 l 56 405 q 111 163 56 260 q 275 17 167 66 q 542 -32 384 -32 q 792 13 690 -32 q 946 148 894 58 q 998 370 998 238 z "},"ಁ":{"ha":0,"x_min":-815,"x_max":-278,"o":"m -547 1008 q -457 1025 -492 1008 q -403 1074 -421 1042 q -385 1151 -385 1106 l -385 1167 l -278 1167 l -278 1149 q -308 1019 -278 1072 q -398 939 -338 966 q -547 911 -458 911 q -696 939 -636 911 q -785 1019 -756 966 q -815 1149 -815 1072 l -815 1167 l -708 1167 l -708 1151 q -690 1074 -708 1106 q -636 1025 -672 1042 q -547 1008 -601 1008 m -618 1170 l -618 1174 q -547 1249 -618 1249 q -493 1230 -512 1249 q -475 1174 -475 1210 l -475 1170 q -493 1115 -475 1135 q -547 1096 -512 1096 q -600 1115 -583 1096 q -618 1170 -618 1135 z "},"ഁ":{"ha":0,"x_min":-815,"x_max":-278,"o":"m -547 1008 q -457 1025 -492 1008 q -403 1074 -421 1042 q -385 1151 -385 1106 l -385 1167 l -278 1167 l -278 1149 q -308 1019 -278 1072 q -398 939 -338 966 q -547 911 -458 911 q -696 939 -636 911 q -785 1019 -756 966 q -815 1149 -815 1072 l -815 1167 l -708 1167 l -708 1151 q -690 1074 -708 1106 q -636 1025 -672 1042 q -547 1008 -601 1008 m -618 1170 l -618 1174 q -547 1249 -618 1249 q -493 1230 -512 1249 q -475 1174 -475 1210 l -475 1170 q -493 1115 -475 1135 q -547 1096 -512 1096 q -600 1115 -583 1096 q -618 1170 -618 1135 z "},"ಀ":{"ha":854,"x_min":74,"x_max":781,"o":"m 427 638 q 374 616 392 638 q 356 550 356 594 l 356 453 q 374 387 356 409 q 427 365 392 365 q 480 387 463 365 q 498 453 498 409 l 498 550 q 480 616 498 594 q 427 638 463 638 m 427 74 q 163 164 251 74 q 74 428 74 253 q 75 465 74 449 q 78 498 76 481 q 83 534 80 514 l 203 534 l 203 448 q 258 256 203 319 q 427 192 313 192 q 596 256 541 192 q 651 448 651 319 l 651 534 l 772 534 q 777 498 775 514 q 780 465 778 481 q 781 428 781 449 q 692 164 781 253 q 427 74 603 74 z "},"ഄ":{"ha":854,"x_min":74,"x_max":781,"o":"m 427 638 q 374 616 392 638 q 356 550 356 594 l 356 453 q 374 387 356 409 q 427 365 392 365 q 480 387 463 365 q 498 453 498 409 l 498 550 q 480 616 498 594 q 427 638 463 638 m 427 74 q 163 164 251 74 q 74 428 74 253 q 75 465 74 449 q 78 498 76 481 q 83 534 80 514 l 203 534 l 203 448 q 258 256 203 319 q 427 192 313 192 q 596 256 541 192 q 651 448 651 319 l 651 534 l 772 534 q 777 498 775 514 q 780 465 778 481 q 781 428 781 449 q 692 164 781 253 q 427 74 603 74 z "},"ಅ":{"ha":1185,"x_min":66,"x_max":1117,"o":"m 888 326 l 510 326 l 510 435 l 888 435 l 888 326 m 874 835 q 1057 762 998 835 q 1117 535 1117 689 l 1117 433 q 985 94 1117 207 q 595 -19 854 -19 q 199 95 332 -19 q 66 437 66 210 l 66 473 l 198 467 l 198 426 q 297 182 198 264 q 594 100 395 100 q 886 184 788 100 q 985 435 985 267 l 985 536 q 960 677 985 634 q 875 719 935 719 q 800 687 824 719 q 775 590 775 654 l 775 560 q 800 466 775 497 q 878 435 826 435 l 878 424 l 749 424 l 749 440 q 672 484 698 449 q 645 586 645 519 l 645 615 q 703 779 645 723 q 874 835 760 835 m 310 835 q 481 773 424 835 q 538 592 538 712 l 538 566 q 493 401 538 457 q 360 345 448 345 q 258 370 297 345 q 202 437 218 394 l 178 437 l 183 540 q 235 478 201 500 q 317 456 269 456 q 385 483 363 456 q 408 567 408 510 l 408 593 q 384 688 408 656 q 310 720 360 720 q 223 678 249 720 q 197 546 197 637 l 197 461 l 67 465 l 67 536 q 126 761 67 688 q 310 835 185 835 z "},"ಆ":{"ha":1169,"x_min":71,"x_max":1110,"o":"m 858 317 l 508 317 l 508 426 l 738 426 l 738 431 q 674 475 697 440 q 650 574 650 510 l 650 610 q 708 778 650 721 q 878 835 766 835 q 1051 777 992 835 q 1110 604 1110 719 l 1110 559 q 1073 426 1110 475 q 971 368 1037 378 l 971 364 q 1049 324 1023 357 q 1076 235 1076 291 l 1076 228 q 961 43 1076 106 q 627 -19 847 -19 q 210 93 350 -19 q 71 430 71 206 l 71 472 l 203 466 l 203 419 q 309 180 203 259 q 626 100 415 100 q 861 135 780 100 q 942 239 942 169 l 942 243 q 921 299 942 281 q 858 317 899 317 m 979 551 l 979 597 q 953 689 979 658 q 878 720 928 720 q 804 689 829 720 q 778 597 778 658 l 778 551 q 804 459 778 490 q 878 428 829 428 q 953 459 928 428 q 979 551 979 490 m 314 835 q 485 773 428 835 q 542 592 542 712 l 542 566 q 497 401 542 457 q 364 345 452 345 q 262 370 301 345 q 206 437 222 394 l 182 437 l 187 540 q 239 478 206 500 q 322 456 273 456 q 389 483 367 456 q 412 567 412 510 l 412 593 q 388 688 412 656 q 314 720 364 720 q 227 678 253 720 q 201 546 201 637 l 201 461 l 71 465 l 71 536 q 130 761 71 688 q 314 835 190 835 z "},"ಇ":{"ha":1017,"x_min":47,"x_max":963,"o":"m 963 -115 l 819 -115 q 800 11 813 -49 q 768 125 787 70 l 842 214 q 892 118 869 170 q 932 8 914 66 q 963 -115 949 -51 m 935 483 q 915 292 935 374 q 844 149 895 210 l 810 120 q 724 47 776 78 q 606 -1 672 15 q 462 -18 540 -18 q 234 35 312 -18 q 156 197 156 88 l 156 201 q 232 363 156 310 q 454 415 308 415 q 671 373 586 415 q 805 249 756 330 l 740 172 q 628 269 697 235 q 463 303 560 303 q 333 277 376 303 q 290 201 290 252 l 290 198 q 334 123 290 148 q 467 98 378 98 q 589 116 534 98 q 684 164 644 133 q 747 234 724 195 l 759 255 q 793 356 784 302 q 802 481 802 410 l 802 555 q 771 675 802 635 q 676 715 740 715 q 587 679 616 715 q 556 570 558 643 l 553 490 l 423 490 l 420 570 q 388 679 417 643 q 297 715 359 715 q 207 683 238 715 q 176 588 176 651 l 176 583 q 182 520 176 548 q 194 473 188 493 l 69 473 q 52 526 58 496 q 47 597 47 556 l 47 603 q 106 777 47 719 q 280 835 165 835 q 427 794 376 835 q 485 681 477 753 l 490 681 q 549 794 499 753 q 692 835 599 835 q 875 766 815 835 q 935 560 935 698 l 935 483 z "},"ಈ":{"ha":1264,"x_min":28,"x_max":1203,"o":"m 296 719 l 724 718 l 724 697 q 837 604 799 676 q 876 410 876 533 l 876 328 q 783 65 876 153 q 509 -23 690 -23 q 236 65 329 -23 q 144 328 144 153 l 144 410 q 182 605 144 533 q 296 698 221 676 l 296 719 m 509 94 q 685 160 627 94 q 742 353 742 226 l 742 444 q 684 638 742 573 q 509 702 626 702 q 335 638 393 702 q 277 445 277 574 l 277 353 q 335 160 277 226 q 509 94 393 94 m 676 702 l 130 702 l 130 813 l 676 813 l 676 702 m 1072 210 l 1072 233 q 1046 323 1072 295 q 967 351 1020 351 l 928 351 l 924 380 l 1097 380 l 1097 365 q 1176 313 1149 353 q 1203 198 1203 272 l 1203 174 q 1157 31 1203 77 q 1016 -16 1110 -16 q 967 -13 992 -16 q 920 -3 942 -10 l 906 110 q 938 102 919 105 q 974 99 957 99 q 1048 125 1024 99 q 1072 210 1072 151 m 1049 369 l 1038 351 l 817 351 l 794 352 l 216 352 l 199 351 l 28 351 l 28 463 l 200 463 l 216 463 l 788 463 l 810 462 l 1049 462 l 1049 696 l 1146 696 q 1166 642 1157 672 q 1182 578 1176 611 q 1193 516 1189 546 q 1197 465 1197 486 q 1175 394 1197 419 q 1103 369 1153 369 l 1049 369 m 750 1066 l 859 1066 q 899 981 885 1028 q 913 881 913 934 q 749 701 913 701 l 667 701 l 657 813 l 701 813 q 769 835 748 813 q 790 907 790 857 q 778 988 790 948 q 750 1066 767 1028 z "},"ಉ":{"ha":1691,"x_min":75,"x_max":1611,"o":"m 324 835 q 135 760 196 835 q 75 532 75 686 l 75 444 l 205 451 l 205 542 q 232 677 205 635 q 323 720 258 720 q 402 687 376 720 q 428 589 428 654 l 428 565 q 404 475 428 503 q 331 447 380 447 q 246 471 281 447 q 191 538 211 494 l 186 435 l 210 435 q 268 363 227 389 q 374 336 309 336 q 511 393 465 336 q 558 563 558 451 l 558 587 q 499 772 558 709 q 324 835 440 835 m 205 369 l 205 471 l 75 460 l 75 369 q 166 79 75 176 q 441 -19 258 -19 q 710 75 619 -19 q 800 353 800 169 l 800 559 q 826 675 800 638 q 910 713 853 713 q 995 675 968 713 q 1022 559 1022 638 l 1022 426 l 1153 426 l 1153 559 q 910 831 1153 831 q 728 763 789 831 q 668 559 668 695 l 668 357 q 611 165 668 230 q 440 101 554 101 q 205 369 205 101 m 1611 310 l 1611 475 q 1544 737 1611 651 q 1342 823 1477 823 q 1316 822 1328 823 q 1289 819 1303 821 l 1289 701 q 1304 703 1297 703 q 1318 703 1311 703 q 1438 649 1399 703 q 1478 476 1478 595 l 1478 310 q 1438 152 1478 203 q 1315 101 1398 101 q 1193 151 1233 101 q 1153 309 1153 201 l 1153 456 l 1022 456 l 1022 304 q 1095 61 1022 142 q 1317 -19 1169 -19 q 1538 63 1465 -19 q 1611 310 1611 145 z "},"ಊ":{"ha":2189,"x_min":75,"x_max":2110,"o":"m 1494 376 l 1363 376 l 1363 242 q 1337 135 1363 169 q 1258 100 1312 100 q 1179 135 1204 100 q 1153 242 1153 169 l 1153 446 l 1022 449 l 1022 240 q 1080 46 1022 111 q 1256 -19 1139 -19 q 1435 46 1375 -19 q 1494 240 1494 111 l 1494 376 m 324 835 q 135 760 196 835 q 75 532 75 686 l 75 444 l 205 451 l 205 542 q 232 677 205 635 q 323 720 258 720 q 402 687 376 720 q 428 589 428 654 l 428 565 q 404 475 428 503 q 331 447 380 447 q 246 471 281 447 q 191 538 211 494 l 186 435 l 210 435 q 268 363 227 389 q 374 336 309 336 q 511 393 465 336 q 558 563 558 451 l 558 587 q 499 772 558 709 q 324 835 440 835 m 205 369 l 205 471 l 75 460 l 75 369 q 166 79 75 176 q 441 -19 258 -19 q 710 75 619 -19 q 800 353 800 169 l 800 559 q 826 675 800 638 q 910 713 853 713 q 995 675 968 713 q 1022 559 1022 638 l 1022 426 l 1153 426 l 1153 559 q 910 831 1153 831 q 728 763 789 831 q 668 559 668 695 l 668 357 q 611 165 668 230 q 440 101 554 101 q 205 369 205 101 m 1736 835 q 1456 737 1550 835 q 1363 445 1363 639 l 1363 365 l 1494 365 l 1494 444 q 1554 648 1494 580 q 1736 716 1613 716 q 1919 647 1859 716 q 1978 444 1978 578 l 1978 347 l 2110 353 l 2110 442 q 2016 736 2110 638 q 1736 835 1922 835 m 2110 274 l 2110 357 l 1979 350 l 1979 261 q 1955 136 1979 175 q 1869 97 1930 97 q 1789 128 1815 97 q 1763 220 1763 159 l 1763 251 q 1788 342 1763 313 q 1865 371 1813 371 q 1940 349 1910 371 q 1988 285 1971 326 l 1998 383 l 1974 383 q 1922 457 1959 431 q 1824 483 1884 483 q 1679 425 1726 483 q 1632 253 1632 367 l 1632 219 q 1691 42 1632 102 q 1868 -19 1749 -19 q 2052 53 1994 -19 q 2110 274 2110 124 z "},"ಋ":{"ha":1587,"x_min":67,"x_max":1507,"o":"m 797 -19 q 631 34 690 -19 q 567 193 572 86 l 567 292 l 627 308 l 627 260 q 670 139 633 177 q 774 101 707 101 q 883 150 848 101 q 917 301 917 200 l 917 445 q 864 641 917 580 q 699 702 810 702 l 699 715 l 903 715 l 903 697 q 1014 616 976 681 q 1051 422 1051 551 l 1051 296 q 988 60 1051 138 q 797 -19 926 -19 m 861 702 l 688 702 l 688 813 l 861 813 l 861 702 m 322 -19 q 131 38 195 -19 q 67 203 67 94 l 67 209 q 126 368 67 313 q 302 423 186 423 q 442 392 390 423 q 515 310 494 361 l 498 213 q 432 285 476 260 q 325 311 387 311 q 227 285 260 311 q 195 206 195 259 l 195 201 q 229 122 195 148 q 331 96 263 96 q 440 131 401 96 q 493 240 479 165 q 493 244 493 240 q 494 252 494 248 q 494 256 494 256 q 497 293 495 276 q 499 326 498 309 q 499 363 499 343 l 499 510 q 463 668 499 617 q 347 719 426 719 q 244 686 279 719 q 210 586 210 652 l 210 579 q 215 520 210 547 q 228 475 220 494 l 103 475 q 86 526 92 496 q 80 590 80 556 l 80 597 q 147 774 80 713 q 347 835 215 835 q 561 753 492 835 q 631 507 631 672 l 631 358 q 630 306 631 335 q 626 250 628 278 q 618 199 623 222 l 565 201 l 603 215 q 566 92 599 144 q 472 10 533 40 q 322 -19 412 -19 m 897 1066 l 1006 1066 q 1045 981 1031 1028 q 1059 881 1059 934 q 895 701 1059 701 l 813 701 l 803 813 l 847 813 q 915 835 894 813 q 936 907 936 857 q 925 988 936 948 q 897 1066 914 1028 m 1238 822 q 1440 737 1373 822 q 1507 475 1507 651 l 1507 313 q 1440 64 1507 147 q 1236 -19 1374 -19 q 1053 45 1114 -19 q 992 226 992 109 l 992 283 l 1050 283 l 1050 277 q 1090 146 1050 191 q 1210 101 1130 101 q 1334 154 1295 101 q 1374 317 1374 207 l 1374 475 q 1334 648 1374 594 q 1214 702 1295 702 q 1199 702 1207 702 q 1183 701 1192 702 l 1183 819 q 1211 821 1197 820 q 1238 822 1224 822 z "},"ೠ":{"ha":2093,"x_min":67,"x_max":2015,"o":"m 797 -19 q 631 34 690 -19 q 567 193 572 86 l 567 292 l 627 308 l 627 260 q 670 139 633 177 q 774 101 707 101 q 883 150 848 101 q 917 301 917 200 l 917 445 q 864 641 917 580 q 699 702 810 702 l 699 715 l 903 715 l 903 697 q 1014 616 976 681 q 1051 422 1051 551 l 1051 296 q 988 60 1051 138 q 797 -19 926 -19 m 861 702 l 688 702 l 688 813 l 861 813 l 861 702 m 322 -19 q 131 38 195 -19 q 67 203 67 94 l 67 209 q 126 368 67 313 q 302 423 186 423 q 442 392 390 423 q 515 310 494 361 l 498 213 q 432 285 476 260 q 325 311 387 311 q 227 285 260 311 q 195 206 195 259 l 195 201 q 229 122 195 148 q 331 96 263 96 q 440 131 401 96 q 493 240 479 165 q 493 244 493 240 q 494 252 494 248 q 494 256 494 256 q 497 293 495 276 q 499 326 498 309 q 499 363 499 343 l 499 510 q 463 668 499 617 q 347 719 426 719 q 244 686 279 719 q 210 586 210 652 l 210 579 q 215 520 210 547 q 228 475 220 494 l 103 475 q 86 526 92 496 q 80 590 80 556 l 80 597 q 147 774 80 713 q 347 835 215 835 q 561 753 492 835 q 631 507 631 672 l 631 358 q 630 306 631 335 q 626 250 628 278 q 618 199 623 222 l 565 201 l 603 215 q 566 92 599 144 q 472 10 533 40 q 322 -19 412 -19 m 897 1066 l 1006 1066 q 1045 981 1031 1028 q 1059 881 1059 934 q 895 701 1059 701 l 813 701 l 803 813 l 847 813 q 915 835 894 813 q 936 907 936 857 q 925 988 936 948 q 897 1066 914 1028 m 1160 101 q 1240 136 1214 101 q 1267 244 1267 172 l 1267 374 l 1399 374 l 1399 237 q 1345 45 1399 110 q 1183 -19 1291 -19 q 1038 36 1087 -19 q 990 200 990 92 l 990 261 l 1049 261 l 1049 242 q 1160 101 1049 101 m 1640 834 q 1920 735 1826 834 q 2015 442 2015 637 l 2015 353 l 1883 346 l 1883 443 q 1823 647 1883 578 q 1640 715 1763 715 q 1458 647 1517 715 q 1399 443 1399 579 l 1399 364 l 1267 364 l 1267 444 q 1360 736 1267 638 q 1640 834 1454 834 m 2015 356 l 2015 274 q 1957 52 2015 124 q 1772 -19 1899 -19 q 1595 41 1653 -19 q 1536 219 1536 101 l 1536 253 q 1583 424 1536 366 q 1728 483 1631 483 q 1826 456 1788 483 q 1878 383 1863 430 l 1902 383 l 1892 285 q 1844 348 1875 326 q 1769 370 1814 370 q 1692 341 1717 370 q 1667 251 1667 313 l 1667 219 q 1693 127 1667 158 q 1774 96 1719 96 q 1859 135 1834 96 q 1883 260 1883 174 l 1883 349 l 2015 356 z "},"ಌ":{"ha":1062,"x_min":70,"x_max":990,"o":"m 273 0 l 139 0 q 101 67 117 29 q 78 151 86 106 q 70 249 70 197 l 70 300 q 130 502 70 435 q 306 570 190 570 q 417 546 374 570 q 476 478 459 522 l 480 480 q 469 549 474 515 q 465 627 465 584 l 465 813 l 597 813 l 597 627 q 592 549 597 584 q 581 480 587 515 l 585 478 q 644 546 601 522 q 754 570 686 570 q 931 502 871 570 q 990 300 990 435 l 990 249 q 982 151 990 197 q 959 67 974 106 q 922 0 944 29 l 788 0 q 824 74 808 34 q 849 157 840 113 q 858 247 858 201 l 858 297 q 825 414 858 376 q 724 453 792 453 q 629 414 661 453 q 597 301 597 374 l 593 1 l 467 1 l 464 301 q 432 414 463 374 q 336 453 400 453 q 236 414 269 453 q 203 297 203 376 l 203 247 q 212 157 203 201 q 237 74 221 113 q 273 0 253 34 z "},"ೡ":{"ha":1059,"x_min":69,"x_max":990,"o":"m 509 -42 l 468 -152 q 441 -89 467 -113 q 359 -64 415 -64 q 258 -156 258 -64 l 258 -160 q 284 -228 258 -206 q 358 -251 310 -251 q 409 -243 385 -251 q 451 -220 433 -235 q 476 -183 469 -205 l 487 -276 l 464 -276 q 412 -334 449 -313 q 317 -355 374 -355 q 181 -307 228 -355 q 133 -159 133 -258 l 133 -154 q 182 -8 133 -57 q 322 40 230 40 q 415 19 379 40 q 463 -42 451 -1 l 509 -42 m 465 813 l 596 813 l 596 627 q 591 549 596 584 q 579 480 585 514 l 583 479 q 643 546 601 522 q 755 570 685 570 q 931 504 872 570 q 990 309 990 438 l 990 290 q 986 216 990 253 q 972 148 981 180 q 947 90 963 116 l 816 90 q 839 150 830 119 q 853 215 848 182 q 858 279 858 248 l 858 296 q 825 414 858 375 q 724 453 792 453 q 629 414 662 453 q 595 303 596 375 l 590 -409 l 469 -409 l 464 303 q 430 414 463 375 q 335 453 397 453 q 234 414 267 453 q 201 296 201 375 l 201 279 q 206 215 201 248 q 220 150 211 182 q 243 90 230 119 l 112 90 q 88 148 97 116 q 73 216 78 180 q 69 290 69 253 l 69 309 q 128 504 69 438 q 304 570 188 570 q 416 546 374 570 q 476 479 458 522 l 480 480 q 469 549 474 514 q 465 627 465 584 l 465 813 z "},"ಎ":{"ha":1074,"x_min":68,"x_max":997,"o":"m 759 -19 q 605 25 659 -19 q 543 147 551 68 l 539 147 q 475 25 531 68 q 315 -19 420 -19 q 131 44 193 -19 q 68 231 68 108 l 68 265 q 120 439 68 379 q 271 499 172 499 q 331 492 305 499 q 378 473 357 485 l 385 360 q 348 377 369 370 q 301 383 326 383 q 224 353 249 383 q 199 261 199 323 l 199 235 q 231 134 199 168 q 329 100 264 100 q 435 139 400 100 q 473 255 469 177 l 476 326 l 606 326 l 610 255 q 644 140 613 177 q 739 102 676 102 q 833 142 803 102 q 864 264 864 182 l 864 317 q 811 551 864 460 q 647 685 758 642 q 365 728 537 728 q 338 728 354 728 q 301 728 321 728 q 263 728 282 728 l 302 843 q 335 843 319 843 q 365 843 351 843 q 388 843 378 843 q 729 786 594 843 q 931 613 865 730 q 997 313 997 495 l 997 258 q 937 50 997 119 q 759 -19 877 -19 z "},"ಏ":{"ha":1074,"x_min":68,"x_max":997,"o":"m 864 317 q 790 612 864 516 q 564 721 716 708 l 544 846 q 885 705 772 833 q 997 313 997 577 l 997 258 q 937 50 997 119 q 759 -19 877 -19 q 605 25 659 -19 q 543 147 551 68 l 539 147 q 475 25 531 68 q 315 -19 420 -19 q 131 44 193 -19 q 68 231 68 108 l 68 265 q 120 439 68 379 q 271 499 172 499 q 331 492 305 499 q 378 473 357 485 l 385 360 q 348 377 369 370 q 301 383 326 383 q 224 353 249 383 q 199 261 199 323 l 199 235 q 231 134 199 168 q 329 100 264 100 q 435 139 400 100 q 473 255 469 177 l 476 326 l 606 326 l 610 255 q 644 140 613 177 q 739 102 676 102 q 833 142 803 102 q 864 264 864 182 l 864 317 m 411 582 q 217 642 285 582 q 149 822 149 702 l 149 834 l 278 848 l 278 837 q 312 733 278 768 q 413 697 347 697 q 510 733 476 697 q 544 837 544 768 l 544 846 l 649 805 q 620 680 649 729 q 538 606 591 630 q 411 582 484 582 z "},"ಐ":{"ha":1094,"x_min":72,"x_max":1013,"o":"m 757 835 q 951 757 890 835 q 1013 522 1013 679 l 1013 283 q 951 56 1013 131 q 767 -19 890 -19 q 613 25 667 -19 q 550 147 558 68 l 546 147 q 482 25 538 68 q 320 -19 426 -19 q 135 44 199 -19 q 72 231 72 108 l 72 253 q 124 427 72 367 q 275 487 176 487 q 335 480 309 487 q 383 461 361 474 l 390 349 q 352 365 373 358 q 306 372 331 372 q 228 341 253 372 q 203 249 203 311 l 203 235 q 236 134 203 168 q 335 100 269 100 q 441 139 406 100 q 480 255 476 177 l 483 326 l 613 326 l 617 255 q 652 140 620 177 q 747 102 683 102 q 847 148 815 102 q 880 288 880 194 l 880 522 q 849 667 880 619 q 746 715 818 715 q 650 678 682 715 q 615 565 617 641 l 613 497 l 483 497 l 481 565 q 448 678 479 641 q 353 715 417 715 q 258 677 290 715 q 226 563 226 640 l 226 535 l 95 535 l 95 569 q 157 768 95 702 q 340 835 219 835 q 488 794 437 835 q 547 680 539 753 l 551 680 q 611 794 560 753 q 757 835 663 835 z "},"ಒ":{"ha":1074,"x_min":65,"x_max":1010,"o":"m 831 422 l 960 422 q 997 341 984 386 q 1010 236 1010 297 l 1010 226 q 949 44 1010 107 q 771 -19 889 -19 q 610 25 665 -19 q 547 148 555 68 l 540 313 l 611 313 l 613 254 q 649 140 616 177 q 750 102 683 102 q 845 138 814 102 q 876 244 876 174 l 876 251 q 865 344 876 301 q 831 422 853 388 m 327 835 q 507 780 446 835 q 569 617 569 724 l 569 611 q 527 476 569 527 q 392 382 485 426 l 325 351 q 226 289 256 318 q 197 212 197 260 l 197 208 q 229 129 197 156 q 325 102 262 102 q 436 140 400 102 q 477 254 473 177 l 480 313 l 551 313 l 553 148 l 543 148 q 477 25 535 68 q 311 -19 419 -19 q 128 37 191 -19 q 65 199 65 92 l 65 206 q 85 306 65 264 q 149 381 106 348 q 260 444 192 413 l 326 473 q 415 531 390 501 q 440 608 440 560 l 440 613 q 411 694 440 667 q 324 721 382 721 q 237 692 267 721 q 208 603 208 663 l 208 599 q 214 533 208 563 q 231 476 220 503 l 108 476 q 89 531 97 498 q 81 605 81 563 l 81 610 q 144 779 81 722 q 327 835 207 835 z "},"ಓ":{"ha":1074,"x_min":65,"x_max":1010,"o":"m 415 1141 q 592 1092 531 1141 q 653 949 653 1042 l 653 946 q 650 908 653 926 q 643 876 648 890 l 526 876 q 531 902 529 888 q 532 931 532 915 l 532 934 q 503 1007 532 983 q 416 1032 474 1032 q 330 1007 360 1032 q 301 935 301 983 l 301 931 q 318 868 301 894 q 376 828 335 841 l 310 795 q 207 847 238 807 q 175 950 175 887 l 175 956 q 236 1093 175 1044 q 415 1141 297 1141 m 831 422 l 960 422 q 997 341 984 386 q 1010 236 1010 297 l 1010 226 q 949 44 1010 107 q 771 -19 889 -19 q 610 25 665 -19 q 547 148 555 68 l 540 313 l 611 313 l 613 254 q 649 140 616 177 q 750 102 683 102 q 845 138 814 102 q 876 244 876 174 l 876 251 q 865 344 876 301 q 831 422 853 388 m 327 835 q 507 780 446 835 q 569 617 569 724 l 569 611 q 527 476 569 527 q 392 382 485 426 l 325 351 q 226 289 256 318 q 197 212 197 260 l 197 208 q 229 129 197 156 q 325 102 262 102 q 436 140 400 102 q 477 254 473 177 l 480 313 l 551 313 l 553 148 l 543 148 q 477 25 535 68 q 311 -19 419 -19 q 128 37 191 -19 q 65 199 65 92 l 65 206 q 85 306 65 264 q 149 381 106 348 q 260 444 192 413 l 326 473 q 415 531 390 501 q 440 608 440 560 l 440 613 q 411 694 440 667 q 324 721 382 721 q 237 692 267 721 q 208 603 208 663 l 208 599 q 214 533 208 563 q 231 476 220 503 l 108 476 q 89 531 97 498 q 81 605 81 563 l 81 610 q 144 779 81 722 q 327 835 207 835 z "},"ಔ":{"ha":1160,"x_min":65,"x_max":1123,"o":"m 878 249 q 876 291 878 271 q 867 331 873 312 l 996 331 q 1008 285 1003 310 q 1012 233 1012 261 l 1012 224 q 951 44 1012 106 q 771 -19 890 -19 q 610 25 665 -19 q 547 148 555 68 l 540 313 l 611 313 l 613 254 q 649 140 616 177 q 750 102 683 102 q 847 137 815 102 q 878 241 878 172 l 878 249 m 327 835 q 507 780 446 835 q 569 617 569 724 l 569 611 q 527 476 569 527 q 392 382 485 426 l 325 351 q 226 289 256 318 q 197 212 197 260 l 197 208 q 229 129 197 156 q 325 102 262 102 q 436 140 400 102 q 477 254 473 177 l 480 313 l 553 313 l 553 148 l 543 148 q 477 25 535 68 q 311 -19 419 -19 q 128 37 191 -19 q 65 199 65 92 l 65 206 q 85 306 65 264 q 149 381 106 348 q 260 444 192 413 l 326 473 q 415 531 390 501 q 440 608 440 560 l 440 613 q 411 694 440 667 q 324 721 382 721 q 237 692 267 721 q 208 603 208 663 l 208 599 q 214 533 208 563 q 231 476 220 503 l 108 476 q 89 531 97 498 q 81 605 81 563 l 81 610 q 144 779 81 722 q 327 835 207 835 m 424 746 l 327 746 l 327 835 l 372 835 q 460 913 460 835 l 460 917 q 372 993 460 993 l 373 1009 l 514 1009 l 514 989 q 570 956 551 982 q 589 886 589 929 l 589 882 q 547 781 589 815 q 424 746 506 746 m 1123 731 l 993 726 l 993 738 q 927 932 993 871 q 728 993 862 993 l 147 993 l 147 1104 l 731 1104 q 1026 1014 929 1104 q 1123 738 1123 923 l 1123 731 m 994 731 l 1123 731 l 1123 656 q 1067 460 1123 524 q 895 397 1011 397 q 728 451 785 397 q 672 611 672 505 l 672 624 q 716 784 672 730 q 850 839 760 839 q 940 816 906 839 q 989 751 975 793 l 1012 751 l 1004 653 q 960 710 989 690 q 890 731 932 731 q 821 705 844 731 q 798 626 798 679 l 798 614 q 822 535 798 562 q 894 508 846 508 q 971 541 948 508 q 994 647 994 574 l 994 731 z "},"ಂ":{"ha":745,"x_min":72,"x_max":672,"o":"m 72 344 l 72 435 q 148 672 72 593 q 373 750 224 750 q 597 672 522 750 q 672 435 672 593 l 672 344 q 597 108 672 187 q 373 30 522 30 q 148 108 224 30 q 72 344 72 187 m 373 145 q 499 195 457 145 q 542 344 542 246 l 542 435 q 499 585 542 535 q 373 635 457 635 q 245 585 288 635 q 203 435 203 535 l 203 344 q 245 195 203 246 q 373 145 288 145 z "},"ಃ":{"ha":498,"x_min":44,"x_max":453,"o":"m 249 1 q 96 47 148 1 q 44 182 44 94 l 44 190 q 96 325 44 278 q 249 371 148 371 q 402 325 350 371 q 453 190 453 278 l 453 182 q 402 47 453 94 q 249 1 350 1 m 249 269 q 187 249 208 269 q 166 190 166 228 l 166 182 q 187 123 166 143 q 249 103 208 103 q 310 123 290 103 q 331 182 331 143 l 331 190 q 310 249 331 228 q 249 269 290 269 m 249 423 q 96 469 148 423 q 44 604 44 516 l 44 611 q 96 746 44 700 q 249 792 148 792 q 402 746 350 792 q 453 611 453 700 l 453 604 q 402 469 453 516 q 249 423 350 423 m 249 690 q 187 670 208 690 q 166 611 166 650 l 166 604 q 187 545 166 565 q 249 525 208 525 q 310 545 290 525 q 331 604 331 565 l 331 611 q 310 670 331 650 q 249 690 290 690 z "},"ಕ":{"ha":827,"x_min":59,"x_max":778,"o":"m 59 535 l 769 535 l 769 423 l 559 427 l 559 447 l 269 447 l 270 427 l 59 423 l 59 535 m 347 754 l 479 754 l 479 485 l 347 485 l 347 754 m 59 813 l 560 813 l 560 701 l 59 701 l 59 813 m 414 93 q 551 132 506 93 q 597 253 597 172 l 597 263 q 551 383 597 343 q 414 424 506 424 q 276 383 322 424 q 231 263 231 343 l 231 253 q 276 132 231 172 q 414 93 322 93 m 218 456 l 610 456 l 610 422 q 695 366 664 410 q 727 241 727 323 l 727 228 q 648 40 727 103 q 414 -24 569 -24 q 180 40 259 -24 q 101 228 101 103 l 101 241 q 133 366 101 323 q 218 422 165 410 l 218 456 m 615 1066 l 724 1066 q 764 981 750 1028 q 778 881 778 934 q 614 701 778 701 l 532 701 l 522 813 l 566 813 q 634 835 613 813 q 655 907 655 857 q 644 988 655 948 q 615 1066 633 1028 z "},"ಖ":{"ha":1131,"x_min":67,"x_max":1051,"o":"m 322 -19 q 131 38 195 -19 q 67 203 67 94 l 67 209 q 126 368 67 313 q 302 423 186 423 q 442 392 390 423 q 515 310 494 361 l 498 213 q 432 285 476 260 q 325 311 387 311 q 227 285 260 311 q 195 206 195 259 l 195 201 q 229 122 195 148 q 331 96 263 96 q 440 131 401 96 q 493 240 479 165 q 493 244 493 240 q 494 252 494 248 q 494 256 494 256 q 497 293 495 276 q 499 326 498 309 q 499 363 499 343 l 499 510 q 463 668 499 617 q 347 719 426 719 q 244 686 279 719 q 210 586 210 652 l 210 579 q 215 520 210 547 q 228 475 220 494 l 103 475 q 86 526 92 496 q 80 590 80 556 l 80 597 q 147 774 80 713 q 347 835 215 835 q 561 753 492 835 q 631 507 631 672 l 631 358 q 630 306 631 335 q 626 250 628 278 q 618 199 623 222 l 565 201 l 603 215 q 566 92 599 144 q 472 10 533 40 q 322 -19 412 -19 m 797 -19 q 631 34 690 -19 q 567 193 572 86 l 567 292 l 627 308 l 627 260 q 670 139 633 177 q 774 101 707 101 q 883 150 848 101 q 917 301 917 200 l 917 475 q 879 648 917 594 q 761 702 841 702 q 746 702 753 702 q 731 700 738 701 l 731 818 q 758 821 744 820 q 785 822 772 822 q 985 737 919 822 q 1051 476 1051 652 l 1051 296 q 988 60 1051 138 q 797 -19 926 -19 z "},"ಗ":{"ha":882,"x_min":83,"x_max":814,"o":"m 241 715 l 641 715 l 641 697 q 720 652 688 685 q 769 564 752 620 q 785 424 785 508 l 785 0 l 651 0 l 651 444 q 599 640 651 578 q 440 702 546 702 q 282 640 335 702 q 230 444 230 578 l 230 0 l 96 0 l 96 424 q 113 564 96 508 q 162 653 130 621 q 241 698 194 686 l 241 715 m 83 813 l 607 813 l 608 702 l 83 702 l 83 813 m 651 1066 l 760 1066 q 800 981 786 1028 q 814 881 814 934 q 650 701 814 701 l 568 701 l 558 813 l 602 813 q 670 835 649 813 q 691 907 691 857 q 680 988 691 948 q 651 1066 669 1028 z "},"ಘ":{"ha":1099,"x_min":69,"x_max":1058,"o":"m 610 255 q 647 140 614 177 q 748 102 681 102 q 876 238 876 102 l 876 248 q 844 342 876 313 q 741 374 812 372 l 706 376 l 706 436 l 883 436 l 883 414 q 978 357 947 403 q 1009 228 1009 311 l 1009 216 q 947 40 1009 99 q 763 -19 885 -19 q 607 25 661 -19 q 544 147 552 68 l 540 147 q 476 25 531 68 q 315 -19 421 -19 q 131 44 194 -19 q 69 231 69 108 l 69 265 q 120 439 69 379 q 272 499 172 499 q 332 492 306 499 q 379 473 358 485 l 386 360 q 348 377 369 370 q 302 383 327 383 q 224 353 249 383 q 199 261 199 323 l 199 235 q 232 134 199 168 q 330 100 265 100 q 435 139 401 100 q 474 255 470 177 l 477 326 l 607 326 l 610 255 m 543 438 q 490 461 508 438 q 472 538 472 485 l 472 569 q 490 645 472 622 q 543 669 508 669 q 596 645 579 669 q 613 568 613 622 l 613 538 q 596 461 613 485 q 543 438 579 438 m 883 418 l 706 417 l 706 487 l 817 490 q 901 511 875 491 q 927 578 927 532 q 921 630 927 604 q 903 681 915 656 l 1024 681 q 1049 622 1040 654 q 1058 559 1058 590 q 1016 454 1058 490 q 883 418 974 419 m 792 701 l 99 701 l 99 813 l 792 813 l 792 701 m 542 -283 q 472 -195 472 -283 l 472 -189 q 490 -65 472 -121 q 542 39 508 -10 q 595 -65 577 -10 q 613 -189 613 -121 l 613 -195 q 542 -283 613 -283 m 850 1066 l 959 1066 q 999 981 985 1028 q 1013 881 1013 934 q 849 701 1013 701 l 767 701 l 757 813 l 801 813 q 869 835 848 813 q 890 907 890 857 q 878 988 890 948 q 850 1066 867 1028 z "},"ಙ":{"ha":1079,"x_min":65,"x_max":1012,"o":"m 747 835 q 937 772 872 835 q 1001 591 1001 709 l 1001 585 q 1000 546 1001 565 q 997 513 999 526 l 869 513 q 871 540 870 525 q 872 571 872 554 l 872 574 q 835 686 872 649 q 724 723 798 723 q 614 690 652 723 q 567 597 576 656 l 510 638 q 575 783 517 731 q 747 835 633 835 m 705 333 q 657 354 673 333 q 641 425 641 376 l 641 457 q 657 528 641 506 q 705 550 673 550 q 754 528 738 550 q 770 457 770 506 l 770 425 q 754 354 770 376 q 705 333 738 333 m 878 249 q 876 291 878 271 q 867 331 873 312 l 996 331 q 1008 285 1003 310 q 1012 233 1012 261 l 1012 224 q 951 44 1012 106 q 771 -19 890 -19 q 610 25 665 -19 q 547 148 555 68 l 540 313 l 611 313 l 613 254 q 649 140 616 177 q 750 102 683 102 q 847 137 815 102 q 878 241 878 172 l 878 249 m 327 835 q 507 780 446 835 q 569 617 569 724 l 569 611 q 527 476 569 527 q 392 382 485 426 l 325 351 q 226 289 256 318 q 197 212 197 260 l 197 208 q 229 129 197 156 q 325 102 262 102 q 436 140 400 102 q 477 254 473 177 l 480 313 l 553 313 l 553 148 l 543 148 q 477 25 535 68 q 311 -19 419 -19 q 128 37 191 -19 q 65 199 65 92 l 65 206 q 85 306 65 264 q 149 381 106 348 q 260 444 192 413 l 326 473 q 415 531 390 501 q 440 608 440 560 l 440 613 q 411 694 440 667 q 324 721 382 721 q 237 692 267 721 q 208 603 208 663 l 208 599 q 214 533 208 563 q 231 476 220 503 l 108 476 q 89 531 97 498 q 81 605 81 563 l 81 610 q 144 779 81 722 q 327 835 207 835 z "},"ಚ":{"ha":1107,"x_min":65,"x_max":1055,"o":"m 842 379 l 653 379 l 653 491 l 823 491 l 915 488 l 1053 491 l 1053 379 l 914 383 l 914 375 l 842 379 m 890 701 l 645 701 l 645 813 l 890 813 l 890 701 m 1015 227 l 1015 215 q 953 40 1015 98 q 769 -19 892 -19 q 611 25 666 -19 q 547 148 556 68 l 540 313 l 611 313 l 613 253 q 649 139 616 176 q 752 102 683 102 q 850 136 818 102 q 882 240 882 171 l 882 251 q 850 348 882 316 q 754 379 819 379 l 756 397 l 914 378 q 972 351 949 371 q 1004 300 994 331 q 1015 227 1015 269 m 983 598 l 983 590 q 966 524 983 549 q 915 492 948 499 l 915 468 l 749 469 l 752 491 q 828 517 803 491 q 853 592 853 543 l 853 599 q 828 676 853 650 q 752 701 803 701 l 750 718 l 907 716 l 907 698 q 964 665 944 690 q 983 598 983 640 m 327 835 q 507 780 446 835 q 569 617 569 724 l 569 611 q 527 476 569 527 q 392 382 485 426 l 325 351 q 226 289 256 318 q 197 212 197 260 l 197 208 q 229 129 197 156 q 325 102 262 102 q 436 140 400 102 q 477 254 473 177 l 480 313 l 551 313 l 553 148 l 543 148 q 477 25 535 68 q 311 -19 419 -19 q 128 37 191 -19 q 65 199 65 92 l 65 206 q 85 306 65 264 q 149 381 106 348 q 260 444 192 413 l 326 473 q 415 531 390 501 q 440 608 440 560 l 440 613 q 411 694 440 667 q 324 721 382 721 q 237 692 267 721 q 208 603 208 663 l 208 599 q 214 533 208 563 q 231 476 220 503 l 108 476 q 89 531 97 498 q 81 605 81 563 l 81 610 q 144 779 81 722 q 327 835 207 835 m 892 1066 l 1001 1066 q 1041 981 1027 1028 q 1055 881 1055 934 q 891 701 1055 701 l 809 701 l 799 813 l 843 813 q 911 835 890 813 q 932 907 932 857 q 921 988 932 948 q 892 1066 910 1028 z "},"ಛ":{"ha":1121,"x_min":77,"x_max":1050,"o":"m 1041 280 q 978 55 1041 129 q 790 -19 915 -19 q 631 27 687 -19 q 567 158 576 74 l 563 158 q 499 27 555 74 q 338 -19 442 -19 q 143 57 208 -19 q 77 288 77 133 l 77 467 l 208 492 l 208 291 q 245 148 208 194 q 357 102 281 102 q 460 141 427 102 q 497 261 492 181 l 499 313 l 631 313 l 634 261 q 670 141 638 181 q 772 102 703 102 q 874 148 840 102 q 908 290 908 193 l 908 445 q 853 641 908 580 q 688 702 799 702 l 688 715 l 892 715 q 892 707 892 713 q 892 697 892 701 q 1003 616 965 681 q 1041 422 1041 551 l 1041 280 m 852 702 l 633 702 l 633 813 l 852 813 l 852 702 m 324 835 q 499 773 440 835 q 557 590 557 711 l 557 572 q 511 406 557 462 q 374 349 465 349 q 270 376 310 349 q 213 448 229 402 l 188 448 l 193 551 q 248 484 213 508 q 332 460 282 460 q 403 488 379 460 q 427 574 427 515 l 427 592 q 402 688 427 656 q 324 720 376 720 q 233 678 260 720 q 207 544 207 636 l 207 465 l 77 447 l 77 535 q 138 761 77 688 q 324 835 198 835 m 565 -283 q 495 -195 495 -283 l 495 -189 q 513 -65 495 -121 q 565 39 531 -10 q 618 -65 600 -10 q 636 -189 636 -121 l 636 -195 q 565 -283 636 -283 m 888 1066 l 997 1066 q 1036 981 1022 1028 q 1050 881 1050 934 q 886 701 1050 701 l 804 701 l 794 813 l 838 813 q 906 835 885 813 q 927 907 927 857 q 916 988 927 948 q 888 1066 905 1028 z "},"ಜ":{"ha":1078,"x_min":65,"x_max":1012,"o":"m 810 813 l 935 813 q 969 742 957 783 q 981 654 981 702 l 981 649 q 920 473 981 533 q 742 413 859 413 q 563 469 623 413 q 499 626 503 526 l 499 630 l 563 660 l 563 653 q 612 559 573 592 q 718 526 651 526 q 818 562 785 526 q 851 668 851 598 l 851 673 q 840 748 851 712 q 810 813 828 784 m 878 249 q 876 291 878 271 q 867 331 873 312 l 996 331 q 1008 285 1003 310 q 1012 233 1012 261 l 1012 224 q 951 44 1012 106 q 771 -19 890 -19 q 610 25 665 -19 q 547 148 555 68 l 540 313 l 611 313 l 613 254 q 649 140 616 177 q 750 102 683 102 q 847 137 815 102 q 878 241 878 172 l 878 249 m 327 835 q 507 780 446 835 q 569 617 569 724 l 569 611 q 527 476 569 527 q 392 382 485 426 l 325 351 q 226 289 256 318 q 197 212 197 260 l 197 208 q 229 129 197 156 q 325 102 262 102 q 436 140 400 102 q 477 254 473 177 l 480 313 l 553 313 l 553 148 l 543 148 q 477 25 535 68 q 311 -19 419 -19 q 128 37 191 -19 q 65 199 65 92 l 65 206 q 85 306 65 264 q 149 381 106 348 q 260 444 192 413 l 326 473 q 415 531 390 501 q 440 608 440 560 l 440 613 q 411 694 440 667 q 324 721 382 721 q 237 692 267 721 q 208 603 208 663 l 208 599 q 214 533 208 563 q 231 476 220 503 l 108 476 q 89 531 97 498 q 81 605 81 563 l 81 610 q 144 779 81 722 q 327 835 207 835 z "},"ಝ":{"ha":1806,"x_min":78,"x_max":1726,"o":"m 756 272 l 756 370 l 813 370 l 813 273 l 756 272 m 1230 -284 q 1160 -196 1160 -284 l 1160 -190 q 1178 -66 1160 -122 q 1230 38 1196 -10 q 1283 -66 1265 -10 q 1301 -190 1301 -122 l 1301 -196 q 1230 -284 1301 -284 m 1001 822 q 1203 737 1136 822 q 1270 475 1270 651 l 1270 313 q 1203 64 1270 147 q 999 -19 1137 -19 q 816 45 877 -19 q 756 226 756 109 l 756 283 l 813 283 l 813 277 q 853 146 813 191 q 973 101 893 101 q 1098 154 1058 101 q 1137 317 1137 207 l 1137 475 q 1098 648 1137 594 q 977 702 1058 702 q 963 702 970 702 q 947 701 955 702 l 947 819 q 974 821 960 820 q 1001 822 988 822 m 1457 822 q 1659 737 1592 822 q 1726 475 1726 651 l 1726 313 q 1659 64 1726 147 q 1455 -19 1592 -19 q 1272 45 1333 -19 q 1211 226 1211 109 l 1211 283 l 1269 283 l 1269 277 q 1309 146 1269 191 q 1428 101 1349 101 q 1553 154 1514 101 q 1592 317 1592 207 l 1592 475 q 1553 648 1592 594 q 1433 702 1514 702 q 1418 702 1426 702 q 1402 701 1410 702 l 1402 819 q 1430 821 1416 820 q 1457 822 1443 822 m 235 719 l 662 719 l 662 697 q 778 608 740 676 q 817 419 817 540 l 817 344 q 724 69 817 162 q 448 -23 631 -23 q 172 69 265 -23 q 78 344 78 162 l 78 419 q 118 608 78 540 q 235 698 158 677 l 235 719 m 448 97 q 625 163 567 97 q 684 358 684 229 l 684 440 q 625 636 684 571 q 448 702 567 702 q 270 636 329 702 q 212 440 212 571 l 212 358 q 270 163 212 229 q 448 97 329 97 m 615 702 l 78 702 l 78 813 l 615 813 l 615 702 m 663 1066 l 772 1066 q 811 981 797 1028 q 825 881 825 934 q 661 701 825 701 l 579 701 l 569 813 l 613 813 q 681 835 660 813 q 702 907 702 857 q 691 988 702 948 q 663 1066 680 1028 z "},"ಞ":{"ha":1343,"x_min":47,"x_max":1301,"o":"m 1172 587 q 1142 683 1172 651 q 1052 715 1112 715 q 965 680 994 715 q 935 574 935 646 l 935 497 l 898 494 l 883 715 l 900 715 q 958 803 913 772 q 1080 835 1003 835 q 1245 777 1190 835 q 1301 602 1301 719 l 1301 597 q 1296 527 1301 559 q 1278 470 1290 494 l 1152 470 q 1166 518 1160 490 q 1172 582 1172 547 l 1172 587 m 963 -115 l 819 -115 q 800 11 813 -49 q 768 125 787 70 l 842 214 q 892 118 869 170 q 932 8 914 66 q 963 -115 949 -51 m 676 715 q 587 679 616 715 q 556 570 558 643 l 553 490 l 423 490 l 420 570 q 389 679 418 643 q 297 715 359 715 q 207 683 238 715 q 176 588 176 651 l 176 583 q 182 520 176 548 q 194 473 188 493 l 69 473 q 52 526 58 495 q 47 598 47 556 l 47 603 q 106 777 47 719 q 280 835 165 835 q 427 794 376 835 q 485 681 477 753 l 490 681 q 549 794 499 753 q 697 835 600 835 q 827 804 776 835 q 897 715 878 773 q 914 669 905 693 q 929 619 923 645 q 935 567 935 594 l 935 483 q 915 292 935 374 q 844 149 895 210 l 810 120 q 724 47 776 78 q 606 -1 672 15 q 462 -18 540 -18 q 234 35 312 -18 q 156 197 156 88 l 156 201 q 232 363 156 310 q 454 415 308 415 q 671 373 586 415 q 805 249 756 330 l 740 172 q 628 269 697 235 q 463 303 560 303 q 333 277 376 303 q 290 201 290 252 l 290 198 q 334 123 290 148 q 467 98 378 98 q 589 116 534 98 q 684 164 644 133 q 747 234 724 195 l 759 255 q 793 356 784 302 q 802 481 802 410 l 802 555 q 771 675 802 635 q 676 715 740 715 z "},"ಟ":{"ha":1081,"x_min":72,"x_max":1008,"o":"m 315 835 q 389 829 353 835 q 456 811 424 823 l 468 695 q 408 713 442 707 q 336 719 375 719 q 239 693 271 719 q 207 614 207 667 l 207 606 q 240 521 207 547 q 342 494 273 495 l 415 492 l 415 380 l 341 378 q 238 346 271 377 q 205 247 205 315 l 205 230 q 237 134 205 166 q 333 102 269 102 q 435 139 403 102 q 472 249 468 176 l 474 308 l 553 308 l 580 140 l 538 140 q 476 23 529 65 q 322 -19 423 -19 q 135 40 198 -19 q 72 216 72 99 l 72 234 q 110 374 72 324 q 221 433 147 424 l 221 438 q 111 491 149 447 q 74 616 74 535 l 74 628 q 134 783 74 731 q 315 835 194 835 m 766 835 q 946 783 886 835 q 1006 628 1006 731 l 1006 616 q 969 491 1006 535 q 860 438 932 447 l 860 433 q 971 374 933 424 q 1008 234 1008 324 l 1008 216 q 945 40 1008 99 q 758 -19 883 -19 q 605 23 658 -19 q 542 140 551 65 l 533 308 l 606 308 l 609 249 q 645 139 613 176 q 748 102 678 102 q 844 134 812 102 q 876 230 876 166 l 876 247 q 843 346 876 315 q 740 378 810 377 l 666 380 l 666 492 l 738 494 q 841 521 808 495 q 874 606 874 547 l 874 614 q 842 693 874 667 q 744 719 810 719 q 672 713 706 719 q 613 695 639 707 l 624 811 q 692 829 656 823 q 766 835 728 835 z "},"ಠ":{"ha":904,"x_min":78,"x_max":840,"o":"m 238 719 l 666 719 l 666 697 q 785 608 745 676 q 824 419 824 540 l 824 344 q 731 69 824 162 q 451 -23 637 -23 q 173 69 267 -23 q 78 344 78 162 l 78 419 q 119 608 78 540 q 238 698 160 677 l 238 719 m 78 813 l 613 813 l 618 702 l 78 702 l 78 813 m 452 521 q 505 498 488 521 q 522 423 522 475 l 522 391 q 505 316 522 339 q 452 292 488 292 q 399 316 417 292 q 381 391 381 339 l 381 423 q 399 498 381 475 q 452 521 417 521 m 691 440 q 632 636 691 571 q 451 702 572 702 q 272 636 331 702 q 212 440 212 571 l 212 358 q 272 163 212 229 q 451 97 331 97 q 632 163 572 97 q 691 358 691 229 l 691 440 m 677 1066 l 786 1066 q 826 981 812 1028 q 840 881 840 934 q 676 701 840 701 l 594 701 l 584 813 l 628 813 q 696 835 675 813 q 717 907 717 857 q 706 988 717 948 q 677 1066 694 1028 z "},"ಡ":{"ha":1063,"x_min":79,"x_max":1005,"o":"m 864 232 l 864 248 q 830 345 864 316 q 722 375 796 374 l 649 376 l 649 488 l 702 489 q 791 510 764 490 q 817 577 817 531 l 817 581 q 757 672 817 642 q 568 702 697 702 l 610 725 l 836 725 l 836 697 q 921 656 893 689 q 949 569 949 624 l 949 564 q 922 475 949 507 q 839 438 894 444 l 839 433 q 957 374 917 424 q 996 232 996 324 l 996 215 q 936 40 996 99 q 760 -19 876 -19 q 600 24 655 -19 q 536 144 544 67 l 532 144 q 473 24 524 67 q 322 -19 422 -19 q 140 52 201 -19 q 79 267 79 123 l 79 361 q 101 533 79 463 q 166 643 124 602 q 270 698 209 683 l 270 718 l 515 718 l 520 702 q 288 621 363 702 q 213 372 213 540 l 213 277 q 244 144 213 187 q 342 102 276 102 q 433 139 403 102 q 465 251 463 176 l 468 315 l 599 315 l 602 252 q 638 138 606 175 q 740 101 671 101 q 832 134 801 101 q 864 232 864 167 m 797 702 l 79 702 l 79 813 l 794 813 l 797 702 m 842 1066 l 951 1066 q 991 981 977 1028 q 1005 881 1005 934 q 841 701 1005 701 l 759 701 l 749 813 l 793 813 q 861 835 840 813 q 882 907 882 857 q 871 988 882 948 q 842 1066 860 1028 z "},"ಢ":{"ha":1062,"x_min":79,"x_max":1004,"o":"m 864 232 l 864 248 q 830 345 864 316 q 722 375 796 374 l 649 376 l 649 488 l 702 489 q 791 510 764 490 q 817 577 817 531 l 817 581 q 757 672 817 642 q 568 702 697 702 l 610 725 l 836 725 l 836 697 q 921 656 893 689 q 949 569 949 624 l 949 564 q 922 475 949 507 q 839 438 894 444 l 839 433 q 957 374 917 424 q 996 232 996 324 l 996 215 q 936 40 996 99 q 760 -19 876 -19 q 600 24 655 -19 q 536 144 544 67 l 532 144 q 473 24 524 67 q 322 -19 422 -19 q 140 52 201 -19 q 79 267 79 123 l 79 361 q 101 533 79 463 q 166 643 124 602 q 270 698 209 683 l 270 718 l 515 718 l 520 702 q 288 621 363 702 q 213 372 213 540 l 213 277 q 244 144 213 187 q 342 102 276 102 q 433 139 403 102 q 465 251 463 176 l 468 315 l 599 315 l 602 252 q 638 138 606 175 q 740 101 671 101 q 832 134 801 101 q 864 232 864 167 m 797 702 l 79 702 l 79 813 l 794 813 l 797 702 m 534 -283 q 464 -195 464 -283 l 464 -189 q 482 -65 464 -121 q 534 39 500 -10 q 587 -65 569 -10 q 605 -189 605 -121 l 605 -195 q 534 -283 605 -283 m 842 1066 l 951 1066 q 990 981 976 1028 q 1004 881 1004 934 q 840 701 1004 701 l 758 701 l 749 813 l 792 813 q 860 835 840 813 q 881 907 881 857 q 870 988 881 948 q 842 1066 859 1028 z "},"ಣ":{"ha":1110,"x_min":72,"x_max":1031,"o":"m 1031 343 l 899 326 l 899 503 q 864 663 899 610 q 751 715 830 715 q 652 679 685 715 q 615 569 618 643 l 612 507 l 482 507 l 479 570 q 442 680 476 644 q 339 715 407 715 q 241 682 274 715 q 208 581 208 649 l 208 567 q 241 478 208 506 q 343 449 274 450 l 413 449 l 413 335 l 344 334 q 239 305 273 333 q 206 217 206 278 l 206 210 q 239 125 206 153 q 337 97 272 97 q 408 103 376 97 q 466 119 440 109 l 454 3 q 393 -13 427 -8 q 322 -19 358 -19 q 135 36 197 -19 q 72 197 72 90 l 72 206 q 110 336 72 290 q 222 392 148 383 l 222 396 q 111 451 149 404 q 74 581 74 498 l 74 596 q 138 775 74 715 q 326 835 201 835 q 482 794 428 835 q 544 678 535 753 l 549 678 q 610 794 558 753 q 763 835 663 835 q 965 752 899 835 q 1031 505 1031 670 l 1031 343 m 899 347 l 1031 354 l 1031 274 q 972 53 1031 125 q 788 -19 914 -19 q 612 41 670 -19 q 554 217 554 101 l 554 239 q 600 408 554 351 q 741 465 647 465 q 841 439 804 465 q 894 367 878 413 l 919 367 l 906 276 q 859 334 890 314 q 786 355 829 355 q 708 326 733 355 q 682 236 682 297 l 682 218 q 708 126 682 157 q 789 96 734 96 q 874 134 849 96 q 899 258 899 172 l 899 347 z "},"ತ":{"ha":765,"x_min":43,"x_max":711,"o":"m 369 98 q 515 133 467 98 q 564 239 564 168 l 564 245 q 526 341 564 312 q 407 370 488 369 l 194 372 l 194 483 l 383 485 q 486 510 455 486 q 517 587 517 534 l 517 592 q 481 675 517 648 q 367 702 444 702 l 372 725 l 551 726 l 551 697 q 626 656 601 688 q 650 572 650 624 l 650 567 q 621 476 650 508 q 535 436 592 443 l 535 432 q 657 375 616 424 q 697 235 697 326 l 697 227 q 618 40 697 101 q 377 -22 539 -22 q 248 -10 308 -22 q 138 19 188 1 q 51 60 89 38 l 43 190 q 192 123 111 148 q 369 98 273 98 m 499 702 l 65 702 l 65 813 l 498 813 l 499 702 m 549 1066 l 658 1066 q 697 981 683 1028 q 711 881 711 934 q 547 701 711 701 l 465 701 l 456 813 l 499 813 q 567 835 547 813 q 588 907 588 857 q 577 988 588 948 q 549 1066 566 1028 z "},"ಥ":{"ha":1060,"x_min":79,"x_max":987,"o":"m 530 392 q 479 414 496 392 q 463 485 463 436 l 463 516 q 479 587 463 565 q 530 609 496 609 q 582 587 565 609 q 599 516 599 565 l 599 485 q 582 414 599 435 q 530 392 565 392 m 778 702 l 79 702 l 79 813 l 773 813 l 778 702 m 213 372 l 213 277 q 244 144 213 187 q 341 102 276 102 q 431 139 402 102 q 463 251 459 175 l 465 313 l 597 313 l 599 251 q 631 139 603 175 q 721 102 660 102 q 818 144 786 102 q 849 277 849 187 l 849 372 q 774 621 849 540 q 542 702 699 702 l 542 719 l 792 719 l 792 697 q 895 642 853 683 q 960 532 938 601 q 983 361 983 463 l 983 267 q 921 52 983 123 q 740 -19 860 -19 q 592 24 643 -19 q 533 144 540 66 l 529 144 q 470 24 522 66 q 322 -19 418 -19 q 140 52 201 -19 q 79 267 79 122 l 79 361 q 102 532 79 463 q 167 643 124 602 q 270 698 210 683 l 270 718 l 519 718 l 519 702 q 288 621 363 702 q 213 372 213 540 m 531 -283 q 460 -195 460 -283 l 460 -189 q 478 -65 460 -121 q 531 39 497 -10 q 583 -65 565 -10 q 601 -189 601 -121 l 601 -195 q 531 -283 601 -283 m 824 1066 l 933 1066 q 973 981 959 1028 q 987 881 987 934 q 823 701 987 701 l 741 701 l 731 813 l 775 813 q 843 835 822 813 q 864 907 864 857 q 853 988 864 948 q 824 1066 842 1028 z "},"ದ":{"ha":1062,"x_min":79,"x_max":988,"o":"m 213 372 l 213 277 q 244 144 213 187 q 341 102 276 102 q 431 139 402 102 q 463 251 460 175 l 466 325 l 596 325 l 599 251 q 631 139 603 175 q 721 102 660 102 q 818 144 786 102 q 849 277 849 187 l 849 372 q 774 621 849 540 q 542 702 699 702 l 542 719 l 792 719 l 792 697 q 895 642 853 683 q 960 532 938 601 q 983 361 983 463 l 983 267 q 921 52 983 123 q 740 -19 860 -19 q 592 24 643 -19 q 533 144 540 66 l 529 144 q 470 24 522 66 q 322 -19 418 -19 q 140 52 201 -19 q 79 267 79 122 l 79 361 q 102 532 79 463 q 167 643 124 602 q 270 698 210 683 l 270 718 l 519 718 l 519 702 q 288 621 363 702 q 213 372 213 540 m 778 702 l 79 702 l 79 813 l 773 813 l 778 702 m 826 1066 l 935 1066 q 974 981 960 1028 q 988 881 988 934 q 824 701 988 701 l 742 701 l 733 813 l 776 813 q 844 835 824 813 q 865 907 865 857 q 854 988 865 948 q 826 1066 843 1028 z "},"ಧ":{"ha":1062,"x_min":79,"x_max":988,"o":"m 213 372 l 213 277 q 244 144 213 187 q 341 102 276 102 q 431 139 402 102 q 463 251 460 175 l 466 325 l 596 325 l 599 251 q 631 139 603 175 q 721 102 660 102 q 818 144 786 102 q 849 277 849 187 l 849 372 q 774 621 849 540 q 542 702 699 702 l 542 719 l 792 719 l 792 697 q 895 642 853 683 q 960 532 938 601 q 983 361 983 463 l 983 267 q 921 52 983 123 q 740 -19 860 -19 q 592 24 643 -19 q 533 144 540 66 l 529 144 q 470 24 522 66 q 322 -19 418 -19 q 140 52 201 -19 q 79 267 79 122 l 79 361 q 102 532 79 463 q 167 643 124 602 q 270 698 210 683 l 270 718 l 519 718 l 519 702 q 288 621 363 702 q 213 372 213 540 m 778 702 l 79 702 l 79 813 l 773 813 l 778 702 m 826 1066 l 935 1066 q 974 981 960 1028 q 988 881 988 934 q 824 701 988 701 l 742 701 l 733 813 l 776 813 q 844 835 824 813 q 865 907 865 857 q 854 988 865 948 q 826 1066 843 1028 m 531 -283 q 460 -195 460 -283 l 460 -189 q 478 -65 460 -121 q 531 39 497 -10 q 583 -65 565 -10 q 601 -189 601 -121 l 601 -195 q 531 -283 601 -283 z "},"ನ":{"ha":999,"x_min":72,"x_max":926,"o":"m 676 -19 q 514 27 575 -19 q 429 176 452 74 l 410 263 q 371 353 395 327 q 303 379 347 379 q 228 347 253 379 q 203 248 203 315 l 203 222 q 218 95 203 156 q 256 -12 233 34 l 123 -12 q 85 90 98 31 q 72 224 72 149 l 72 250 q 131 437 72 376 q 299 498 189 498 q 448 453 393 498 q 524 310 502 408 l 544 225 q 590 130 559 158 q 671 101 622 101 q 759 143 730 101 q 788 264 788 184 l 788 331 q 742 545 788 463 q 598 664 696 626 q 345 701 501 701 l 345 717 l 688 717 l 688 697 q 816 640 764 682 q 894 520 868 597 q 921 322 921 443 l 921 255 q 858 51 921 121 q 676 -19 795 -19 m 700 701 l 92 701 l 92 813 l 695 813 l 700 701 m 764 1066 l 873 1066 q 913 981 899 1028 q 926 881 926 934 q 763 701 926 701 l 681 701 l 671 813 l 715 813 q 783 835 762 813 q 803 907 803 857 q 792 988 803 948 q 764 1066 781 1028 z "},"ಪ":{"ha":1078,"x_min":69,"x_max":1005,"o":"m 272 499 q 332 492 306 499 q 379 473 358 485 l 386 360 q 348 377 369 370 q 302 383 327 383 q 224 353 249 383 q 199 261 199 323 l 199 235 q 232 134 199 168 q 330 100 265 100 q 435 139 401 100 q 474 255 470 177 l 477 326 l 607 326 l 610 255 q 646 140 614 177 q 743 102 678 102 q 872 264 872 102 l 872 308 q 848 464 872 398 q 788 579 825 531 l 919 579 q 984 463 963 529 q 1005 301 1005 396 l 1005 256 q 944 51 1005 120 q 763 -19 883 -19 q 607 25 661 -19 q 544 147 552 68 l 540 147 q 476 25 531 68 q 315 -19 421 -19 q 131 44 194 -19 q 69 231 69 108 l 69 265 q 120 439 69 379 q 272 499 172 499 m 777 701 l 101 701 l 101 813 l 777 813 l 777 701 m 543 438 q 490 461 508 438 q 472 538 472 485 l 472 569 q 490 645 472 622 q 543 669 508 669 q 596 645 579 669 q 613 568 613 622 l 613 538 q 596 461 613 485 q 543 438 579 438 m 842 1066 l 951 1066 q 991 981 977 1028 q 1005 881 1005 934 q 841 701 1005 701 l 759 701 l 749 813 l 793 813 q 861 835 840 813 q 882 907 882 857 q 871 988 882 948 q 842 1066 860 1028 z "},"ಫ":{"ha":1078,"x_min":69,"x_max":1005,"o":"m 272 499 q 332 492 306 499 q 379 473 358 485 l 386 360 q 348 377 369 370 q 302 383 327 383 q 224 353 249 383 q 199 261 199 323 l 199 235 q 232 134 199 168 q 330 100 265 100 q 435 139 401 100 q 474 255 470 177 l 477 326 l 607 326 l 610 255 q 646 140 614 177 q 743 102 678 102 q 872 264 872 102 l 872 308 q 848 464 872 398 q 788 579 825 531 l 919 579 q 984 463 963 529 q 1005 301 1005 396 l 1005 256 q 944 51 1005 120 q 763 -19 883 -19 q 607 25 661 -19 q 544 147 552 68 l 540 147 q 476 25 531 68 q 315 -19 421 -19 q 131 44 194 -19 q 69 231 69 108 l 69 265 q 120 439 69 379 q 272 499 172 499 m 777 701 l 101 701 l 101 813 l 777 813 l 777 701 m 543 438 q 490 461 508 438 q 472 538 472 485 l 472 569 q 490 645 472 622 q 543 669 508 669 q 596 645 579 669 q 613 568 613 622 l 613 538 q 596 461 613 485 q 543 438 579 438 m 842 1066 l 951 1066 q 991 981 977 1028 q 1005 881 1005 934 q 841 701 1005 701 l 759 701 l 749 813 l 793 813 q 861 835 840 813 q 882 907 882 857 q 871 988 882 948 q 842 1066 860 1028 m 542 -283 q 472 -195 472 -283 l 472 -189 q 490 -65 472 -121 q 542 39 508 -10 q 594 -65 576 -10 q 613 -189 613 -121 l 613 -195 q 542 -283 613 -283 z "},"ಬ":{"ha":1094,"x_min":65,"x_max":1015,"o":"m 749 822 q 949 737 884 822 q 1015 476 1015 652 l 1015 295 q 953 59 1015 137 q 769 -19 892 -19 q 611 25 666 -19 q 547 148 556 68 l 540 313 l 611 313 l 613 253 q 648 139 616 176 q 745 102 680 102 q 848 149 815 102 q 881 297 881 197 l 881 475 q 844 648 881 594 q 725 702 806 702 q 710 702 718 702 q 694 701 702 701 l 694 819 q 722 822 708 821 q 749 822 735 822 m 327 835 q 507 780 446 835 q 569 617 569 724 l 569 611 q 527 476 569 527 q 392 382 485 426 l 325 351 q 226 289 256 318 q 197 212 197 260 l 197 208 q 229 129 197 156 q 325 102 262 102 q 436 140 400 102 q 477 254 473 177 l 480 313 l 551 313 l 553 148 l 543 148 q 477 25 535 68 q 311 -19 419 -19 q 128 37 191 -19 q 65 199 65 92 l 65 206 q 85 306 65 264 q 149 381 106 348 q 260 444 192 413 l 326 473 q 415 531 390 501 q 440 608 440 560 l 440 613 q 411 694 440 667 q 324 721 382 721 q 237 692 267 721 q 208 603 208 663 l 208 599 q 214 533 208 563 q 231 476 220 503 l 108 476 q 89 531 97 498 q 81 605 81 563 l 81 610 q 144 779 81 722 q 327 835 207 835 z "},"ಭ":{"ha":1094,"x_min":65,"x_max":1023,"o":"m 327 835 q 507 780 446 835 q 569 617 569 724 l 569 611 q 527 476 569 527 q 392 382 485 426 l 325 351 q 226 289 256 318 q 197 212 197 260 l 197 208 q 229 129 197 156 q 325 102 262 102 q 436 140 400 102 q 477 254 473 177 l 480 313 l 611 313 l 613 253 q 648 139 616 176 q 745 102 680 102 q 848 149 815 102 q 881 297 881 197 l 881 445 q 827 641 881 580 q 663 702 774 702 l 663 715 l 867 715 l 867 697 q 977 616 940 681 q 1015 422 1015 551 l 1015 295 q 953 59 1015 137 q 769 -19 892 -19 q 611 25 666 -19 q 547 148 556 68 l 543 148 q 477 25 535 68 q 311 -19 419 -19 q 128 37 191 -19 q 65 199 65 92 l 65 206 q 85 306 65 264 q 149 381 106 348 q 260 444 192 413 l 326 473 q 415 531 390 501 q 440 608 440 560 l 440 613 q 411 694 440 667 q 324 721 382 721 q 237 692 267 721 q 208 603 208 663 l 208 599 q 214 533 208 563 q 231 476 220 503 l 108 476 q 89 531 97 498 q 81 605 81 563 l 81 610 q 144 779 81 722 q 327 835 207 835 m 639 702 l 639 813 l 826 813 l 826 702 l 639 702 m 860 1066 l 969 1066 q 1009 981 995 1028 q 1023 881 1023 934 q 859 701 1023 701 l 777 701 l 767 813 l 811 813 q 879 835 858 813 q 900 907 900 857 q 889 988 900 948 q 860 1066 878 1028 m 545 -283 q 475 -195 475 -283 l 475 -189 q 493 -65 475 -121 q 545 39 511 -10 q 598 -65 580 -10 q 616 -189 616 -121 l 616 -195 q 545 -283 616 -283 z "},"ಮ":{"ha":1535,"x_min":69,"x_max":1456,"o":"m 1187 822 q 1389 737 1322 822 q 1456 475 1456 651 l 1456 313 q 1389 64 1456 147 q 1185 -19 1322 -19 q 1002 45 1063 -19 q 941 226 941 109 l 941 283 l 999 283 l 999 277 q 1039 146 999 191 q 1158 101 1078 101 q 1283 154 1244 101 q 1322 317 1322 207 l 1322 475 q 1283 648 1322 594 q 1163 702 1244 702 q 1148 702 1156 702 q 1132 701 1140 702 l 1132 819 q 1159 821 1146 820 q 1187 822 1173 822 m 760 -19 q 606 25 660 -19 q 544 147 552 68 l 540 147 q 476 25 531 68 q 315 -19 421 -19 q 131 44 194 -19 q 69 231 69 108 l 69 265 q 120 439 69 379 q 272 499 172 499 q 332 492 306 499 q 379 473 358 485 l 386 360 q 348 377 369 370 q 302 383 327 383 q 224 353 249 383 q 199 261 199 323 l 199 235 q 232 134 199 168 q 330 100 265 100 q 435 139 401 100 q 474 255 470 177 l 477 326 l 607 326 l 610 255 q 645 140 614 177 q 740 102 676 102 q 834 142 803 102 q 865 264 865 182 l 865 331 q 819 545 865 464 q 675 665 773 627 q 422 702 578 702 l 422 717 l 764 718 l 764 698 q 892 640 840 683 q 971 520 944 598 q 998 322 998 443 l 998 256 q 938 51 998 120 q 760 -19 878 -19 m 758 702 l 106 702 l 106 813 l 753 813 l 758 702 m 835 1066 l 944 1066 q 984 981 970 1028 q 998 881 998 934 q 834 701 998 701 l 752 701 l 742 813 l 786 813 q 854 835 833 813 q 875 907 875 857 q 864 988 875 948 q 835 1066 853 1028 z "},"ಯ":{"ha":1758,"x_min":79,"x_max":1678,"o":"m 871 716 l 1075 716 l 1075 697 q 1185 616 1148 681 q 1223 422 1223 551 l 1223 313 q 1155 64 1223 147 q 949 -19 1088 -19 q 763 43 824 -19 q 701 219 701 106 l 701 358 l 766 359 l 766 277 q 806 146 766 191 q 926 101 846 101 q 1050 154 1011 101 q 1090 317 1090 207 l 1090 445 q 1036 641 1090 580 q 871 702 982 702 l 871 716 m 837 813 l 1033 813 l 1033 702 l 837 702 l 837 813 m 767 482 l 767 339 q 680 70 767 161 q 423 -20 592 -20 q 167 70 254 -20 q 79 337 79 160 l 79 482 q 166 749 79 659 q 422 839 253 839 q 679 749 592 839 q 767 482 767 659 m 423 99 q 580 159 527 99 q 633 338 633 220 l 633 481 q 580 659 633 599 q 422 720 526 720 q 265 660 318 720 q 213 481 213 599 l 213 338 q 266 159 213 220 q 423 99 319 99 m 1067 1066 l 1176 1066 q 1215 981 1201 1028 q 1229 881 1229 934 q 1065 701 1229 701 l 983 701 l 974 813 l 1017 813 q 1085 835 1065 813 q 1106 907 1106 857 q 1095 988 1106 948 q 1067 1066 1084 1028 m 1410 822 q 1611 737 1544 822 q 1678 475 1678 651 l 1678 313 q 1612 64 1678 147 q 1408 -19 1545 -19 q 1225 45 1285 -19 q 1164 226 1164 109 l 1164 283 l 1222 283 l 1222 277 q 1261 146 1222 191 q 1381 101 1301 101 q 1506 154 1467 101 q 1545 317 1545 207 l 1545 475 q 1506 648 1545 594 q 1385 702 1467 702 q 1371 702 1378 702 q 1355 701 1363 702 l 1355 819 q 1382 821 1369 820 q 1410 822 1396 822 z "},"ರ":{"ha":897,"x_min":78,"x_max":825,"o":"m 235 719 l 662 719 l 662 697 q 778 608 740 676 q 817 419 817 540 l 817 344 q 724 69 817 162 q 448 -23 631 -23 q 172 69 265 -23 q 78 344 78 162 l 78 419 q 118 608 78 540 q 235 698 158 677 l 235 719 m 448 97 q 625 163 567 97 q 684 358 684 229 l 684 440 q 625 636 684 571 q 448 702 567 702 q 270 636 329 702 q 212 440 212 571 l 212 358 q 270 163 212 229 q 448 97 329 97 m 615 702 l 78 702 l 78 813 l 615 813 l 615 702 m 663 1066 l 772 1066 q 811 981 797 1028 q 825 881 825 934 q 661 701 825 701 l 579 701 l 569 813 l 613 813 q 681 835 660 813 q 702 907 702 857 q 691 988 702 948 q 663 1066 680 1028 z "},"ಲ":{"ha":1028,"x_min":72,"x_max":952,"o":"m 202 451 l 72 444 l 72 530 q 134 760 72 685 q 324 835 195 835 q 502 772 442 835 q 562 585 562 708 l 562 565 q 515 394 562 451 q 374 336 467 336 q 267 363 308 336 q 208 435 225 389 l 183 435 l 188 538 q 244 471 208 494 q 332 447 281 447 q 407 476 382 447 q 432 567 432 505 l 432 587 q 406 686 432 653 q 324 720 379 720 q 230 677 257 720 q 202 540 202 634 l 202 451 m 72 456 l 203 458 l 203 398 q 282 174 203 249 q 516 99 360 99 q 744 173 669 99 q 819 390 819 247 l 819 495 q 783 653 819 603 q 672 703 747 703 q 659 703 665 703 q 645 702 652 703 l 645 820 q 670 823 657 822 q 695 824 683 824 q 888 742 824 824 q 952 494 952 661 l 952 389 q 842 83 952 186 q 516 -20 732 -20 q 184 85 297 -20 q 72 398 72 191 l 72 456 z "},"ವ":{"ha":1078,"x_min":69,"x_max":998,"o":"m 760 -19 q 606 25 660 -19 q 544 147 552 68 l 540 147 q 476 25 531 68 q 315 -19 421 -19 q 131 44 194 -19 q 69 231 69 108 l 69 265 q 120 439 69 379 q 272 499 172 499 q 332 492 306 499 q 379 473 358 485 l 386 360 q 348 377 369 370 q 302 383 327 383 q 224 353 249 383 q 199 261 199 323 l 199 235 q 232 134 199 168 q 330 100 265 100 q 435 139 401 100 q 474 255 470 177 l 477 326 l 607 326 l 610 255 q 645 140 614 177 q 740 102 676 102 q 834 142 803 102 q 865 264 865 182 l 865 331 q 819 545 865 464 q 675 665 773 627 q 422 702 578 702 l 422 717 l 764 718 l 764 698 q 892 640 840 683 q 971 520 944 598 q 998 322 998 443 l 998 256 q 938 51 998 120 q 760 -19 878 -19 m 758 702 l 106 702 l 106 813 l 753 813 l 758 702 m 835 1066 l 944 1066 q 984 981 970 1028 q 998 881 998 934 q 834 701 998 701 l 752 701 l 742 813 l 786 813 q 854 835 833 813 q 875 907 875 857 q 864 988 875 948 q 835 1066 853 1028 z "},"ಶ":{"ha":846,"x_min":69,"x_max":769,"o":"m 69 813 l 572 813 l 572 702 l 297 702 l 288 702 l 69 702 l 69 813 m 630 457 q 579 641 630 579 q 421 702 528 702 q 279 659 326 702 q 231 531 231 616 l 231 505 l 96 505 l 96 524 q 126 644 96 603 q 216 698 157 685 l 216 719 l 627 719 l 627 698 q 731 611 698 677 q 763 425 763 544 l 763 318 q 674 61 763 145 q 400 -23 585 -23 q 222 6 297 -23 q 109 91 148 35 q 69 230 69 148 l 69 235 q 91 343 69 299 q 160 419 113 387 q 280 481 206 452 l 633 622 l 652 510 l 339 381 q 261 342 291 362 q 217 298 231 323 q 203 238 203 274 l 203 233 q 225 160 203 191 q 291 113 247 130 q 399 97 334 97 q 573 155 517 97 q 630 330 630 213 l 630 457 m 606 1066 l 715 1066 q 755 981 741 1028 q 769 881 769 934 q 605 701 769 701 l 523 701 l 513 813 l 557 813 q 625 835 604 813 q 646 907 646 857 q 635 988 646 948 q 606 1066 624 1028 z "},"ಷ":{"ha":1102,"x_min":69,"x_max":1077,"o":"m 272 499 q 332 492 306 499 q 379 473 358 485 l 386 360 q 348 377 369 370 q 302 383 327 383 q 224 353 249 383 q 199 261 199 323 l 199 235 q 232 134 199 168 q 330 100 265 100 q 435 139 401 100 q 474 255 470 177 l 477 326 l 607 326 l 610 255 q 646 140 614 177 q 743 102 678 102 q 840 138 808 102 q 872 244 872 174 q 869 291 872 262 q 859 356 865 320 q 847 428 853 391 q 832 501 840 466 q 817 565 824 537 l 944 565 q 972 461 958 519 q 999 335 985 402 q 1025 194 1012 267 q 1052 45 1039 121 q 1077 -106 1065 -31 l 936 -106 l 942 130 l 938 131 q 878 20 925 58 q 749 -19 831 -19 q 602 25 653 -19 q 544 147 551 68 l 540 147 q 476 25 531 68 q 315 -19 421 -19 q 131 44 194 -19 q 69 231 69 108 l 69 265 q 120 439 69 379 q 272 499 172 499 m 777 701 l 101 701 l 101 813 l 777 813 l 777 701 m 543 669 q 596 645 579 669 q 613 568 613 622 l 613 538 q 596 461 613 485 q 543 438 579 438 q 490 461 508 438 q 472 538 472 485 l 472 569 q 490 645 472 622 q 543 669 508 669 m 833 1066 l 942 1066 q 981 981 967 1028 q 995 881 995 934 q 831 701 995 701 l 749 701 l 740 813 l 783 813 q 851 835 831 813 q 872 907 872 857 q 861 988 872 948 q 833 1066 850 1028 z "},"ಸ":{"ha":1007,"x_min":70,"x_max":932,"o":"m 733 701 l 88 701 l 88 813 l 733 813 l 733 701 m 500 451 q 447 474 465 451 q 430 551 430 498 l 430 581 q 447 658 430 635 q 500 681 465 681 q 553 658 536 681 q 571 581 571 635 l 571 550 q 553 474 571 497 q 500 451 536 451 m 932 256 q 869 50 932 119 q 683 -19 806 -19 q 519 28 578 -19 q 428 172 460 74 l 413 219 q 385 284 400 259 q 350 320 370 308 q 301 331 331 331 q 226 300 251 331 q 201 204 201 269 l 201 188 q 217 79 201 131 q 254 -12 233 27 l 122 -12 q 84 76 98 25 q 70 192 70 127 l 70 210 q 128 390 70 330 q 296 450 186 450 q 403 431 359 450 q 477 371 447 411 q 527 268 507 331 l 542 221 q 594 130 563 158 q 677 101 625 101 q 768 143 738 101 q 799 265 799 184 l 799 308 q 775 464 799 398 q 715 579 752 531 l 847 579 q 911 463 890 529 q 932 301 932 396 l 932 256 m 769 1066 l 878 1066 q 918 981 904 1028 q 932 881 932 934 q 768 701 932 701 l 686 701 l 676 813 l 720 813 q 788 835 767 813 q 809 907 809 857 q 798 988 809 948 q 769 1066 787 1028 z "},"ಹ":{"ha":1119,"x_min":69,"x_max":1051,"o":"m 331 -19 q 139 50 203 -19 q 74 252 74 118 l 74 293 q 136 499 74 432 q 319 566 199 566 q 367 562 343 566 q 413 549 391 558 l 453 478 l 487 484 l 481 417 q 419 443 451 435 q 354 452 388 452 q 241 415 278 452 q 205 294 205 377 l 205 257 q 241 139 205 179 q 348 99 276 99 q 453 136 419 99 q 497 245 488 172 l 448 530 q 413 633 437 595 q 348 686 390 670 q 242 701 306 701 l 242 711 l 449 710 l 449 697 q 529 652 498 688 q 574 538 560 615 l 599 388 l 574 390 q 641 530 581 483 q 796 576 701 576 q 982 505 918 576 q 1045 301 1045 435 l 1045 254 q 983 50 1045 119 q 796 -19 920 -19 q 637 22 694 -19 q 560 142 581 63 l 556 142 q 523 56 549 92 q 449 1 496 20 q 331 -19 401 -19 m 780 100 q 881 139 848 100 q 915 256 915 178 l 915 301 q 880 419 915 378 q 773 460 844 460 q 666 424 706 460 q 614 325 626 388 l 629 238 q 677 134 642 167 q 780 100 713 100 m 835 701 l 69 701 l 69 813 l 835 813 l 835 701 m 888 1066 l 997 1066 q 1037 981 1023 1028 q 1051 881 1051 934 q 887 701 1051 701 l 805 701 l 795 813 l 839 813 q 907 835 886 813 q 928 907 928 857 q 917 988 928 948 q 888 1066 906 1028 z "},"ಳ":{"ha":969,"x_min":44,"x_max":931,"o":"m 738 701 l 575 701 l 575 813 l 738 813 l 738 701 m 486 260 q 393 239 425 260 q 362 173 362 217 l 362 169 q 393 103 362 124 q 486 81 425 81 q 579 103 548 81 q 610 169 610 124 l 610 173 q 579 239 610 217 q 486 260 548 260 m 486 333 l 599 310 q 703 260 668 297 q 739 156 739 223 l 739 151 q 674 18 739 63 q 486 -26 608 -26 q 299 18 365 -26 q 233 151 233 63 l 233 156 q 269 260 233 223 q 373 310 304 297 l 486 333 m 172 554 l 44 569 l 44 583 q 105 770 44 705 q 283 835 166 835 q 450 783 394 835 q 507 632 507 731 l 507 623 q 464 487 507 533 q 336 440 420 440 q 235 465 275 440 q 176 531 194 490 l 147 531 l 165 613 q 213 561 182 580 q 289 543 244 543 q 356 564 333 543 q 378 628 378 585 l 378 633 q 355 700 378 677 q 283 724 331 724 q 220 708 244 724 q 183 661 195 692 q 172 587 172 631 l 172 554 m 44 574 l 173 559 l 173 543 q 248 407 173 453 q 479 360 324 360 q 694 407 622 360 q 767 544 767 454 l 767 554 q 723 665 767 628 q 590 701 678 701 l 591 724 l 786 724 l 786 697 q 868 649 837 688 q 899 531 899 610 l 899 522 q 815 337 899 403 q 568 267 731 272 l 488 303 l 406 264 q 137 338 230 267 q 44 556 44 409 l 44 574 m 769 1066 l 878 1066 q 917 981 903 1028 q 931 881 931 934 q 767 701 931 701 l 685 701 l 676 813 l 719 813 q 788 835 767 813 q 808 907 808 857 q 797 988 808 948 q 769 1066 786 1028 z "},"ಱ":{"ha":1208,"x_min":77,"x_max":1131,"o":"m 77 467 l 208 492 l 208 321 q 250 155 208 208 q 378 102 292 102 q 494 143 457 102 q 535 270 531 185 l 538 301 l 671 301 l 673 270 q 715 143 678 185 q 830 102 751 102 q 958 155 916 102 q 999 321 999 208 l 999 536 q 974 677 999 634 q 888 719 948 719 q 811 686 836 719 q 785 588 785 653 l 785 581 q 813 487 785 517 q 897 457 840 457 l 897 446 l 763 446 l 763 461 q 683 504 710 470 q 656 603 656 538 l 656 613 q 714 778 656 722 q 886 835 772 835 q 1071 762 1011 835 q 1131 535 1131 689 l 1131 317 q 1060 65 1131 148 q 849 -19 990 -19 q 676 30 736 -19 q 606 167 616 78 l 602 167 q 533 30 593 78 q 359 -19 472 -19 q 148 65 219 -19 q 77 317 77 148 l 77 467 m 917 349 l 373 349 l 378 457 l 917 457 l 917 349 m 373 349 q 269 376 310 349 q 213 448 229 402 l 188 448 l 193 551 q 247 484 213 508 q 331 460 281 460 q 401 488 378 460 q 424 574 424 515 l 424 593 q 399 688 424 656 q 322 720 374 720 q 233 678 259 720 q 207 545 207 636 l 207 465 l 77 447 l 77 535 q 137 761 77 688 q 323 835 197 835 q 496 773 438 835 q 554 591 554 711 l 554 576 q 534 467 554 508 q 473 400 513 426 q 373 349 433 374 z "},"಼":{"ha":0,"x_min":-222,"x_max":222,"o":"m -156 -90 q -108 -108 -125 -90 q -90 -164 -90 -126 q -108 -220 -90 -201 q -156 -239 -125 -239 q -205 -220 -187 -239 q -222 -164 -222 -201 q -205 -108 -222 -126 q -156 -90 -187 -90 m 157 -90 q 205 -108 188 -90 q 222 -164 222 -126 q 205 -220 222 -201 q 157 -239 188 -239 q 108 -220 126 -239 q 90 -164 90 -201 q 108 -108 90 -126 q 157 -90 126 -90 z "},"ೞ":{"ha":1208,"x_min":77,"x_max":1131,"o":"m 77 467 l 208 492 l 208 321 q 250 155 208 208 q 378 102 292 102 q 494 143 457 102 q 535 270 531 185 l 538 316 l 670 316 l 673 270 q 715 143 678 185 q 830 102 751 102 q 958 155 917 102 q 1000 321 1000 208 l 1000 492 l 1131 467 l 1131 317 q 1060 65 1131 148 q 849 -19 990 -19 q 676 30 736 -19 q 606 167 616 78 l 602 167 q 533 30 593 78 q 359 -19 472 -19 q 148 65 219 -19 q 77 317 77 148 l 77 467 m 323 835 q 496 773 438 835 q 554 591 554 711 l 554 572 q 508 406 554 462 q 373 349 463 349 q 269 376 310 349 q 213 448 229 402 l 188 448 l 193 551 q 247 484 213 508 q 331 460 281 460 q 401 488 378 460 q 424 574 424 515 l 424 593 q 399 688 424 656 q 322 720 374 720 q 233 678 259 720 q 207 545 207 636 l 207 465 l 77 447 l 77 535 q 137 761 77 688 q 323 835 197 835 m 885 835 q 1072 761 1012 835 q 1131 535 1131 688 l 1131 447 l 1001 465 l 1001 545 q 975 678 1001 636 q 886 720 949 720 q 809 688 834 720 q 784 593 784 656 l 784 574 q 808 488 784 515 q 878 460 831 460 q 961 484 927 460 q 1015 551 996 508 l 1020 448 l 996 448 q 942 376 981 402 q 842 349 903 349 q 702 406 749 349 q 654 572 654 462 l 654 591 q 712 773 654 711 q 885 835 770 835 z "},"ೱ":{"ha":754,"x_min":31,"x_max":694,"o":"m 31 813 l 693 813 l 693 703 l 448 410 l 694 110 l 694 0 l 31 0 l 31 110 l 278 410 l 31 703 l 31 813 m 187 706 l 363 490 l 538 706 l 187 706 m 185 108 l 540 108 l 363 332 l 185 108 z "},"ೲ":{"ha":1070,"x_min":45,"x_max":1025,"o":"m 272 627 q 441 571 385 627 q 497 403 497 515 l 497 366 q 441 198 497 255 q 272 142 385 142 q 102 198 158 142 q 45 366 45 255 l 45 403 q 102 571 45 515 q 272 627 158 627 m 272 519 q 195 490 221 519 q 170 404 170 461 l 170 365 q 195 279 170 308 q 271 250 220 250 q 348 279 322 250 q 373 365 373 308 l 373 404 q 348 490 373 461 q 272 519 323 519 m 799 627 q 969 571 913 627 q 1025 403 1025 515 l 1025 366 q 969 198 1025 255 q 799 142 913 142 q 629 198 685 142 q 573 366 573 255 l 573 403 q 629 571 573 515 q 799 627 685 627 m 799 519 q 723 490 748 519 q 698 404 698 461 l 698 365 q 723 279 698 308 q 799 250 748 250 q 875 279 850 250 q 900 365 900 308 l 900 404 q 875 490 900 461 q 799 519 850 519 z "},"೦":{"ha":869,"x_min":78,"x_max":790,"o":"m 212 403 l 78 403 l 78 469 q 168 746 78 653 q 434 839 258 839 q 700 746 610 839 q 790 469 790 653 l 790 403 l 656 403 l 656 468 q 600 657 656 594 q 434 720 544 720 q 268 657 324 720 q 212 469 212 594 l 212 403 m 212 418 l 212 350 q 268 161 212 224 q 435 98 324 98 q 601 161 545 98 q 656 351 656 225 l 656 418 l 790 418 l 790 349 q 700 72 790 165 q 435 -21 610 -21 q 169 72 260 -21 q 78 349 78 165 l 78 418 l 212 418 z "},"೧":{"ha":869,"x_min":80,"x_max":790,"o":"m 435 839 q 700 744 611 839 q 790 463 790 650 l 790 340 q 768 142 790 226 q 703 0 747 58 l 561 0 q 631 151 606 69 q 656 340 656 233 l 656 461 q 601 655 656 590 q 435 720 545 720 q 269 655 324 720 q 213 461 213 590 l 213 340 q 239 151 213 233 q 308 0 264 69 l 167 0 q 101 142 123 58 q 80 340 80 226 l 80 463 q 169 744 80 650 q 435 839 259 839 z "},"೨":{"ha":983,"x_min":4,"x_max":913,"o":"m 194 504 l 323 522 l 323 465 q 349 376 323 406 q 427 345 376 345 q 497 368 473 345 q 520 440 520 391 l 520 451 q 497 520 520 497 q 430 542 474 542 q 359 522 388 542 q 317 461 331 501 l 307 549 l 327 549 q 381 621 343 594 q 476 648 418 648 q 606 599 563 648 q 649 457 649 551 l 649 439 q 594 288 649 340 q 428 235 540 235 q 255 294 315 235 q 194 472 194 352 l 194 504 m 323 519 l 194 502 l 194 510 q 283 753 194 672 q 544 834 372 834 q 820 742 727 834 q 913 468 913 649 l 913 405 q 808 102 913 203 q 489 0 703 0 l 22 0 l 4 113 l 463 113 q 704 186 627 113 q 781 409 781 259 l 781 471 q 720 659 781 595 q 538 723 660 723 q 378 675 434 723 q 323 535 323 626 l 323 519 z "},"೩":{"ha":871,"x_min":67,"x_max":875,"o":"m 833 -16 q 649 34 713 -16 q 572 183 585 83 l 570 266 l 624 275 l 628 251 q 697 136 649 173 q 842 100 746 100 l 875 100 l 856 -16 l 833 -16 m 326 -19 q 132 38 197 -19 q 67 203 67 94 l 67 209 q 127 368 67 313 q 306 423 188 423 q 448 392 395 423 q 522 310 500 361 l 505 213 q 437 285 483 260 q 328 311 391 311 q 228 285 262 311 q 195 206 195 259 l 195 201 q 230 122 195 148 q 334 96 265 96 q 446 131 406 96 q 500 240 486 165 q 500 244 500 240 q 501 252 501 248 q 501 256 501 256 q 503 293 502 276 q 506 326 505 309 q 506 363 506 343 l 506 510 q 469 668 506 617 q 350 719 432 719 q 245 686 281 719 q 210 586 210 652 l 210 579 q 215 520 210 547 q 228 475 220 494 l 103 475 q 86 526 92 496 q 80 590 80 556 l 80 597 q 148 774 80 713 q 350 835 217 835 q 568 753 497 835 q 638 507 638 672 l 638 358 q 637 306 638 335 q 633 250 635 278 q 625 199 630 222 l 572 201 l 610 215 q 572 92 606 144 q 478 10 539 40 q 326 -19 417 -19 z "},"೪":{"ha":945,"x_min":44,"x_max":899,"o":"m 481 260 q 389 239 420 260 q 357 173 357 217 l 357 169 q 389 103 357 124 q 481 81 420 81 q 574 103 543 81 q 606 169 606 124 l 606 173 q 574 239 606 217 q 481 260 543 260 m 481 333 l 594 308 q 699 259 663 295 q 734 156 734 222 l 734 151 q 669 18 734 63 q 481 -26 603 -26 q 294 18 360 -26 q 228 151 228 63 l 228 156 q 264 259 228 222 q 368 308 299 295 l 481 333 m 406 264 q 137 338 230 267 q 44 556 44 409 l 44 574 l 173 559 l 173 543 q 248 407 173 453 q 479 360 324 360 q 694 408 622 360 q 767 551 767 456 l 767 562 q 733 672 767 635 q 633 708 700 708 q 616 707 624 708 q 601 706 608 707 l 601 819 q 627 823 613 822 q 655 824 640 824 q 838 758 777 824 q 899 565 899 693 l 899 549 q 815 344 899 417 q 568 267 731 272 l 488 303 l 406 264 m 172 554 l 44 569 l 44 583 q 105 770 44 705 q 283 835 166 835 q 450 783 394 835 q 507 632 507 731 l 507 623 q 464 487 507 533 q 336 440 420 440 q 235 465 275 440 q 176 531 194 490 l 147 531 l 165 613 q 213 561 182 580 q 289 543 244 543 q 356 564 333 543 q 378 628 378 585 l 378 633 q 355 700 378 677 q 283 724 331 724 q 220 708 244 724 q 183 661 195 692 q 172 587 172 631 l 172 554 z "},"೫":{"ha":1202,"x_min":67,"x_max":1128,"o":"m 324 835 q 522 758 458 835 q 585 531 585 681 l 585 290 q 520 58 585 135 q 316 -19 456 -19 q 130 38 193 -19 q 67 204 67 95 l 67 212 q 311 433 67 433 l 485 433 l 557 431 l 840 431 q 958 467 919 431 q 997 578 997 502 l 997 606 q 972 691 997 663 q 899 719 947 719 q 803 606 803 719 l 803 588 q 816 514 803 544 q 852 464 828 484 q 906 428 875 443 l 971 382 q 1050 334 1018 360 q 1100 272 1083 308 q 1117 186 1117 237 l 1117 182 q 1059 32 1117 81 q 885 -17 1001 -17 q 782 -8 831 -17 q 694 21 733 2 l 679 138 q 767 109 718 119 q 865 99 815 99 q 956 123 926 99 q 985 197 985 147 l 985 201 q 971 261 985 237 q 931 303 957 285 q 869 338 905 322 l 785 410 q 728 450 753 426 q 688 511 703 475 q 674 599 674 548 l 674 613 q 731 779 674 723 q 897 835 788 835 q 1069 777 1010 835 q 1128 606 1128 719 l 1128 576 q 1080 416 1128 472 q 945 347 1031 360 l 938 333 q 900 325 920 328 q 855 322 879 322 l 553 322 l 487 322 l 326 322 q 231 294 263 322 q 199 211 199 267 l 199 206 q 229 124 199 152 q 319 96 260 96 q 398 117 368 96 q 441 180 428 138 q 454 286 454 222 l 454 373 l 453 391 l 453 533 q 424 673 453 626 q 326 719 396 719 q 238 686 267 719 q 209 589 209 653 l 209 581 q 214 523 209 549 q 226 478 218 497 l 102 478 q 85 530 91 500 q 80 595 80 560 l 80 606 q 141 777 80 719 q 324 835 202 835 z "},"೬":{"ha":815,"x_min":72,"x_max":792,"o":"m 206 238 q 245 144 206 175 q 364 113 285 113 l 792 113 l 773 0 l 342 0 q 140 57 207 0 q 72 224 72 113 l 72 235 q 110 368 72 319 q 224 424 149 416 l 224 428 q 113 482 151 437 q 76 608 76 528 l 76 619 q 139 781 76 726 q 330 835 203 835 q 415 828 374 835 q 493 808 456 822 l 506 694 q 435 714 475 707 q 351 721 396 721 q 244 692 279 721 q 209 606 209 664 l 209 597 q 242 512 209 539 q 347 484 276 485 l 533 483 l 533 372 l 351 371 q 241 340 276 370 q 206 246 206 310 l 206 238 z "},"೭":{"ha":842,"x_min":66,"x_max":819,"o":"m 346 835 q 531 780 468 835 q 594 617 594 724 l 594 611 q 548 472 594 524 q 400 374 502 419 l 330 343 q 228 282 258 311 q 198 205 198 253 l 198 201 q 229 135 198 157 q 323 113 260 113 l 819 113 l 800 0 l 313 0 q 128 50 191 0 q 66 197 66 101 l 66 201 q 87 301 66 260 q 152 375 108 342 q 265 437 196 407 l 333 466 q 436 527 406 497 q 466 608 466 558 l 466 613 q 435 694 466 667 q 343 721 405 721 q 251 692 282 721 q 219 603 219 663 l 219 599 q 226 533 219 563 q 242 476 232 503 l 120 476 q 101 531 109 498 q 93 605 93 563 l 93 610 q 158 779 93 722 q 346 835 222 835 z "},"೮":{"ha":1049,"x_min":72,"x_max":1019,"o":"m 516 -20 q 184 85 297 -20 q 72 398 72 191 l 72 456 l 203 458 l 203 398 q 282 174 203 249 q 516 99 360 99 q 744 173 669 99 q 819 390 819 247 l 819 473 q 772 647 819 592 q 628 701 725 701 l 628 715 l 831 715 l 831 697 q 921 624 890 682 q 952 450 952 566 l 952 389 q 842 83 952 186 q 516 -20 732 -20 m 781 701 l 619 701 l 619 813 l 772 813 l 781 701 m 202 451 l 72 444 l 72 530 q 134 760 72 685 q 324 835 195 835 q 502 772 442 835 q 562 585 562 708 l 562 565 q 515 394 562 451 q 374 336 467 336 q 267 363 308 336 q 208 435 225 389 l 183 435 l 188 538 q 244 471 208 494 q 332 447 281 447 q 407 476 382 447 q 432 567 432 505 l 432 587 q 406 686 432 653 q 324 720 379 720 q 230 677 257 720 q 202 540 202 634 l 202 451 m 1019 701 l 634 701 l 634 813 l 1019 813 l 1019 701 z "},"೯":{"ha":806,"x_min":71,"x_max":786,"o":"m 204 583 l 204 574 q 238 487 204 515 q 344 459 272 460 l 524 458 l 524 347 l 336 345 q 237 317 269 344 q 206 231 206 290 l 206 223 q 238 138 206 166 q 338 110 271 110 l 472 110 l 455 0 l 322 0 q 134 52 196 0 q 72 207 72 104 l 72 217 q 109 345 72 299 q 219 401 146 392 l 219 405 q 108 459 145 413 q 71 587 71 505 l 71 597 q 137 759 71 704 q 333 813 203 813 l 786 813 l 786 701 l 353 701 q 241 672 278 701 q 204 583 204 642 z "},"ಽ":{"ha":623,"x_min":45,"x_max":564,"o":"m 534 813 l 534 701 l 285 701 q 205 681 231 701 q 179 622 179 661 l 179 621 q 200 563 179 588 q 255 519 221 539 q 331 481 290 500 q 413 439 372 462 q 488 386 453 417 q 543 313 522 356 q 564 210 564 270 l 564 203 q 498 37 564 94 q 303 -19 433 -19 q 174 -7 235 -19 q 63 31 113 6 l 45 157 q 163 114 104 128 q 286 99 222 99 q 395 127 359 99 q 431 212 431 155 l 431 217 q 410 285 431 257 q 355 336 389 314 q 279 377 320 358 q 197 418 238 397 q 122 466 156 439 q 67 532 88 494 q 46 624 46 570 l 46 628 q 104 767 46 721 q 276 813 162 813 l 534 813 z "},"್":{"ha":463,"x_min":-364,"x_max":431,"o":"m 123 737 l 0 735 l 0 772 q 65 989 0 916 q 257 1063 129 1063 q 333 1055 299 1063 q 397 1033 368 1047 l 412 920 q 347 944 381 936 q 276 952 313 952 q 159 908 196 952 q 123 774 123 865 l 123 737 m 219 376 q 55 436 110 376 q 0 619 0 496 l 0 740 l 123 740 l 123 621 q 145 519 123 552 q 219 486 167 486 q 286 512 264 486 q 308 590 308 538 l 308 601 q 283 679 308 655 q 201 703 259 703 l 70 703 l 67 701 l -364 701 l -364 813 l 213 813 q 378 761 326 813 q 431 600 431 710 l 431 588 q 378 431 431 485 q 219 376 326 376 z "},"ಾ":{"ha":1022,"x_min":112,"x_max":942,"o":"m 942 350 l 810 347 l 810 413 q 741 631 810 560 q 525 701 671 701 l 112 701 l 112 813 l 540 813 q 843 714 744 813 q 942 413 942 614 l 942 350 m 700 -19 q 523 42 581 -19 q 464 219 464 102 l 464 253 q 511 425 464 367 q 656 483 558 483 q 753 457 716 483 q 806 383 791 431 l 830 383 l 820 285 q 772 349 803 326 q 697 371 742 371 q 620 342 645 371 q 594 251 594 313 l 594 220 q 620 128 594 159 q 701 97 647 97 q 786 136 762 97 q 811 261 811 175 l 811 350 l 942 357 l 942 274 q 884 53 942 124 q 700 -19 826 -19 z "},"ಿ":{"ha":527,"x_min":35,"x_max":478,"o":"m 478 749 l 478 710 q 417 510 478 578 q 232 443 356 443 q 183 446 207 443 q 140 454 160 449 l 112 559 q 159 549 134 552 q 208 545 184 545 q 319 583 283 545 q 356 697 356 620 l 356 764 q 329 857 356 826 q 249 888 303 888 q 182 866 206 888 q 158 801 158 844 l 158 797 q 180 739 158 758 q 247 719 201 719 q 318 739 288 719 q 363 790 347 758 l 368 697 l 351 697 q 302 640 338 661 q 213 619 266 619 q 81 664 126 619 q 35 795 35 709 l 35 800 q 90 943 35 894 q 248 993 145 993 q 420 932 362 993 q 478 749 478 872 z "},"ೀ":{"ha":1093,"x_min":10,"x_max":1038,"o":"m 677 451 l 547 444 l 547 530 q 609 760 547 685 q 800 835 670 835 q 978 772 919 835 q 1038 585 1038 708 l 1038 565 q 991 394 1038 451 q 850 336 943 336 q 742 363 783 336 q 683 435 700 389 l 658 435 l 663 538 q 720 471 683 494 q 808 447 756 447 q 883 476 858 447 q 908 567 908 505 l 908 587 q 882 686 908 653 q 799 720 855 720 q 705 677 732 720 q 677 540 677 634 l 677 451 m 547 456 l 678 460 l 678 390 q 749 174 678 242 q 967 106 820 106 l 1016 106 l 992 -9 l 941 -9 q 646 89 744 -9 q 547 389 547 186 l 547 456 m 453 749 l 453 710 q 393 510 453 578 q 208 443 332 443 q 159 446 183 443 q 116 454 135 449 l 88 559 q 135 549 110 552 q 183 545 160 545 q 295 583 258 545 q 331 697 331 620 l 331 764 q 305 857 331 826 q 225 888 278 888 q 157 866 181 888 q 133 801 133 844 l 133 797 q 155 739 133 758 q 222 719 177 719 q 293 739 264 719 q 338 790 323 758 l 344 697 l 327 697 q 278 640 314 661 q 188 619 242 619 q 56 664 102 619 q 10 795 10 709 l 10 800 q 66 943 10 894 q 224 993 121 993 q 395 932 338 993 q 453 749 453 872 z "},"ು":{"ha":450,"x_min":-144,"x_max":370,"o":"m 101 822 q 303 737 236 822 q 370 475 370 651 l 370 313 q 303 64 370 147 q 99 -19 237 -19 q -84 45 -23 -19 q -144 226 -144 109 l -144 283 l -87 283 l -87 277 q -47 146 -87 191 q 73 101 -7 101 q 198 154 158 101 q 237 317 237 207 l 237 475 q 198 648 237 594 q 77 702 158 702 q 63 702 70 702 q 47 701 55 702 l 47 819 q 74 821 60 820 q 101 822 88 822 z "},"ೂ":{"ha":962,"x_min":-142,"x_max":883,"o":"m 29 101 q 109 137 83 101 q 135 245 135 172 l 135 374 l 267 374 l 267 238 q 214 46 267 111 q 52 -19 160 -19 q -93 37 -44 -19 q -142 201 -142 92 l -142 262 l -82 262 l -82 242 q 29 101 -82 101 m 509 835 q 789 736 694 835 q 883 442 883 638 l 883 353 l 751 347 l 751 444 q 692 647 751 578 q 509 716 632 716 q 327 648 386 716 q 267 444 267 580 l 267 365 l 135 365 l 135 445 q 229 737 135 639 q 509 835 323 835 m 883 357 l 883 274 q 825 53 883 124 q 641 -19 767 -19 q 464 42 522 -19 q 405 219 405 102 l 405 253 q 452 425 405 367 q 597 483 499 483 q 694 457 657 483 q 747 383 732 431 l 771 383 l 761 285 q 713 349 744 326 q 638 371 683 371 q 561 342 586 371 q 535 251 535 313 l 535 220 q 561 128 535 159 q 642 97 588 97 q 727 136 703 97 q 752 261 752 175 l 752 350 l 883 357 z "},"ೃ":{"ha":126,"x_min":-331,"x_max":185,"o":"m -331 -285 l -231 -282 l -231 -299 q -192 -404 -231 -369 q -76 -440 -153 -440 q 42 -393 4 -440 q 80 -255 80 -347 l 80 -198 q 59 -20 80 -96 q -8 128 38 56 l 99 128 q 163 -15 142 65 q 185 -199 185 -94 l 185 -256 q 119 -461 185 -392 q -78 -530 53 -530 q -265 -471 -199 -530 q -331 -299 -331 -412 l -331 -285 m -168 -83 q -57 -120 -94 -83 q -20 -226 -20 -156 l -20 -235 q -49 -326 -20 -295 q -134 -358 -78 -358 q -193 -343 -169 -358 q -228 -302 -217 -328 l -260 -302 l -240 -237 q -211 -271 -228 -260 q -170 -283 -194 -283 q -132 -270 -146 -283 q -119 -230 -119 -258 l -119 -225 q -132 -181 -119 -197 q -172 -166 -145 -166 q -217 -185 -203 -166 q -231 -242 -231 -205 l -231 -286 l -331 -286 l -331 -258 q -290 -126 -331 -169 q -168 -83 -249 -83 z "},"ೄ":{"ha":483,"x_min":-331,"x_max":546,"o":"m -6 125 l -4 128 l 85 128 q 160 -12 135 65 q 185 -199 185 -90 l 185 -256 q 119 -461 185 -392 q -78 -530 53 -530 q -265 -471 -199 -530 q -331 -299 -331 -412 l -331 -285 l -231 -282 l -231 -299 q -193 -404 -231 -369 q -77 -440 -154 -440 q 41 -393 3 -440 q 79 -255 79 -347 l 79 -198 q 58 -22 79 -97 q -6 125 38 53 m 546 -112 l 447 -116 l 447 -95 q 411 10 447 -26 q 306 45 376 45 l 85 45 l 53 128 l 307 128 q 486 71 426 128 q 546 -96 546 14 l 546 -112 m 448 -114 l 546 -108 l 546 -150 q 509 -274 546 -232 q 393 -316 473 -316 q 283 -283 322 -316 q 245 -185 245 -251 l 245 -173 q 275 -77 245 -108 q 358 -45 305 -45 q 413 -58 392 -45 q 444 -92 433 -70 l 464 -92 l 458 -163 q 431 -133 447 -144 q 392 -123 414 -123 q 355 -135 368 -123 q 342 -176 342 -147 l 342 -181 q 396 -234 342 -234 q 436 -216 424 -234 q 448 -165 448 -199 l 448 -114 m -168 -83 q -57 -120 -94 -83 q -20 -226 -20 -156 l -20 -235 q -49 -326 -20 -295 q -134 -358 -78 -358 q -193 -343 -169 -358 q -228 -302 -217 -328 l -260 -302 l -240 -237 q -211 -271 -228 -260 q -170 -283 -194 -283 q -132 -270 -146 -283 q -119 -230 -119 -258 l -119 -225 q -132 -181 -119 -197 q -172 -166 -145 -166 q -217 -185 -203 -166 q -231 -242 -231 -205 l -231 -286 l -331 -286 l -331 -258 q -290 -126 -331 -169 q -168 -83 -249 -83 z "},"ೢ":{"ha":0,"x_min":-447,"x_max":108,"o":"m -219 -78 l -120 -78 l -120 -163 q -123 -213 -120 -191 q -130 -258 -125 -235 l -127 -259 q -94 -222 -117 -235 q -31 -208 -71 -208 q 72 -249 36 -208 q 108 -366 108 -289 l 108 -374 q 99 -450 108 -416 q 74 -510 90 -484 l -26 -510 q -2 -448 -11 -483 q 7 -378 7 -414 l 7 -370 q -56 -297 7 -297 q -119 -370 -118 -297 l -122 -508 l -217 -508 l -219 -370 q -283 -297 -221 -297 q -346 -370 -346 -297 l -346 -378 q -337 -448 -346 -414 q -315 -510 -328 -483 l -415 -510 q -439 -450 -431 -484 q -447 -374 -447 -415 l -447 -366 q -410 -249 -447 -289 q -305 -208 -374 -208 q -243 -222 -266 -208 q -212 -259 -221 -235 l -208 -258 q -216 -213 -213 -235 q -219 -163 -219 -191 l -219 -78 z "},"ೣ":{"ha":0,"x_min":-440,"x_max":114,"o":"m -294 -422 q -241 -432 -262 -422 q -215 -464 -221 -442 l -176 -464 l -211 -533 q -225 -503 -212 -515 q -266 -491 -237 -491 q -304 -501 -291 -491 q -317 -532 -317 -512 l -317 -535 q -304 -564 -317 -554 q -267 -574 -291 -574 q -227 -565 -244 -574 q -203 -539 -209 -556 l -194 -600 l -213 -600 q -242 -633 -221 -622 q -296 -644 -263 -644 q -379 -617 -350 -644 q -408 -535 -408 -589 l -408 -531 q -378 -450 -408 -478 q -294 -422 -349 -422 m -212 -78 l -114 -78 l -114 -149 q -116 -192 -114 -172 q -123 -233 -118 -212 l -120 -233 q -87 -197 -110 -210 q -26 -184 -65 -184 q 78 -222 42 -184 q 114 -330 114 -259 l 114 -331 q 111 -372 114 -353 q 101 -406 109 -390 l 3 -406 q 11 -377 8 -392 q 14 -346 14 -361 l 14 -344 q -50 -272 14 -272 q -113 -342 -112 -272 l -116 -667 l -210 -667 l -213 -342 q -276 -272 -215 -272 q -340 -344 -340 -272 l -340 -346 q -331 -406 -340 -379 l -428 -406 q -438 -372 -435 -390 q -440 -331 -440 -353 l -440 -330 q -404 -222 -440 -259 q -300 -184 -367 -184 q -239 -197 -261 -184 q -206 -233 -216 -210 l -203 -233 q -210 -192 -208 -212 q -212 -149 -212 -172 l -212 -78 z "},"ೆ":{"ha":544,"x_min":99,"x_max":499,"o":"m 294 701 l 190 701 l 189 813 l 266 813 q 348 843 322 813 q 374 936 374 872 l 374 953 q 355 1021 374 998 q 298 1044 336 1044 q 240 1023 259 1044 q 221 962 221 1003 l 221 958 q 225 917 221 936 q 236 881 229 897 l 121 881 q 105 921 110 897 q 99 972 99 945 l 99 976 q 150 1108 99 1063 q 297 1153 200 1153 q 447 1101 396 1153 q 499 949 499 1049 l 499 928 q 447 757 499 813 q 294 701 395 701 z "},"ೕ":{"ha":613,"x_min":67,"x_max":558,"o":"m 197 451 l 67 444 l 67 530 q 129 760 67 685 q 320 835 190 835 q 499 772 439 835 q 558 585 558 708 l 558 565 q 511 394 558 451 q 370 336 463 336 q 262 363 303 336 q 203 435 220 389 l 178 435 l 183 538 q 240 471 203 494 q 328 447 276 447 q 403 476 378 447 q 428 567 428 505 l 428 587 q 402 686 428 653 q 319 720 375 720 q 225 677 252 720 q 197 540 197 634 l 197 451 m 67 456 l 199 460 l 199 390 q 269 174 199 242 q 487 106 340 106 l 536 106 l 512 -9 l 461 -9 q 166 89 265 -9 q 67 389 67 186 l 67 456 z "},"ೇ":{"ha":935,"x_min":-33,"x_max":881,"o":"m 162 701 l 58 701 l 57 813 l 134 813 q 216 843 190 813 q 242 936 242 872 l 242 953 q 223 1021 242 998 q 166 1044 204 1044 q 108 1023 127 1044 q 89 962 89 1003 l 89 958 q 93 917 89 936 q 104 881 97 897 l -11 881 q -27 921 -22 897 q -33 972 -33 945 l -33 976 q 18 1108 -33 1063 q 165 1153 68 1153 q 315 1101 264 1153 q 367 949 367 1049 l 367 928 q 315 757 367 813 q 162 701 263 701 m 519 451 l 390 444 l 390 530 q 451 760 390 685 q 642 835 513 835 q 821 772 761 835 q 881 585 881 708 l 881 565 q 833 394 881 451 q 692 336 785 336 q 584 363 626 336 q 525 435 542 389 l 501 435 l 506 538 q 562 471 526 494 q 650 447 599 447 q 726 476 701 447 q 751 567 751 505 l 751 587 q 724 686 751 653 q 642 720 697 720 q 547 677 574 720 q 519 540 519 634 l 519 451 m 390 456 l 521 460 l 521 390 q 592 174 521 242 q 809 106 663 106 l 858 106 l 834 -9 l 783 -9 q 488 89 587 -9 q 390 389 390 186 l 390 456 z "},"ೈ":{"ha":558,"x_min":6,"x_max":584,"o":"m 201 701 l 97 701 l 96 813 l 173 813 q 255 843 228 813 q 281 936 281 872 l 281 953 q 262 1021 281 998 q 205 1044 243 1044 q 147 1023 166 1044 q 128 962 128 1003 l 128 958 q 132 917 128 936 q 143 881 136 897 l 28 881 q 12 921 17 897 q 6 972 6 945 l 6 976 q 57 1108 6 1063 q 204 1153 107 1153 q 354 1101 303 1153 q 406 949 406 1049 l 406 928 q 354 757 406 813 q 201 701 302 701 m 159 -303 l 159 -312 q 200 -409 161 -376 q 321 -442 240 -442 q 442 -403 402 -442 q 481 -290 481 -364 l 481 -267 q 458 -173 481 -203 q 388 -140 434 -143 l 361 -139 l 361 -88 l 481 -101 q 558 -155 531 -112 q 584 -274 584 -198 l 584 -298 q 518 -470 584 -411 q 320 -530 452 -530 q 126 -474 194 -530 q 58 -310 58 -417 l 58 -299 l 159 -303 m 481 -98 l 481 -115 l 361 -112 l 361 -54 l 393 -53 q 454 -33 434 -51 q 474 22 474 -15 q 465 77 474 51 q 441 127 457 103 l 537 127 q 565 75 555 103 q 575 16 575 47 q 481 -98 575 -87 m 221 -118 q 332 -153 294 -118 q 369 -255 369 -187 l 369 -256 q 340 -345 369 -315 q 254 -376 310 -376 q 195 -362 219 -376 q 162 -324 172 -348 l 138 -324 l 149 -256 q 179 -290 161 -279 q 222 -301 197 -301 q 257 -290 244 -301 q 269 -253 269 -278 l 269 -252 q 256 -214 269 -227 q 217 -201 243 -201 q 172 -222 186 -201 q 158 -278 158 -242 l 158 -306 l 58 -308 l 58 -292 q 98 -162 58 -206 q 221 -118 138 -118 z "},"ೊ":{"ha":1145,"x_min":-69,"x_max":1067,"o":"m 125 701 l 21 701 l 20 813 l 97 813 q 179 843 153 813 q 206 936 206 872 l 206 953 q 186 1021 206 998 q 129 1044 167 1044 q 71 1023 90 1044 q 52 962 52 1003 l 52 958 q 56 917 52 936 q 67 881 60 897 l -48 881 q -64 921 -58 897 q -69 972 -69 945 l -69 976 q -19 1108 -69 1063 q 128 1153 31 1153 q 278 1101 227 1153 q 330 949 330 1049 l 330 928 q 278 757 330 813 q 125 701 226 701 m 213 101 q 292 137 266 101 q 319 245 319 172 l 319 374 l 451 374 l 451 238 q 397 46 451 111 q 235 -19 343 -19 q 90 37 139 -19 q 42 201 42 92 l 42 262 l 101 262 l 101 242 q 213 101 101 101 m 692 835 q 972 736 878 835 q 1067 442 1067 638 l 1067 353 l 935 347 l 935 444 q 875 647 935 578 q 692 716 815 716 q 510 648 569 716 q 451 444 451 580 l 451 365 l 319 365 l 319 445 q 413 737 319 639 q 692 835 506 835 m 1067 357 l 1067 274 q 1009 53 1067 124 q 824 -19 951 -19 q 647 42 706 -19 q 588 219 588 102 l 588 253 q 635 425 588 367 q 780 483 683 483 q 878 457 840 483 q 931 383 915 431 l 954 383 l 944 285 q 897 349 927 326 q 821 371 866 371 q 744 342 769 371 q 719 251 719 313 l 719 220 q 745 128 719 159 q 826 97 771 97 q 911 136 886 97 q 935 261 935 175 l 935 350 l 1067 357 z "},"ೋ":{"ha":1751,"x_min":-69,"x_max":1696,"o":"m 125 701 l 21 701 l 20 813 l 97 813 q 179 843 153 813 q 206 936 206 872 l 206 953 q 186 1021 206 998 q 129 1044 167 1044 q 71 1023 90 1044 q 52 962 52 1003 l 52 958 q 56 917 52 936 q 67 881 60 897 l -48 881 q -64 921 -58 897 q -69 972 -69 945 l -69 976 q -19 1108 -69 1063 q 128 1153 31 1153 q 278 1101 227 1153 q 330 949 330 1049 l 330 928 q 278 757 330 813 q 125 701 226 701 m 213 101 q 292 137 266 101 q 319 245 319 172 l 319 374 l 451 374 l 451 238 q 397 46 451 111 q 235 -19 343 -19 q 90 37 139 -19 q 42 201 42 92 l 42 262 l 101 262 l 101 242 q 213 101 101 101 m 692 835 q 972 736 878 835 q 1067 442 1067 638 l 1067 353 l 935 347 l 935 444 q 875 647 935 578 q 692 716 815 716 q 510 648 569 716 q 451 444 451 580 l 451 365 l 319 365 l 319 445 q 413 737 319 639 q 692 835 506 835 m 1067 357 l 1067 274 q 1009 53 1067 124 q 824 -19 951 -19 q 647 42 706 -19 q 588 219 588 102 l 588 253 q 635 425 588 367 q 780 483 683 483 q 878 457 840 483 q 931 383 915 431 l 954 383 l 944 285 q 897 349 927 326 q 821 371 866 371 q 744 342 769 371 q 719 251 719 313 l 719 220 q 745 128 719 159 q 826 97 771 97 q 911 136 886 97 q 935 261 935 175 l 935 350 l 1067 357 m 1335 451 l 1205 444 l 1205 530 q 1266 760 1205 685 q 1458 835 1328 835 q 1636 772 1576 835 q 1696 585 1696 708 l 1696 565 q 1648 394 1696 451 q 1508 336 1601 336 q 1399 363 1441 336 q 1340 435 1358 389 l 1316 435 l 1321 538 q 1377 471 1341 494 q 1465 447 1414 447 q 1541 476 1516 447 q 1566 567 1566 505 l 1566 587 q 1539 686 1566 653 q 1457 720 1513 720 q 1362 677 1390 720 q 1335 540 1335 634 l 1335 451 m 1205 456 l 1336 460 l 1336 390 q 1407 174 1336 242 q 1624 106 1478 106 l 1674 106 l 1649 -9 l 1599 -9 q 1303 89 1402 -9 q 1205 389 1205 186 l 1205 456 z "},"ೌ":{"ha":986,"x_min":10,"x_max":949,"o":"m 228 701 l 122 701 l 122 813 l 176 813 q 274 901 274 813 l 274 905 q 177 993 274 993 l 178 1009 l 319 1009 l 319 989 q 381 948 360 980 q 403 864 403 916 l 403 860 q 359 742 403 783 q 228 701 315 701 m 718 335 q 549 392 606 335 q 491 560 491 449 l 491 583 q 536 750 491 693 q 673 808 582 808 q 765 783 730 808 q 815 713 801 758 l 838 713 l 831 614 q 785 676 815 654 q 713 698 756 698 q 642 670 666 698 q 619 585 619 643 l 619 563 q 643 477 619 506 q 717 448 667 448 q 796 482 772 448 q 820 594 820 517 l 820 687 l 949 691 l 949 603 q 892 401 949 467 q 718 335 835 335 m 949 689 l 819 684 l 819 717 q 750 927 819 860 q 541 993 681 993 l 10 993 l 10 1104 l 543 1104 q 849 1009 749 1104 q 949 717 949 913 l 949 689 z "},"ೖ":{"ha":115,"x_min":-385,"x_max":140,"o":"m -285 -303 l -285 -312 q -243 -409 -283 -376 q -123 -442 -204 -442 q -2 -403 -42 -442 q 38 -290 38 -364 l 38 -267 q 14 -173 38 -203 q -56 -140 -10 -143 l -83 -139 l -83 -88 l 37 -101 q 114 -155 88 -112 q 140 -274 140 -198 l 140 -298 q 74 -470 140 -411 q -124 -530 8 -530 q -317 -474 -249 -530 q -385 -310 -385 -417 l -385 -299 l -285 -303 m 37 -98 l 37 -115 l -83 -112 l -83 -54 l -51 -53 q 10 -33 -10 -51 q 30 22 30 -15 q 22 77 30 51 q -3 127 13 103 l 93 127 q 121 75 111 103 q 131 16 131 47 q 37 -98 131 -87 m -223 -118 q -112 -153 -149 -118 q -74 -255 -74 -187 l -74 -256 q -104 -345 -74 -315 q -190 -376 -134 -376 q -248 -362 -224 -376 q -282 -324 -272 -348 l -306 -324 l -294 -256 q -265 -290 -283 -279 q -222 -301 -247 -301 q -187 -290 -199 -301 q -174 -253 -174 -278 l -174 -252 q -187 -214 -174 -227 q -226 -201 -201 -201 q -272 -222 -258 -201 q -285 -278 -285 -242 l -285 -306 l -385 -308 l -385 -292 q -345 -162 -385 -206 q -223 -118 -306 -118 z "},"।":{"ha":537,"x_min":204,"x_max":333,"o":"m 333 903 l 204 922 l 204 -3 l 333 -3 l 333 903 z "},"॥":{"ha":892,"x_min":204,"x_max":688,"o":"m 688 903 l 560 922 l 560 -3 l 688 -3 l 688 903 m 333 903 l 204 922 l 204 -3 l 333 -3 l 333 903 z "},"!":{"ha":329,"x_min":83,"x_max":246,"o":"m 238 888 l 222 279 l 108 279 l 92 888 l 238 888 m 165 -15 q 103 8 123 -15 q 83 71 83 31 l 83 78 q 103 140 83 118 q 165 163 123 163 q 226 140 206 163 q 246 78 246 118 l 246 71 q 226 8 246 31 q 165 -15 206 -15 z "},"\"":{"ha":497,"x_min":63,"x_max":435,"o":"m 197 919 l 183 577 l 76 577 l 63 919 l 197 919 m 435 919 l 421 577 l 314 577 l 301 919 l 435 919 z "},"#":{"ha":819,"x_min":42,"x_max":778,"o":"m 252 0 l 142 0 l 254 888 l 365 888 l 252 0 m 738 222 l 42 222 l 42 321 l 738 321 l 738 222 m 569 0 l 458 0 l 568 888 l 679 888 l 569 0 m 778 569 l 84 569 l 84 668 l 778 668 l 778 569 z "},"%":{"ha":1053,"x_min":54,"x_max":997,"o":"m 319 0 l 190 0 l 737 888 l 866 888 l 319 0 m 799 -18 q 653 34 703 -18 q 603 181 603 87 l 603 243 q 653 389 603 337 q 799 441 704 441 q 946 390 895 441 q 997 243 997 338 l 997 181 q 946 34 997 87 q 799 -18 895 -18 m 799 76 q 864 102 842 76 q 885 178 885 128 l 885 245 q 864 322 885 296 q 799 348 842 348 q 735 322 757 348 q 713 245 713 296 l 713 178 q 735 102 713 128 q 799 76 758 76 m 251 447 q 105 499 156 447 q 54 645 54 551 l 54 708 q 105 853 54 801 q 251 905 156 905 q 398 853 347 905 q 449 708 449 801 l 449 645 q 398 499 449 551 q 251 447 347 447 m 251 540 q 316 566 294 540 q 338 642 338 592 l 338 710 q 316 786 338 760 q 251 813 294 813 q 187 786 209 813 q 165 710 165 760 l 165 642 q 188 566 165 592 q 251 540 210 540 z "},"&":{"ha":889,"x_min":60,"x_max":901,"o":"m 901 0 l 741 0 q 708 32 730 11 q 663 77 687 53 q 617 121 638 101 q 586 151 596 141 l 569 169 l 244 473 l 224 497 q 157 586 178 544 q 135 685 135 628 l 135 690 q 199 847 135 790 q 392 904 263 904 q 533 889 475 904 q 631 853 592 873 l 644 728 q 541 767 599 751 q 418 783 484 783 q 311 757 343 783 q 278 685 278 731 l 278 682 q 298 614 278 646 q 358 544 318 583 l 654 262 l 688 226 q 730 185 708 206 q 772 143 751 164 q 815 100 794 122 q 858 56 837 78 q 901 11 880 33 l 901 0 m 361 -17 q 135 53 210 -17 q 60 250 60 122 l 60 272 q 98 432 60 369 q 226 542 135 494 l 298 446 q 225 383 247 422 q 202 283 202 345 l 202 263 q 245 141 202 182 q 374 99 289 99 q 495 128 445 99 q 581 211 546 157 l 617 256 q 671 392 652 317 q 698 553 690 467 l 831 553 q 790 340 819 438 q 710 169 761 243 l 672 130 q 592 51 636 83 q 491 1 548 18 q 361 -17 435 -17 z "},"'":{"ha":259,"x_min":63,"x_max":197,"o":"m 197 919 l 183 577 l 76 577 l 63 919 l 197 919 z "},"(":{"ha":415,"x_min":90,"x_max":387,"o":"m 222 422 l 222 348 q 239 155 222 245 q 293 -15 256 65 q 387 -169 330 -95 l 245 -169 q 157 -22 192 -100 q 107 146 123 56 q 90 344 90 236 l 90 426 q 107 623 90 533 q 158 791 124 713 q 247 938 193 869 l 387 938 q 293 784 330 865 q 239 615 256 704 q 222 422 222 525 z "},")":{"ha":416,"x_min":29,"x_max":326,"o":"m 194 422 l 194 348 q 177 155 194 245 q 123 -15 160 65 q 29 -169 87 -95 l 171 -169 q 259 -22 225 -100 q 309 146 293 56 q 326 344 326 236 l 326 426 q 309 623 326 533 q 258 791 292 713 q 169 938 223 869 l 29 938 q 123 784 87 865 q 177 615 160 704 q 194 422 194 525 z "},"*":{"ha":534,"x_min":33,"x_max":501,"o":"m 265 589 l 169 447 l 76 511 l 194 639 l 193 642 l 33 674 l 60 781 l 220 719 l 222 721 l 207 888 l 327 888 l 312 721 l 314 719 l 474 781 l 501 674 l 340 642 l 340 639 l 457 511 l 365 447 l 268 589 l 265 589 z "},"+":{"ha":697,"x_min":69,"x_max":628,"o":"m 407 725 l 407 138 l 290 138 l 290 725 l 407 725 m 628 376 l 69 376 l 69 486 l 628 486 l 628 376 z "},",":{"ha":276,"x_min":10,"x_max":212,"o":"m 74 197 l 205 197 q 209 162 207 183 q 212 117 212 141 q 188 -40 212 32 q 106 -180 163 -112 l 10 -152 q 62 -31 45 -94 q 79 111 79 33 q 78 155 79 134 q 74 197 77 176 z "},"-":{"ha":554,"x_min":79,"x_max":475,"o":"m 475 307 l 79 307 l 79 418 l 475 418 l 475 307 z "},".":{"ha":279,"x_min":58,"x_max":221,"o":"m 140 -15 q 78 8 98 -15 q 58 71 58 31 l 58 78 q 78 140 58 118 q 140 163 98 163 q 201 140 181 163 q 221 78 221 118 l 221 71 q 201 8 221 31 q 140 -15 181 -15 z "},"/":{"ha":590,"x_min":15,"x_max":576,"o":"m 141 -168 l 15 -168 l 450 933 l 576 933 l 141 -168 z "},":":{"ha":290,"x_min":64,"x_max":226,"o":"m 145 -15 q 84 8 103 -15 q 64 71 64 31 l 64 78 q 84 140 64 118 q 145 163 103 163 q 206 140 186 163 q 226 78 226 118 l 226 71 q 206 8 226 31 q 145 -15 186 -15 m 145 465 q 84 488 103 465 q 64 551 64 510 l 64 558 q 84 620 64 598 q 145 642 103 642 q 206 620 186 642 q 226 558 226 598 l 226 551 q 206 488 226 510 q 145 465 186 465 z "},";":{"ha":289,"x_min":17,"x_max":226,"o":"m 81 197 l 211 197 q 216 162 213 183 q 218 117 218 141 q 194 -40 218 32 q 112 -180 169 -112 l 17 -152 q 68 -31 51 -94 q 85 111 85 33 q 84 155 85 134 q 81 197 83 176 m 145 465 q 84 488 103 465 q 64 551 64 510 l 64 558 q 84 620 64 598 q 145 642 103 642 q 206 620 186 642 q 226 558 226 598 l 226 551 q 206 488 226 510 q 145 465 186 465 z "},"<":{"ha":715,"x_min":69,"x_max":628,"o":"m 628 552 l 167 437 l 167 424 l 628 309 l 628 191 l 69 340 l 69 521 l 628 670 l 628 552 z "},"=":{"ha":716,"x_min":78,"x_max":638,"o":"m 638 234 l 78 234 l 78 342 l 638 342 l 638 234 m 638 520 l 78 520 l 78 628 l 638 628 l 638 520 z "},">":{"ha":715,"x_min":86,"x_max":646,"o":"m 547 424 l 547 437 l 86 552 l 86 670 l 646 521 l 646 340 l 86 191 l 86 309 l 547 424 z "},"?":{"ha":626,"x_min":32,"x_max":570,"o":"m 267 289 l 187 272 l 187 391 l 246 404 q 354 443 313 419 q 413 504 394 467 q 432 593 432 540 l 432 638 q 395 748 432 710 q 270 786 359 786 q 142 767 203 786 q 32 722 81 748 l 47 844 q 108 872 72 858 q 191 894 144 885 q 292 903 238 903 q 502 838 435 903 q 570 650 570 772 l 570 595 q 536 444 570 504 q 435 347 502 384 q 267 289 368 310 m 246 -15 q 184 8 204 -15 q 165 71 165 31 l 165 78 q 184 140 165 118 q 246 163 204 163 q 307 140 287 163 q 327 78 327 118 l 327 71 q 307 8 327 31 q 246 -15 287 -15 z "},"@":{"ha":1174,"x_min":63,"x_max":1117,"o":"m 510 48 q 387 96 431 48 q 344 236 344 144 q 344 250 344 242 q 345 270 344 258 q 348 306 346 283 q 354 363 350 328 q 388 508 363 447 q 458 601 413 569 q 572 634 503 634 q 677 601 642 634 q 720 514 711 569 l 753 514 l 716 394 q 717 404 717 399 q 717 413 717 408 q 704 477 717 451 q 668 516 692 503 q 613 530 645 530 q 523 490 552 530 q 486 381 494 450 q 480 323 482 345 q 477 289 478 301 q 476 270 476 276 q 476 258 476 263 q 500 181 476 207 q 570 156 524 156 q 626 169 601 156 q 670 206 651 182 q 698 260 689 229 l 713 169 l 683 169 q 649 106 670 133 q 593 64 627 79 q 510 48 560 48 m 795 72 l 674 57 l 694 205 l 692 226 l 721 463 l 724 482 l 735 615 l 736 622 l 860 622 l 795 72 m 674 57 l 769 153 q 793 151 783 152 q 820 151 803 151 q 929 193 894 151 q 978 322 965 235 q 988 392 984 361 q 994 445 992 423 q 997 482 996 468 q 962 669 1002 592 q 838 789 922 747 q 626 830 753 830 q 397 777 488 830 q 257 629 306 725 q 193 401 208 533 q 186 338 189 365 q 182 290 183 310 q 178 252 180 269 q 177 220 177 235 q 176 190 176 206 q 274 -57 176 29 q 571 -142 372 -142 q 734 -130 660 -142 q 870 -94 809 -117 q 977 -44 931 -72 l 960 -153 q 853 -198 911 -178 q 723 -228 794 -217 q 563 -240 651 -240 q 288 -191 399 -240 q 119 -48 176 -143 q 63 185 63 47 q 63 218 63 202 q 64 252 63 235 q 67 291 65 270 q 72 339 69 313 q 78 397 74 365 q 162 685 97 567 q 344 865 228 803 q 630 926 460 926 q 897 875 787 926 q 1061 727 1006 825 q 1110 484 1117 628 q 1108 447 1110 468 q 1102 394 1106 425 q 1092 317 1099 363 q 1044 168 1080 226 q 944 81 1009 109 q 776 51 879 52 q 724 51 749 50 q 674 57 699 53 z "},"[":{"ha":429,"x_min":99,"x_max":391,"o":"m 391 -169 l 99 -169 l 99 938 l 391 938 l 391 835 l 226 835 l 226 -67 l 391 -67 l 391 -169 z "},"\\":{"ha":590,"x_min":15,"x_max":576,"o":"m 449 -168 l 576 -168 l 140 933 l 15 933 l 449 -168 z "},"]":{"ha":429,"x_min":38,"x_max":330,"o":"m 38 -169 l 330 -169 l 330 938 l 38 938 l 38 835 l 203 835 l 203 -67 l 38 -67 l 38 -169 z "},"^":{"ha":595,"x_min":33,"x_max":562,"o":"m 33 425 l 208 888 l 387 888 l 562 425 l 444 425 l 302 806 l 292 806 l 151 425 l 33 425 z "},"_":{"ha":624,"x_min":35,"x_max":590,"o":"m 590 -155 l 35 -155 l 35 -49 l 590 -49 l 590 -155 z "},"{":{"ha":471,"x_min":43,"x_max":434,"o":"m 434 924 l 434 824 q 400 833 419 829 q 359 836 381 836 q 289 813 310 836 q 267 737 267 790 q 270 678 267 713 q 275 606 272 642 q 277 542 277 569 q 267 468 277 500 q 232 416 257 436 q 160 390 206 397 l 160 376 l 155 383 q 230 357 203 378 q 267 304 256 337 q 277 228 277 271 q 275 164 277 201 q 270 92 272 127 q 267 32 267 56 q 289 -44 267 -21 q 360 -68 310 -68 q 400 -64 382 -68 q 434 -56 419 -60 l 434 -156 q 383 -168 410 -163 q 324 -173 355 -173 q 184 -127 229 -173 q 138 18 138 -82 q 141 84 138 47 q 145 159 143 122 q 148 221 148 196 q 139 278 148 255 q 107 313 129 301 q 43 328 84 326 l 43 443 q 107 458 84 446 q 139 493 129 470 q 148 549 148 516 q 145 611 148 575 q 141 685 143 648 q 138 750 138 723 q 184 895 138 850 q 324 940 229 940 q 383 936 355 940 q 434 924 410 931 z "},"|":{"ha":343,"x_min":114,"x_max":229,"o":"m 229 987 l 229 -300 l 114 -300 l 114 987 l 229 987 z "},"}":{"ha":471,"x_min":37,"x_max":428,"o":"m 37 924 l 37 824 q 71 833 52 829 q 112 836 90 836 q 182 813 161 836 q 203 737 203 790 q 201 678 203 713 q 196 606 199 642 q 194 542 194 569 q 204 468 194 500 q 240 416 214 436 q 310 390 265 397 l 310 376 l 316 383 q 241 357 268 378 q 204 304 215 337 q 194 228 194 271 q 196 164 194 201 q 201 92 199 127 q 203 32 203 56 q 182 -44 203 -21 q 110 -68 160 -68 q 70 -64 89 -68 q 37 -56 52 -60 l 37 -156 q 89 -168 60 -163 q 147 -173 117 -173 q 287 -127 242 -173 q 333 18 333 -82 q 330 84 333 47 q 325 159 328 122 q 323 221 323 196 q 332 278 323 255 q 365 313 342 301 q 428 328 388 326 l 428 443 q 365 458 388 446 q 332 493 342 470 q 323 549 323 516 q 325 611 323 575 q 330 685 328 648 q 333 750 333 723 q 287 895 333 850 q 147 940 242 940 q 89 936 117 940 q 37 924 60 931 z "},"~":{"ha":753,"x_min":81,"x_max":672,"o":"m 519 331 q 442 342 479 331 q 370 368 405 353 q 303 394 335 383 q 242 406 272 406 q 195 385 209 406 q 181 328 181 365 l 181 317 l 81 317 l 81 343 q 116 472 81 425 q 234 519 150 519 q 311 508 274 519 q 383 482 348 497 q 449 455 417 467 q 510 444 481 444 q 558 464 544 444 q 571 522 571 484 l 571 533 l 672 533 l 672 506 q 637 377 672 424 q 519 331 602 331 z "},"…":{"ha":826,"x_min":58,"x_max":768,"o":"m 687 -15 q 625 8 645 -15 q 606 71 606 31 l 606 78 q 625 140 606 118 q 687 163 645 163 q 748 140 728 163 q 768 78 768 118 l 768 71 q 748 8 768 31 q 687 -15 728 -15 m 413 -15 q 352 8 372 -15 q 332 71 332 31 l 332 78 q 352 140 332 118 q 413 163 372 163 q 474 140 454 163 q 494 78 494 118 l 494 71 q 474 8 494 31 q 413 -15 454 -15 m 140 -15 q 78 8 98 -15 q 58 71 58 31 l 58 78 q 78 140 58 118 q 140 163 98 163 q 201 140 181 163 q 221 78 221 118 l 221 71 q 201 8 221 31 q 140 -15 181 -15 z "},"–":{"ha":713,"x_min":79,"x_max":633,"o":"m 633 307 l 79 307 l 79 418 l 633 418 l 633 307 z "},"—":{"ha":1254,"x_min":79,"x_max":1175,"o":"m 1175 307 l 79 307 l 79 418 l 1175 418 l 1175 307 z "},"‘":{"ha":283,"x_min":57,"x_max":249,"o":"m 192 576 l 63 576 q 59 609 61 590 q 57 653 57 629 q 79 801 57 733 q 152 930 101 869 l 249 903 q 203 791 218 851 q 188 660 188 732 q 189 618 188 638 q 192 576 190 598 z "},"’":{"ha":283,"x_min":34,"x_max":226,"o":"m 90 919 l 219 919 q 224 886 222 906 q 226 842 226 866 q 203 694 226 763 q 131 565 181 626 l 34 592 q 80 704 65 644 q 95 835 95 764 q 94 877 95 858 q 90 919 92 897 z "},"÷":{"ha":697,"x_min":69,"x_max":628,"o":"m 628 376 l 69 376 l 69 487 l 628 487 l 628 376 m 352 110 q 297 131 315 110 q 279 188 279 151 l 279 194 q 297 250 279 230 q 352 270 315 270 q 407 250 389 270 q 425 194 425 230 l 425 188 q 407 131 425 151 q 352 110 389 110 m 352 593 q 297 613 315 593 q 279 670 279 633 l 279 676 q 297 733 279 713 q 352 753 315 753 q 407 733 389 753 q 425 676 425 713 l 425 670 q 407 613 425 633 q 352 593 389 593 z "},"−":{"ha":680,"x_min":69,"x_max":611,"o":"m 611 376 l 69 376 l 69 487 l 611 487 l 611 376 z "},"×":{"ha":665,"x_min":63,"x_max":603,"o":"m 144 701 l 603 230 l 524 158 l 66 631 l 144 701 m 141 158 l 63 230 l 521 701 l 599 631 l 141 158 z "},"$":{"ha":728,"x_min":55,"x_max":672,"o":"m 422 1033 l 422 830 l 301 830 l 301 1033 l 422 1033 m 422 78 l 422 -149 l 301 -149 l 301 78 l 422 78 m 352 -17 q 235 -7 289 -17 q 140 17 182 3 q 69 47 98 32 l 56 183 q 182 129 109 153 q 341 106 256 106 q 484 138 438 106 q 530 235 530 170 l 530 246 q 511 316 530 288 q 449 363 493 343 q 331 401 406 383 q 171 458 232 425 q 83 541 110 491 q 55 665 55 590 l 55 672 q 129 844 55 783 q 352 904 203 904 q 515 886 447 904 q 626 844 583 867 l 639 717 q 522 766 588 747 q 374 786 456 786 q 270 772 309 786 q 214 731 231 758 q 197 667 197 704 l 197 664 q 214 597 197 625 q 275 548 231 569 q 401 506 319 527 q 557 452 497 482 q 644 373 616 422 q 672 247 672 325 l 672 233 q 592 47 672 110 q 352 -17 512 -17 z "},"A":{"ha":819,"x_min":29,"x_max":790,"o":"m 170 0 l 29 0 l 301 888 l 517 888 l 790 0 l 649 0 l 418 794 l 401 794 l 170 0 m 610 248 l 207 248 l 207 363 l 610 363 l 610 248 z "},"B":{"ha":815,"x_min":99,"x_max":758,"o":"m 476 0 l 195 0 l 195 115 l 461 115 q 581 149 546 115 q 617 247 617 184 l 617 268 q 581 366 617 332 q 456 401 544 401 l 194 401 l 194 510 l 454 510 q 568 544 534 510 q 601 638 601 578 l 601 649 q 569 741 601 708 q 453 774 536 774 l 192 774 l 192 888 l 467 888 q 677 832 613 888 q 741 672 741 776 l 741 659 q 704 535 741 579 q 590 481 667 491 l 590 474 q 718 406 678 456 q 758 265 758 356 l 758 239 q 692 63 758 125 q 476 0 625 0 m 236 0 l 99 0 l 99 888 l 236 888 l 236 0 z "},"C":{"ha":709,"x_min":68,"x_max":656,"o":"m 407 -17 q 152 77 237 -17 q 68 346 68 172 l 68 543 q 152 811 68 717 q 407 905 237 905 q 502 896 459 905 q 579 872 545 887 q 638 842 613 858 l 649 714 q 553 763 608 742 q 426 783 499 783 q 264 720 319 783 q 210 541 210 657 l 210 351 q 265 172 210 235 q 430 108 320 108 q 558 128 502 108 q 656 178 614 149 l 644 47 q 585 16 620 31 q 505 -8 550 1 q 407 -17 460 -17 z "},"D":{"ha":830,"x_min":99,"x_max":765,"o":"m 409 0 l 194 0 l 194 117 l 404 117 q 569 177 514 117 q 624 348 624 237 l 624 541 q 569 712 624 653 q 404 772 514 772 l 193 772 l 193 888 l 409 888 q 675 798 585 888 q 765 542 765 709 l 765 347 q 675 90 765 180 q 409 0 585 0 m 236 0 l 99 0 l 99 888 l 236 888 l 236 0 z "},"E":{"ha":733,"x_min":99,"x_max":668,"o":"m 236 0 l 99 0 l 99 888 l 236 888 l 236 0 m 668 0 l 140 0 l 140 117 l 668 117 l 668 0 m 653 394 l 178 394 l 178 510 l 653 510 l 653 394 m 663 772 l 139 772 l 139 888 l 663 888 l 663 772 z "},"F":{"ha":701,"x_min":99,"x_max":647,"o":"m 238 0 l 99 0 l 99 888 l 238 888 l 238 0 m 636 357 l 178 357 l 178 474 l 636 474 l 636 357 m 647 771 l 139 771 l 139 888 l 647 888 l 647 771 z "},"G":{"ha":831,"x_min":68,"x_max":744,"o":"m 375 -18 q 205 23 274 -18 q 102 143 137 65 q 68 334 68 222 l 68 535 q 161 809 68 713 q 436 905 255 905 q 550 895 499 905 q 642 870 601 885 q 712 838 683 855 l 724 713 q 610 764 676 742 q 461 785 545 785 q 272 720 333 785 q 210 532 210 656 l 210 335 q 262 162 210 223 q 420 101 314 101 q 510 119 472 101 q 572 165 548 136 q 608 229 597 194 l 608 436 l 628 388 l 432 388 l 432 503 l 744 503 l 744 139 l 606 140 q 568 61 594 97 q 495 3 542 25 q 375 -18 449 -18 m 608 0 l 614 183 l 744 183 l 744 0 l 608 0 z "},"H":{"ha":871,"x_min":99,"x_max":772,"o":"m 238 888 l 238 0 l 99 0 l 99 888 l 238 888 m 772 888 l 772 0 l 633 0 l 633 888 l 772 888 m 178 399 l 178 515 l 687 515 l 687 399 l 178 399 z "},"I":{"ha":338,"x_min":99,"x_max":239,"o":"m 239 888 l 239 0 l 99 0 l 99 888 l 239 888 z "},"J":{"ha":571,"x_min":38,"x_max":478,"o":"m 213 -12 q 126 -5 169 -12 q 49 16 83 2 l 38 140 q 109 117 73 124 q 184 109 146 109 q 306 150 272 109 q 339 274 339 190 l 339 888 l 478 888 l 478 265 q 418 59 478 129 q 213 -12 357 -12 z "},"K":{"ha":798,"x_min":99,"x_max":776,"o":"m 776 0 l 613 0 l 319 399 l 227 399 l 227 509 l 319 509 l 609 888 l 767 888 l 424 444 l 424 477 l 776 0 m 237 0 l 99 0 l 99 888 l 237 888 l 237 0 z "},"L":{"ha":680,"x_min":99,"x_max":640,"o":"m 238 888 l 238 0 l 99 0 l 99 888 l 238 888 m 175 0 l 175 118 l 640 118 l 640 0 l 175 0 z "},"M":{"ha":1048,"x_min":85,"x_max":963,"o":"m 220 0 l 85 0 l 117 888 l 328 888 l 519 279 l 528 279 l 719 888 l 931 888 l 963 0 l 828 0 l 817 355 l 808 741 l 797 741 l 594 103 l 454 103 l 251 741 l 240 741 l 230 354 l 220 0 z "},"N":{"ha":871,"x_min":99,"x_max":772,"o":"m 99 888 l 307 888 l 634 151 l 642 151 l 637 535 l 637 888 l 772 888 l 772 0 l 569 0 l 237 744 l 228 744 l 234 345 l 234 0 l 99 0 l 99 888 z "},"O":{"ha":843,"x_min":68,"x_max":775,"o":"m 422 -18 q 158 76 248 -18 q 68 347 68 171 l 68 542 q 158 811 68 717 q 422 906 248 906 q 685 811 595 906 q 775 542 775 717 l 775 347 q 685 76 775 171 q 422 -18 595 -18 m 422 98 q 580 161 527 98 q 633 341 633 225 l 633 547 q 580 727 633 664 q 422 790 527 790 q 263 727 316 790 q 210 547 210 664 l 210 341 q 263 161 210 225 q 422 98 316 98 z "},"P":{"ha":788,"x_min":99,"x_max":733,"o":"m 439 285 l 190 285 l 190 400 l 435 400 q 557 441 519 400 q 594 556 594 483 l 594 617 q 557 733 594 692 q 437 773 519 773 l 190 773 l 190 888 l 440 888 q 663 817 592 888 q 733 620 733 747 l 733 553 q 663 356 733 426 q 439 285 592 285 m 236 0 l 99 0 l 99 888 l 235 888 l 235 366 l 236 303 l 236 0 z "},"Q":{"ha":844,"x_min":68,"x_max":846,"o":"m 846 92 l 846 -29 l 468 -18 q 164 80 259 -12 q 68 347 68 172 l 68 542 q 158 811 68 717 q 422 906 248 906 q 616 863 538 906 q 735 740 694 821 q 775 542 775 658 l 775 369 q 761 254 775 303 q 720 173 747 206 q 658 120 694 140 q 578 92 622 100 l 578 85 l 846 92 m 443 99 l 460 98 q 527 123 495 106 q 582 170 558 141 q 620 242 606 199 q 633 341 633 284 l 633 547 q 580 727 633 664 q 422 790 527 790 q 263 727 316 790 q 210 547 210 664 l 210 341 q 270 164 210 225 q 443 99 331 103 z "},"R":{"ha":808,"x_min":99,"x_max":755,"o":"m 755 0 l 610 0 l 587 180 q 565 264 581 229 q 517 319 549 299 q 426 338 484 338 l 194 339 l 194 449 l 440 449 q 563 490 526 449 q 599 604 599 531 l 599 624 q 562 734 599 695 q 438 773 524 773 l 192 773 l 192 888 l 457 888 q 673 824 605 888 q 740 648 740 761 l 740 626 q 702 488 740 542 q 573 421 663 435 l 573 403 l 515 423 q 634 390 592 417 q 695 313 676 362 q 725 195 715 265 l 755 0 m 236 0 l 99 0 l 99 888 l 235 888 l 235 410 l 236 358 l 236 0 z "},"S":{"ha":728,"x_min":55,"x_max":672,"o":"m 352 -17 q 235 -7 289 -17 q 140 17 182 3 q 69 47 98 32 l 56 183 q 182 129 109 153 q 341 106 256 106 q 484 138 438 106 q 530 235 530 170 l 530 246 q 511 316 530 288 q 449 363 493 343 q 331 401 406 383 q 171 458 232 425 q 83 541 110 491 q 55 665 55 590 l 55 672 q 129 844 55 783 q 352 904 203 904 q 515 886 447 904 q 626 844 583 867 l 639 717 q 522 766 588 747 q 374 786 456 786 q 270 772 309 786 q 214 731 231 758 q 197 667 197 704 l 197 664 q 214 597 197 625 q 275 548 231 569 q 401 506 319 527 q 557 452 497 482 q 644 373 616 422 q 672 247 672 325 l 672 233 q 592 47 672 110 q 352 -17 512 -17 z "},"T":{"ha":747,"x_min":43,"x_max":704,"o":"m 444 0 l 304 0 l 304 863 l 444 863 l 444 0 m 704 771 l 43 771 l 43 888 l 704 888 l 704 771 z "},"U":{"ha":857,"x_min":92,"x_max":765,"o":"m 428 -18 q 174 69 256 -18 q 92 324 92 156 l 92 888 l 231 888 l 231 319 q 277 157 231 213 q 428 101 324 101 q 580 157 533 101 q 626 319 626 213 l 626 888 l 765 888 l 765 324 q 684 69 765 156 q 428 -18 602 -18 z "},"V":{"ha":803,"x_min":29,"x_max":774,"o":"m 511 0 l 293 0 l 29 888 l 175 888 l 394 105 l 410 105 l 628 888 l 774 888 l 511 0 z "},"W":{"ha":1148,"x_min":40,"x_max":1108,"o":"m 434 0 l 217 0 l 40 888 l 183 888 l 294 272 l 324 117 l 335 117 l 363 272 l 473 865 l 676 865 l 785 272 l 813 117 l 825 117 l 854 272 l 966 888 l 1108 888 l 932 0 l 715 0 l 626 484 l 580 750 l 569 750 l 522 484 l 434 0 z "},"X":{"ha":797,"x_min":31,"x_max":765,"o":"m 185 0 l 31 0 l 299 476 l 299 444 l 38 888 l 190 888 l 394 531 l 403 531 l 608 888 l 759 888 l 499 444 l 499 476 l 765 0 l 611 0 l 403 381 l 394 381 l 185 0 z "},"Y":{"ha":772,"x_min":21,"x_max":751,"o":"m 447 258 l 326 258 l 21 888 l 168 888 l 319 565 l 382 418 l 391 418 l 453 565 l 604 888 l 751 888 l 447 258 m 455 0 l 318 0 l 318 388 l 455 388 l 455 0 z "},"Z":{"ha":725,"x_min":56,"x_max":670,"o":"m 217 117 l 670 117 l 670 0 l 56 0 l 56 110 l 503 772 l 60 772 l 60 888 l 665 888 l 665 779 l 217 117 z "},"`":{"ha":413,"x_min":67,"x_max":348,"o":"m 348 761 l 217 950 l 67 950 l 67 948 l 228 759 l 348 759 l 348 761 z "},"a":{"ha":696,"x_min":48,"x_max":621,"o":"m 621 0 l 485 0 l 491 161 l 486 182 l 486 396 l 487 430 q 447 545 487 508 q 319 582 407 582 q 186 562 247 582 q 76 515 125 542 l 88 629 q 153 660 116 645 q 238 685 191 676 q 342 695 285 695 q 472 677 419 695 q 558 624 526 658 q 606 540 591 589 q 621 432 621 492 l 621 0 m 256 -15 q 101 34 155 -15 q 48 176 48 84 l 48 197 q 108 341 48 294 q 297 406 168 388 l 501 435 l 509 336 l 313 308 q 213 275 243 299 q 183 204 183 251 l 183 194 q 212 123 183 148 q 300 98 241 98 q 393 116 354 98 q 456 164 432 134 q 490 231 481 194 l 508 140 l 483 140 q 447 63 472 99 q 375 6 421 28 q 256 -15 328 -15 z "},"b":{"ha":754,"x_min":86,"x_max":694,"o":"m 440 -15 q 335 4 379 -15 q 264 58 292 23 q 224 140 237 93 l 179 140 l 219 268 q 244 173 222 211 q 307 117 267 135 q 397 98 347 98 q 516 143 475 98 q 557 279 557 189 l 557 406 q 516 539 557 494 q 396 584 474 584 q 311 566 348 584 q 250 517 274 548 q 217 447 226 486 l 187 540 l 226 540 q 263 618 238 583 q 333 674 288 653 q 445 694 377 694 q 630 618 567 694 q 694 395 694 542 l 694 288 q 629 62 694 140 q 440 -15 565 -15 m 222 0 l 86 0 l 86 919 l 222 919 l 222 703 l 218 508 l 219 484 l 219 202 l 217 159 l 222 0 z "},"c":{"ha":606,"x_min":60,"x_max":565,"o":"m 358 -16 q 133 64 206 -16 q 60 291 60 144 l 60 389 q 133 616 60 536 q 358 696 207 696 q 434 688 399 696 q 498 668 469 681 q 547 643 526 656 l 558 526 q 481 566 525 550 q 379 583 438 583 q 241 532 286 583 q 197 386 197 482 l 197 294 q 241 150 197 201 q 379 99 286 99 q 483 116 438 99 q 565 156 528 132 l 553 38 q 471 1 521 17 q 358 -16 422 -16 z "},"d":{"ha":754,"x_min":60,"x_max":668,"o":"m 309 -15 q 124 61 188 -15 q 60 284 60 138 l 60 392 q 125 617 60 540 q 315 694 189 694 q 418 675 375 694 q 489 622 462 656 q 528 540 517 587 l 574 540 l 535 414 q 511 507 533 469 q 450 565 489 545 q 359 584 411 584 q 239 539 281 584 q 197 405 197 494 l 197 275 q 239 143 197 188 q 359 98 280 98 q 443 116 407 98 q 504 165 480 134 q 538 235 528 197 l 569 140 l 530 140 q 493 62 519 97 q 422 6 467 26 q 309 -15 378 -15 m 668 0 l 532 0 l 538 159 l 535 202 l 535 484 l 536 510 l 533 703 l 533 919 l 668 919 l 668 0 z "},"e":{"ha":703,"x_min":60,"x_max":649,"o":"m 384 -16 q 141 61 222 -16 q 60 285 60 139 l 60 396 q 135 618 60 540 q 355 697 210 697 q 518 661 453 697 q 616 560 583 626 q 649 406 649 495 l 649 380 q 647 332 649 356 q 641 285 644 308 l 516 285 q 518 353 517 322 q 518 412 518 385 q 500 507 518 468 q 446 566 482 546 q 355 587 410 587 q 234 541 274 587 q 194 409 194 494 l 194 345 l 195 329 l 195 269 q 207 199 195 231 q 243 145 218 168 q 309 111 269 123 q 407 99 349 99 q 530 115 472 99 q 638 160 587 132 l 625 44 q 518 0 579 17 q 384 -16 458 -16 m 613 285 l 132 285 l 132 388 l 613 388 l 613 285 z "},"f":{"ha":521,"x_min":12,"x_max":503,"o":"m 317 939 q 413 930 370 939 q 490 907 456 921 l 503 801 q 437 819 471 813 q 362 826 403 826 q 283 814 313 826 q 241 779 253 801 q 228 725 228 756 l 228 722 q 234 680 228 700 q 248 644 240 660 l 158 641 l 158 657 q 114 702 132 673 q 96 774 96 732 l 96 777 q 150 894 96 850 q 317 939 204 939 m 254 0 l 119 0 l 119 612 l 254 612 l 254 0 m 489 543 l 12 543 l 12 651 l 171 651 l 226 651 l 501 651 l 489 543 z "},"g":{"ha":719,"x_min":43,"x_max":713,"o":"m 359 206 q 140 267 216 206 q 63 441 63 328 l 63 452 q 93 576 63 524 q 189 658 123 628 q 360 691 254 688 l 713 703 l 713 597 l 524 605 l 524 597 q 591 565 565 587 q 632 510 618 543 q 646 433 646 478 l 646 426 q 573 262 646 319 q 359 206 501 206 m 353 -153 l 371 -153 q 471 -145 430 -153 q 534 -119 512 -137 q 556 -71 556 -101 l 556 -69 q 531 -16 556 -33 q 444 8 506 2 l 248 26 l 282 28 q 223 11 249 22 q 184 -19 198 -1 q 169 -65 169 -37 l 169 -66 q 191 -117 169 -98 q 255 -145 213 -137 q 353 -153 296 -153 m 368 -262 l 345 -262 q 184 -245 251 -262 q 80 -193 116 -229 q 43 -99 43 -158 l 43 -96 q 61 -29 43 -56 q 109 14 78 -2 q 178 36 140 31 l 178 43 q 103 77 128 53 q 78 140 78 101 l 78 140 q 90 186 78 167 q 126 216 102 205 q 186 231 150 228 l 186 247 l 329 212 l 277 214 q 220 203 236 213 q 205 176 205 194 l 205 175 q 228 144 205 154 q 307 128 251 134 l 472 110 q 633 56 582 98 q 683 -70 683 15 l 683 -74 q 645 -181 683 -139 q 537 -242 608 -222 q 368 -262 467 -262 m 357 306 q 446 321 410 306 q 500 368 482 337 q 518 444 518 399 l 518 455 q 500 530 518 499 q 448 576 483 560 q 359 592 413 592 l 356 592 q 262 575 298 592 q 209 527 226 558 q 193 454 193 497 l 193 444 q 211 368 193 399 q 266 321 229 337 q 357 306 302 306 z "},"h":{"ha":750,"x_min":86,"x_max":672,"o":"m 672 0 l 536 0 l 536 419 q 523 505 536 469 q 478 561 509 541 q 394 581 447 581 q 309 563 344 581 q 251 515 273 545 q 219 445 228 484 l 192 540 l 226 540 q 265 618 238 583 q 337 674 292 653 q 447 694 382 694 q 576 664 527 694 q 649 576 626 634 q 672 435 672 519 l 672 0 m 222 0 l 86 0 l 86 919 l 222 919 l 222 703 l 218 507 l 222 497 l 222 0 z "},"i":{"ha":313,"x_min":76,"x_max":236,"o":"m 224 0 l 88 0 l 88 679 l 224 679 l 224 0 m 156 779 q 96 800 116 779 q 76 856 76 820 l 76 859 q 96 916 76 895 q 156 936 116 936 q 216 916 197 936 q 236 859 236 895 l 236 856 q 216 799 236 819 q 156 779 197 779 z "},"j":{"ha":330,"x_min":-77,"x_max":253,"o":"m 242 118 l 106 118 l 106 679 l 242 679 l 242 118 m 174 779 q 114 800 133 779 q 94 856 94 820 l 94 859 q 114 916 94 895 q 174 936 133 936 q 234 916 214 936 q 253 859 253 895 l 253 856 q 234 799 253 819 q 174 779 214 779 m 36 -249 q -20 -244 6 -249 q -66 -232 -47 -239 l -77 -122 q -39 -133 -59 -129 q 2 -137 -19 -137 q 84 -106 62 -137 q 106 -15 106 -74 l 106 181 l 242 181 l 242 -22 q 222 -143 242 -92 q 157 -221 202 -194 q 36 -249 112 -249 z "},"k":{"ha":703,"x_min":86,"x_max":688,"o":"m 688 0 l 526 0 l 277 306 l 210 306 l 210 412 l 278 412 l 517 679 l 676 679 l 378 349 l 378 379 l 688 0 m 222 0 l 86 0 l 86 919 l 222 919 l 222 0 z "},"l":{"ha":314,"x_min":89,"x_max":225,"o":"m 225 0 l 89 0 l 89 919 l 225 919 l 225 0 z "},"m":{"ha":1144,"x_min":86,"x_max":1066,"o":"m 1066 0 l 930 0 l 930 423 q 918 507 930 471 q 877 562 906 542 q 801 581 849 581 q 722 563 756 581 q 668 515 689 545 q 639 445 648 484 l 621 540 l 637 540 q 675 616 649 581 q 744 673 701 651 q 855 694 788 694 q 976 665 930 694 q 1044 578 1023 635 q 1066 438 1066 521 l 1066 0 m 222 0 l 86 0 l 86 679 l 222 679 l 217 520 l 222 512 l 222 0 m 644 0 l 508 0 l 508 423 q 496 507 508 471 q 456 562 484 542 q 380 581 428 581 q 301 563 334 581 q 247 515 267 545 q 217 445 226 484 l 195 540 l 224 540 q 261 618 235 583 q 328 674 286 653 q 433 694 371 694 q 576 646 527 694 q 637 504 624 597 q 642 474 640 491 q 644 442 644 458 l 644 0 z "},"n":{"ha":750,"x_min":86,"x_max":672,"o":"m 672 0 l 536 0 l 536 419 q 523 505 536 469 q 478 561 509 541 q 394 581 447 581 q 308 563 344 581 q 250 515 272 545 q 217 445 227 484 l 195 540 l 224 540 q 263 618 236 583 q 335 674 290 653 q 447 694 381 694 q 576 664 527 694 q 649 576 626 634 q 672 435 672 519 l 672 0 m 222 0 l 86 0 l 86 679 l 222 679 l 217 520 l 222 512 l 222 0 z "},"o":{"ha":730,"x_min":60,"x_max":670,"o":"m 365 -17 q 138 63 215 -17 q 60 292 60 142 l 60 389 q 138 618 60 538 q 365 697 215 697 q 593 618 515 697 q 670 389 670 538 l 670 292 q 593 63 670 142 q 365 -17 515 -17 m 365 93 q 491 142 448 93 q 534 284 534 192 l 534 397 q 491 538 534 489 q 365 587 448 587 q 240 538 283 587 q 197 397 197 489 l 197 284 q 240 142 197 192 q 365 93 283 93 z "},"p":{"ha":754,"x_min":86,"x_max":694,"o":"m 440 -15 q 336 4 379 -15 q 265 58 292 23 q 226 140 238 93 l 181 140 l 219 268 q 243 173 221 211 q 305 117 265 135 q 395 98 344 98 q 515 143 474 98 q 557 277 557 189 l 557 407 q 516 539 557 494 q 395 584 474 584 q 311 566 348 584 q 250 517 274 548 q 217 447 226 486 l 185 540 l 224 540 q 262 618 236 583 q 332 674 288 653 q 445 694 377 694 q 630 618 567 694 q 694 395 694 542 l 694 288 q 630 62 694 140 q 440 -15 566 -15 m 222 -239 l 86 -239 l 86 679 l 222 679 l 217 520 l 219 480 l 219 195 l 218 169 l 222 -24 l 222 -239 z "},"q":{"ha":754,"x_min":60,"x_max":668,"o":"m 309 -15 q 124 61 188 -15 q 60 284 60 138 l 60 392 q 125 617 60 540 q 315 694 190 694 q 419 675 376 694 q 490 622 463 656 q 530 540 518 587 l 575 540 l 535 414 q 510 509 533 471 q 448 565 487 547 q 357 584 408 584 q 238 539 279 584 q 197 403 197 493 l 197 276 q 239 143 197 188 q 358 98 280 98 q 443 116 406 98 q 504 165 480 134 q 538 235 528 197 l 567 140 l 528 140 q 492 62 517 97 q 422 6 466 26 q 309 -15 377 -15 m 668 -239 l 533 -239 l 533 -24 l 536 172 l 535 198 l 535 480 l 538 520 l 532 679 l 668 679 l 668 -239 z "},"r":{"ha":524,"x_min":86,"x_max":506,"o":"m 217 410 l 188 517 l 221 517 q 293 643 242 597 q 431 690 344 690 q 468 686 452 690 q 498 679 485 683 l 506 547 q 469 555 490 552 q 424 558 448 558 q 295 520 349 558 q 217 410 241 482 m 222 0 l 86 0 l 86 679 l 219 679 l 213 481 l 222 472 l 222 0 z "},"s":{"ha":619,"x_min":46,"x_max":578,"o":"m 306 -16 q 162 1 224 -16 q 58 38 100 18 l 46 163 q 159 118 97 137 q 298 99 221 99 q 408 120 372 99 q 444 185 444 142 l 444 191 q 429 237 444 219 q 377 270 415 256 q 272 300 340 285 q 138 346 187 319 q 67 411 88 372 q 46 503 46 449 l 46 510 q 110 649 46 601 q 301 696 174 696 q 442 678 382 696 q 540 639 501 661 l 553 526 q 447 568 506 551 q 315 585 388 585 q 236 575 266 585 q 193 549 206 566 q 180 508 180 532 l 180 503 q 194 459 180 478 q 243 425 208 440 q 343 396 279 410 q 481 353 429 378 q 555 291 532 329 q 578 194 578 253 l 578 183 q 510 34 578 84 q 306 -16 442 -16 z "},"t":{"ha":549,"x_min":8,"x_max":519,"o":"m 339 -14 q 208 11 258 -14 q 137 85 159 35 q 115 209 115 135 l 115 624 l 249 624 l 249 225 q 278 133 249 163 q 374 104 306 104 q 451 113 414 104 q 519 136 488 121 l 507 21 q 430 -5 474 4 q 339 -14 386 -14 m 501 563 l 8 563 l 8 671 l 513 671 l 501 563 m 246 659 l 116 659 l 115 846 l 251 862 l 246 659 z "},"u":{"ha":750,"x_min":78,"x_max":664,"o":"m 78 679 l 214 679 l 214 260 q 227 175 214 211 q 272 118 241 138 q 356 98 303 98 q 442 116 406 98 q 501 165 478 134 q 533 234 524 196 l 555 140 l 526 140 q 487 62 514 97 q 415 6 460 26 q 303 -15 369 -15 q 174 15 224 -15 q 101 103 124 45 q 78 244 78 161 l 78 679 m 528 679 l 664 679 l 664 0 l 528 0 l 533 159 l 528 167 l 528 679 z "},"v":{"ha":695,"x_min":26,"x_max":669,"o":"m 340 92 l 356 92 l 528 679 l 669 679 l 458 0 l 237 0 l 26 679 l 167 679 l 340 92 z "},"w":{"ha":1049,"x_min":33,"x_max":1016,"o":"m 399 0 l 193 0 l 33 679 l 174 679 l 294 98 l 306 98 l 430 661 l 620 661 l 744 98 l 756 98 l 877 679 l 1016 679 l 856 0 l 652 0 l 550 470 l 531 563 l 519 563 l 501 470 l 399 0 z "},"x":{"ha":690,"x_min":29,"x_max":660,"o":"m 178 0 l 29 0 l 247 373 l 247 335 l 34 679 l 183 679 l 340 413 l 351 413 l 507 679 l 656 679 l 443 335 l 443 373 l 660 0 l 512 0 l 351 285 l 340 285 l 178 0 z "},"y":{"ha":696,"x_min":26,"x_max":670,"o":"m 336 120 l 412 120 l 340 89 l 531 679 l 670 679 l 361 -239 l 224 -239 l 331 80 l 392 28 l 239 28 l 26 679 l 167 679 l 336 120 z "},"z":{"ha":633,"x_min":53,"x_max":581,"o":"m 216 113 l 581 113 l 581 0 l 53 0 l 53 102 l 414 567 l 55 567 l 55 679 l 577 679 l 577 578 l 216 113 z "},"‚":{"ha":267,"x_min":10,"x_max":212,"o":"m 74 197 l 205 197 q 209 162 207 183 q 212 117 212 141 q 188 -40 212 32 q 106 -180 163 -112 l 10 -152 q 62 -31 45 -94 q 79 111 79 33 q 78 155 79 134 q 74 197 77 176 z "},"„":{"ha":522,"x_min":10,"x_max":458,"o":"m 320 197 l 451 197 q 455 162 453 183 q 458 117 458 141 q 433 -40 458 32 q 351 -180 409 -112 l 256 -152 q 308 -31 291 -94 q 325 111 325 33 q 324 155 325 134 q 320 197 323 176 m 74 197 l 205 197 q 209 162 207 183 q 212 117 212 141 q 188 -40 212 32 q 106 -180 163 -112 l 10 -152 q 62 -31 45 -94 q 79 111 79 33 q 78 155 79 134 q 74 197 77 176 z "},"ˆ":{"ha":544,"x_min":69,"x_max":475,"o":"m 69 761 l 199 950 l 345 950 l 475 761 l 475 759 l 368 759 l 275 876 l 269 876 l 176 759 l 69 759 l 69 761 z "},"‹":{"ha":396,"x_min":45,"x_max":367,"o":"m 367 615 l 171 340 l 367 61 l 234 61 l 45 325 l 45 356 l 234 615 l 367 615 z "},"Œ":{"ha":1204,"x_min":68,"x_max":1140,"o":"m 422 -18 q 158 76 248 -18 q 68 347 68 171 l 68 542 q 158 811 68 717 q 422 906 248 906 q 685 811 595 906 q 775 542 775 717 l 775 347 q 685 76 775 171 q 422 -18 595 -18 m 422 98 q 580 161 527 98 q 633 341 633 225 l 633 547 q 580 727 633 664 q 422 790 527 790 q 263 727 316 790 q 210 547 210 664 l 210 341 q 263 161 210 225 q 422 98 316 98 m 1140 0 l 535 0 l 535 117 l 1140 117 l 1140 0 m 1124 394 l 649 394 l 649 510 l 1124 510 l 1124 394 m 1135 772 l 534 772 l 534 888 l 1135 888 l 1135 772 z "},"“":{"ha":528,"x_min":57,"x_max":494,"o":"m 192 576 l 63 576 q 59 609 61 590 q 57 653 57 629 q 79 801 57 733 q 152 930 101 869 l 249 903 q 203 791 218 851 q 188 660 188 732 q 189 618 188 638 q 192 576 190 598 m 438 576 l 308 576 q 304 609 306 590 q 302 653 302 629 q 324 801 302 733 q 397 930 347 869 l 494 903 q 448 791 463 851 q 433 660 433 732 q 434 618 433 638 q 438 576 435 598 z "},"”":{"ha":528,"x_min":34,"x_max":471,"o":"m 335 919 l 465 919 q 469 886 467 906 q 471 842 471 866 q 449 694 471 763 q 376 565 426 626 l 279 592 q 325 704 310 644 q 340 835 340 764 q 339 877 340 858 q 335 919 338 897 m 90 919 l 219 919 q 224 886 222 906 q 226 842 226 866 q 203 694 226 763 q 131 565 181 626 l 34 592 q 80 704 65 644 q 95 835 95 764 q 94 877 95 858 q 90 919 92 897 z "},"•":{"ha":409,"x_min":69,"x_max":340,"o":"m 205 292 q 102 329 135 292 q 69 433 69 366 l 69 445 q 102 549 69 512 q 205 585 135 585 q 306 549 273 585 q 340 445 340 512 l 340 433 q 306 329 340 366 q 205 292 273 292 z "},"˜":{"ha":538,"x_min":69,"x_max":469,"o":"m 361 776 q 313 783 336 776 q 267 800 289 790 q 226 818 245 810 q 190 825 206 825 q 163 813 171 825 q 155 778 155 801 l 155 768 l 69 768 l 69 792 q 94 887 69 852 q 178 922 119 922 q 227 914 203 922 q 272 897 251 906 q 313 879 294 887 q 349 872 332 872 q 376 884 368 872 q 383 919 383 896 l 383 929 l 469 929 l 469 905 q 444 810 469 844 q 361 776 419 776 z "},"›":{"ha":396,"x_min":28,"x_max":351,"o":"m 28 615 l 225 340 l 28 61 l 162 61 l 351 325 l 351 356 l 162 615 l 28 615 z "},"œ":{"ha":1178,"x_min":60,"x_max":1124,"o":"m 346 -17 q 135 63 210 -17 q 60 292 60 142 l 60 389 q 135 618 60 538 q 346 697 210 697 q 509 657 448 697 q 599 544 571 617 l 603 544 q 691 657 631 617 q 844 697 751 697 q 999 661 937 697 q 1092 560 1061 626 q 1124 406 1124 495 l 1124 380 q 1122 332 1124 356 q 1116 285 1119 308 l 991 285 q 993 353 992 322 q 993 412 993 385 q 975 507 993 468 q 921 566 957 546 q 830 587 885 587 q 710 541 749 587 q 670 409 670 494 l 670 343 l 670 327 l 670 276 q 721 146 670 194 q 883 99 772 99 q 1005 115 947 99 q 1113 160 1062 132 l 1100 44 q 997 0 1056 17 q 866 -16 938 -16 q 699 23 766 -16 q 603 139 633 62 l 599 139 q 510 23 573 63 q 346 -17 447 -17 m 1088 285 l 607 285 l 607 388 l 1088 388 l 1088 285 m 364 93 q 491 142 447 93 q 534 284 534 192 l 534 397 q 491 538 534 489 q 364 587 447 587 q 239 538 282 587 q 197 397 197 489 l 197 284 q 239 142 197 192 q 364 93 282 93 z "},"¡":{"ha":329,"x_min":83,"x_max":246,"o":"m 238 -208 l 222 400 l 108 400 l 92 -208 l 238 -208 m 165 694 q 103 672 123 694 q 83 608 83 649 l 83 601 q 103 539 83 561 q 165 517 123 517 q 226 539 206 517 q 246 601 246 561 l 246 608 q 226 672 246 649 q 165 694 206 694 z "},"¢":{"ha":606,"x_min":60,"x_max":565,"o":"m 410 825 l 410 643 l 294 643 l 294 825 l 410 825 m 410 54 l 410 -149 l 294 -149 l 294 54 l 410 54 m 358 -16 q 133 64 206 -16 q 60 291 60 144 l 60 389 q 133 616 60 536 q 358 696 207 696 q 434 688 399 696 q 498 668 469 681 q 547 643 526 656 l 558 526 q 481 566 525 550 q 379 583 438 583 q 241 532 286 583 q 197 386 197 482 l 197 294 q 241 150 197 201 q 379 99 286 99 q 483 116 438 99 q 565 156 528 132 l 553 38 q 471 1 521 17 q 358 -16 422 -16 z "},"£":{"ha":748,"x_min":54,"x_max":704,"o":"m 629 403 l 54 403 l 62 508 l 637 508 l 629 403 m 219 125 l 219 118 l 704 118 l 704 0 l 58 0 l 58 116 l 79 122 q 143 157 119 132 q 177 222 167 183 q 188 315 188 262 q 180 397 188 356 q 163 481 173 438 q 146 565 153 523 q 139 650 139 608 q 212 841 139 777 q 439 904 285 904 q 552 893 497 904 q 651 865 608 883 l 663 747 q 567 776 615 767 q 470 785 519 785 q 363 768 404 785 q 302 718 322 751 q 283 633 283 684 q 290 557 283 596 q 307 480 297 519 q 323 402 316 440 q 330 326 330 363 q 301 195 330 240 q 219 125 273 149 z "},"¤":{"ha":719,"x_min":48,"x_max":672,"o":"m 359 165 q 169 229 235 165 q 103 414 103 294 l 103 444 q 169 628 103 564 q 360 692 235 692 q 550 628 484 692 q 615 444 615 564 l 615 414 q 549 229 615 294 q 359 165 483 165 m 360 267 q 459 304 425 267 q 494 412 494 341 l 493 446 q 459 553 493 517 q 360 590 425 590 q 260 553 294 590 q 225 446 225 517 l 225 412 q 260 304 225 341 q 360 267 294 267 m 465 226 l 541 294 l 672 147 l 594 82 l 465 226 m 181 296 l 253 226 l 125 82 l 48 147 l 181 296 m 251 631 l 173 566 l 48 707 l 124 773 l 251 631 m 540 558 l 465 627 l 594 773 l 671 707 l 540 558 z "},"¥":{"ha":787,"x_min":27,"x_max":758,"o":"m 702 372 l 449 372 l 473 474 l 712 474 l 702 372 m 77 167 l 87 267 l 712 267 l 702 167 l 77 167 m 87 474 l 311 474 l 336 372 l 77 372 l 87 474 m 453 258 l 333 258 l 27 888 l 174 888 l 326 565 l 388 418 l 397 418 l 460 565 l 610 888 l 758 888 l 453 258 m 461 0 l 324 0 l 324 388 l 461 388 l 461 0 z "},"¦":{"ha":343,"x_min":114,"x_max":229,"o":"m 229 987 l 229 408 l 114 408 l 114 987 l 229 987 m 229 283 l 229 -300 l 114 -300 l 114 283 l 229 283 z "},"§":{"ha":662,"x_min":66,"x_max":594,"o":"m 472 254 l 383 293 q 444 333 424 306 q 464 394 464 361 l 464 399 q 449 457 464 435 q 397 493 434 478 q 290 522 359 508 q 157 567 206 540 q 87 630 108 593 q 66 716 66 667 l 66 724 q 130 858 66 813 q 319 903 193 903 q 459 886 399 903 q 556 847 518 869 l 569 733 q 464 775 522 758 q 333 792 406 792 q 230 774 260 792 q 200 721 200 755 l 200 714 q 214 675 200 691 q 263 645 228 658 q 361 616 298 631 q 498 573 447 596 q 571 515 549 550 q 594 424 594 481 l 594 420 q 561 325 594 363 q 471 277 528 286 l 472 254 m 188 567 l 274 535 q 216 498 237 523 q 196 438 196 474 l 196 431 q 210 375 196 397 q 260 338 224 353 q 361 305 296 322 q 498 259 447 284 q 571 198 549 234 q 594 108 594 163 l 594 97 q 526 -44 594 4 q 324 -92 458 -92 q 181 -75 242 -92 q 78 -37 119 -58 l 66 87 q 178 42 117 61 q 316 23 240 23 q 424 43 389 23 q 460 100 460 63 l 460 107 q 445 149 460 133 q 394 180 431 166 q 290 211 357 194 q 159 258 208 233 q 88 317 110 283 q 66 399 66 351 l 66 404 q 98 497 66 462 q 189 546 129 532 l 188 567 z "},"¨":{"ha":496,"x_min":69,"x_max":426,"o":"m 138 779 q 87 798 104 779 q 69 852 69 817 l 69 857 q 87 910 69 892 q 138 929 104 929 q 191 910 174 929 q 208 857 208 892 l 208 852 q 191 798 208 817 q 138 779 174 779 m 358 779 q 306 798 323 779 q 289 852 289 817 l 289 857 q 306 910 289 892 q 358 929 323 929 q 409 910 392 929 q 426 857 426 892 l 426 852 q 409 798 426 817 q 358 779 392 779 z "},"©":{"ha":971,"x_min":68,"x_max":903,"o":"m 485 -18 q 259 30 353 -18 q 117 170 166 78 q 68 392 68 262 l 68 500 q 117 720 68 629 q 259 858 166 810 q 485 906 353 906 q 711 858 618 906 q 854 720 805 810 q 903 500 903 629 l 903 392 q 854 170 903 262 q 711 30 805 78 q 485 -18 618 -18 m 513 216 q 368 268 415 216 q 321 417 321 320 l 321 475 q 368 623 321 571 q 513 674 416 674 q 589 663 556 674 q 641 638 622 652 l 649 558 q 597 585 626 574 q 528 597 568 597 q 442 566 469 597 q 414 477 414 535 l 414 417 q 443 327 414 358 q 531 296 472 296 q 600 307 571 296 q 652 334 629 318 l 645 253 q 591 227 624 239 q 513 216 558 216 m 485 59 q 724 144 636 59 q 811 385 811 228 l 811 507 q 724 745 811 662 q 485 828 636 828 q 247 745 335 828 q 160 507 160 662 l 160 385 q 247 144 160 228 q 485 59 335 59 z "},"ª":{"ha":462,"x_min":41,"x_max":402,"o":"m 402 446 l 306 446 l 310 549 l 308 556 l 308 695 l 308 733 q 286 795 308 774 q 210 817 264 817 q 129 803 167 817 q 60 772 91 790 l 68 856 q 136 884 97 872 q 226 897 176 897 q 310 885 276 897 q 364 850 344 872 q 393 797 385 828 q 402 731 402 767 l 402 446 m 174 437 q 75 470 109 437 q 41 567 41 504 l 41 577 q 77 669 41 638 q 191 713 113 701 l 320 732 l 326 663 l 213 645 q 156 625 173 639 q 138 583 138 611 l 138 576 q 155 533 138 549 q 207 518 172 518 q 274 540 246 518 q 310 593 301 561 l 322 527 l 305 527 q 264 463 292 488 q 174 437 235 437 z "},"®":{"ha":578,"x_min":43,"x_max":535,"o":"m 290 372 q 107 434 172 372 q 43 608 43 497 l 43 664 q 107 838 43 776 q 290 901 172 901 q 472 838 408 901 q 535 664 535 776 l 535 608 q 472 434 535 497 q 290 372 408 372 m 290 424 q 428 470 381 424 q 475 606 475 517 l 475 667 q 428 802 475 756 q 290 849 381 849 q 150 802 197 849 q 103 667 103 756 l 103 606 q 150 470 103 517 q 290 424 197 424 m 403 508 l 345 508 l 338 553 q 323 590 334 580 q 290 600 313 600 l 233 600 l 233 644 l 299 644 q 331 655 322 644 q 341 684 341 665 l 341 690 q 332 719 341 708 q 300 729 322 729 l 233 729 l 233 774 l 308 774 q 376 755 354 774 q 397 698 397 736 l 397 693 q 383 651 397 667 q 340 632 369 635 l 340 625 l 329 631 q 375 612 363 628 q 394 561 388 595 l 403 508 m 251 508 l 196 508 l 196 774 l 251 774 l 251 629 l 251 610 l 251 508 z "},"°":{"ha":457,"x_min":52,"x_max":405,"o":"m 228 539 q 98 586 144 539 q 52 718 52 634 l 52 727 q 98 858 52 810 q 228 906 144 906 q 359 858 313 906 q 405 727 405 810 l 405 718 q 359 586 405 634 q 228 539 313 539 m 228 628 q 285 651 266 628 q 303 717 303 675 l 303 727 q 285 793 303 769 q 228 817 266 817 q 173 793 192 817 q 153 727 153 769 l 153 717 q 173 651 153 675 q 228 628 192 628 z "},"±":{"ha":716,"x_min":78,"x_max":638,"o":"m 638 90 l 78 90 l 78 199 l 638 199 l 638 90 m 416 763 l 416 282 l 300 282 l 300 763 l 416 763 m 638 468 l 78 468 l 78 576 l 638 576 l 638 468 z "},"´":{"ha":413,"x_min":65,"x_max":347,"o":"m 65 761 l 197 950 l 347 950 l 347 948 l 185 759 l 65 759 l 65 761 z "},"¶":{"ha":519,"x_min":53,"x_max":421,"o":"m 320 455 l 256 455 q 102 508 151 455 q 53 655 53 560 l 53 688 q 102 835 53 783 q 256 888 151 888 l 319 888 l 320 455 m 421 888 l 421 0 l 285 0 l 285 888 l 421 888 z "},"¸":{"ha":408,"x_min":96,"x_max":367,"o":"m 163 15 l 255 15 l 240 -94 l 183 -56 q 206 -55 194 -55 q 230 -55 218 -54 q 333 -83 299 -58 q 367 -158 367 -109 l 367 -162 q 327 -243 367 -217 q 213 -269 288 -269 q 158 -265 185 -269 q 111 -256 131 -260 l 96 -172 q 143 -183 117 -179 q 196 -187 168 -187 q 248 -178 230 -187 q 266 -152 266 -169 l 266 -151 q 242 -121 266 -130 q 160 -109 219 -112 q 150 -108 153 -108 q 147 -108 147 -108 l 163 15 z "},"º":{"ha":482,"x_min":43,"x_max":439,"o":"m 241 437 q 94 489 144 437 q 43 641 43 542 l 43 694 q 94 846 43 794 q 241 898 144 898 q 389 846 338 898 q 439 694 439 794 l 439 641 q 388 489 439 542 q 241 437 338 437 m 241 519 q 313 549 288 519 q 338 636 338 578 l 338 700 q 313 786 338 757 q 241 816 289 816 q 169 786 193 816 q 144 700 144 757 l 144 636 q 169 549 144 579 q 241 519 193 519 z "},"¿":{"ha":626,"x_min":56,"x_max":594,"o":"m 359 390 l 440 408 l 440 288 l 381 275 q 273 236 314 260 q 213 175 232 212 q 194 86 194 139 l 194 41 q 231 -69 194 -31 q 356 -107 268 -107 q 484 -87 423 -107 q 594 -42 545 -68 l 579 -165 q 518 -192 555 -178 q 436 -215 482 -206 q 335 -224 390 -224 q 124 -159 192 -224 q 56 29 56 -93 l 56 84 q 90 235 56 176 q 192 332 124 295 q 359 390 259 369 m 381 694 q 442 672 422 694 q 462 608 462 649 l 462 601 q 442 539 462 561 q 381 517 422 517 q 319 539 340 517 q 299 601 299 561 l 299 608 q 319 672 299 649 q 381 694 340 694 z "},"À":{"ha":819,"x_min":29,"x_max":790,"o":"m 170 0 l 29 0 l 301 888 l 517 888 l 790 0 l 649 0 l 418 794 l 401 794 l 170 0 m 610 248 l 207 248 l 207 363 l 610 363 l 610 248 m 471 971 l 307 1147 l 151 1147 l 151 1144 l 342 969 l 471 969 l 471 971 z "},"Á":{"ha":819,"x_min":29,"x_max":790,"o":"m 170 0 l 29 0 l 301 888 l 517 888 l 790 0 l 649 0 l 418 794 l 401 794 l 170 0 m 610 248 l 207 248 l 207 363 l 610 363 l 610 248 m 347 971 l 511 1147 l 667 1147 l 667 1144 l 476 969 l 347 969 l 347 971 z "},"Â":{"ha":819,"x_min":29,"x_max":790,"o":"m 170 0 l 29 0 l 301 888 l 517 888 l 790 0 l 649 0 l 418 794 l 401 794 l 170 0 m 610 248 l 207 248 l 207 363 l 610 363 l 610 248 m 188 972 l 338 1147 l 481 1147 l 632 972 l 632 969 l 517 969 l 413 1072 l 407 1072 l 302 969 l 188 969 l 188 972 z "},"Ã":{"ha":819,"x_min":29,"x_max":790,"o":"m 170 0 l 29 0 l 301 888 l 517 888 l 790 0 l 649 0 l 418 794 l 401 794 l 170 0 m 610 248 l 207 248 l 207 363 l 610 363 l 610 248 m 507 983 q 456 989 481 983 q 408 1005 431 996 q 364 1020 385 1013 q 326 1026 344 1026 q 298 1015 306 1026 q 290 981 290 1003 l 290 975 l 204 975 l 204 996 q 229 1089 204 1055 q 313 1123 253 1123 q 365 1116 340 1123 q 413 1101 390 1110 q 456 1085 435 1092 q 494 1078 476 1078 q 522 1090 514 1078 q 529 1124 529 1101 l 529 1131 l 615 1131 l 615 1109 q 590 1016 615 1050 q 507 983 565 983 z "},"Å":{"ha":819,"x_min":29,"x_max":790,"o":"m 170 0 l 29 0 l 301 888 l 517 888 l 790 0 l 649 0 l 418 794 l 401 794 l 170 0 m 610 248 l 207 248 l 207 363 l 610 363 l 610 248 m 272 1058 l 272 1061 q 306 1147 272 1115 q 410 1178 340 1178 q 513 1147 478 1178 q 547 1061 547 1115 l 547 1058 q 513 974 547 1006 q 410 942 478 942 q 306 974 340 942 q 272 1058 272 1006 m 351 1061 l 351 1059 q 366 1022 351 1035 q 410 1008 381 1008 q 453 1022 438 1008 q 467 1059 467 1035 l 467 1061 q 453 1099 467 1085 q 410 1112 438 1112 q 366 1099 381 1112 q 351 1061 351 1085 z "},"Ä":{"ha":819,"x_min":29,"x_max":790,"o":"m 170 0 l 29 0 l 301 888 l 517 888 l 790 0 l 649 0 l 418 794 l 401 794 l 170 0 m 610 248 l 207 248 l 207 363 l 610 363 l 610 248 m 300 985 q 249 1005 266 985 q 231 1058 231 1024 l 231 1063 q 249 1117 231 1098 q 300 1135 266 1135 q 352 1117 335 1135 q 369 1063 369 1098 l 369 1058 q 352 1005 369 1024 q 300 985 335 985 m 519 985 q 468 1005 485 985 q 451 1058 451 1024 l 451 1063 q 468 1117 451 1098 q 519 1135 485 1135 q 571 1117 554 1135 q 588 1063 588 1098 l 588 1058 q 571 1005 588 1024 q 519 985 554 985 z "},"Æ":{"ha":1228,"x_min":28,"x_max":1164,"o":"m 175 0 l 28 0 l 465 888 l 617 888 l 617 794 l 560 794 l 175 0 m 644 248 l 240 248 l 240 363 l 644 363 l 644 248 m 1164 0 l 635 0 l 635 117 l 1164 117 l 1164 0 m 732 0 l 594 0 l 594 888 l 732 888 l 732 0 m 1149 394 l 674 394 l 674 510 l 1149 510 l 1149 394 m 1159 772 l 635 772 l 635 888 l 1159 888 l 1159 772 z "},"Ç":{"ha":709,"x_min":68,"x_max":656,"o":"m 407 -17 q 152 77 237 -17 q 68 346 68 172 l 68 543 q 152 811 68 717 q 407 905 237 905 q 502 896 459 905 q 579 872 545 887 q 638 842 613 858 l 649 714 q 553 763 608 742 q 426 783 499 783 q 264 720 319 783 q 210 541 210 657 l 210 351 q 265 172 210 235 q 430 108 320 108 q 558 128 502 108 q 656 178 614 149 l 644 47 q 585 16 620 31 q 505 -8 550 1 q 407 -17 460 -17 m 349 13 l 441 13 l 426 -96 l 369 -58 q 392 -57 381 -57 q 416 -57 404 -56 q 519 -85 485 -60 q 553 -160 553 -111 l 553 -164 q 513 -245 553 -219 q 399 -271 474 -271 q 344 -267 371 -271 q 297 -258 317 -262 l 282 -174 q 329 -185 303 -181 q 382 -190 354 -190 q 434 -181 416 -190 q 452 -154 452 -172 l 452 -153 q 428 -123 452 -132 q 346 -111 405 -115 q 336 -110 339 -110 q 333 -110 333 -110 l 349 13 z "},"È":{"ha":733,"x_min":99,"x_max":668,"o":"m 236 0 l 99 0 l 99 888 l 236 888 l 236 0 m 668 0 l 140 0 l 140 117 l 668 117 l 668 0 m 653 394 l 178 394 l 178 510 l 653 510 l 653 394 m 663 772 l 139 772 l 139 888 l 663 888 l 663 772 m 447 971 l 283 1147 l 127 1147 l 127 1144 l 318 969 l 447 969 l 447 971 z "},"É":{"ha":733,"x_min":99,"x_max":668,"o":"m 236 0 l 99 0 l 99 888 l 236 888 l 236 0 m 668 0 l 140 0 l 140 117 l 668 117 l 668 0 m 653 394 l 178 394 l 178 510 l 653 510 l 653 394 m 663 772 l 139 772 l 139 888 l 663 888 l 663 772 m 324 971 l 488 1147 l 644 1147 l 644 1144 l 453 969 l 324 969 l 324 971 z "},"Ê":{"ha":733,"x_min":99,"x_max":668,"o":"m 236 0 l 99 0 l 99 888 l 236 888 l 236 0 m 668 0 l 140 0 l 140 117 l 668 117 l 668 0 m 653 394 l 178 394 l 178 510 l 653 510 l 653 394 m 663 772 l 139 772 l 139 888 l 663 888 l 663 772 m 164 972 l 315 1147 l 458 1147 l 608 972 l 608 969 l 494 969 l 389 1072 l 383 1072 l 278 969 l 164 969 l 164 972 z "},"Ë":{"ha":733,"x_min":99,"x_max":668,"o":"m 236 0 l 99 0 l 99 888 l 236 888 l 236 0 m 668 0 l 140 0 l 140 117 l 668 117 l 668 0 m 653 394 l 178 394 l 178 510 l 653 510 l 653 394 m 663 772 l 139 772 l 139 888 l 663 888 l 663 772 m 276 985 q 225 1005 242 985 q 208 1058 208 1024 l 208 1063 q 225 1117 208 1098 q 276 1135 242 1135 q 329 1117 312 1135 q 346 1063 346 1098 l 346 1058 q 329 1005 346 1024 q 276 985 312 985 m 496 985 q 444 1005 461 985 q 427 1058 427 1024 l 427 1063 q 444 1117 427 1098 q 496 1135 461 1135 q 548 1117 531 1135 q 565 1063 565 1098 l 565 1058 q 548 1005 565 1024 q 496 985 531 985 z "},"Ì":{"ha":338,"x_min":-90,"x_max":239,"o":"m 239 888 l 239 0 l 99 0 l 99 888 l 239 888 m 230 971 l 66 1147 l -90 1147 l -90 1144 l 101 969 l 230 969 l 230 971 z "},"Í":{"ha":338,"x_min":99,"x_max":426,"o":"m 239 888 l 239 0 l 99 0 l 99 888 l 239 888 m 106 971 l 270 1147 l 426 1147 l 426 1144 l 235 969 l 106 969 l 106 971 z "},"Î":{"ha":338,"x_min":-53,"x_max":391,"o":"m 239 888 l 239 0 l 99 0 l 99 888 l 239 888 m -53 972 l 97 1147 l 240 1147 l 391 972 l 391 969 l 276 969 l 172 1072 l 166 1072 l 61 969 l -53 969 l -53 972 z "},"Ï":{"ha":338,"x_min":-10,"x_max":347,"o":"m 239 888 l 239 0 l 99 0 l 99 888 l 239 888 m 59 985 q 8 1005 25 985 q -10 1058 -10 1024 l -10 1063 q 8 1117 -10 1098 q 59 1135 25 1135 q 111 1117 94 1135 q 128 1063 128 1098 l 128 1058 q 111 1005 128 1024 q 59 985 94 985 m 278 985 q 227 1005 244 985 q 210 1058 210 1024 l 210 1063 q 227 1117 210 1098 q 278 1135 244 1135 q 330 1117 313 1135 q 347 1063 347 1098 l 347 1058 q 330 1005 347 1024 q 278 985 313 985 z "},"Ð":{"ha":830,"x_min":3,"x_max":765,"o":"m 440 403 l 3 403 l 3 508 l 440 508 l 440 403 m 409 0 l 194 0 l 194 117 l 404 117 q 569 177 514 117 q 624 348 624 237 l 624 541 q 569 712 624 653 q 404 772 514 772 l 193 772 l 193 888 l 409 888 q 675 798 585 888 q 765 542 765 709 l 765 347 q 675 90 765 180 q 409 0 585 0 m 236 0 l 99 0 l 99 888 l 236 888 l 236 0 z "},"Ñ":{"ha":871,"x_min":99,"x_max":772,"o":"m 99 888 l 307 888 l 634 151 l 642 151 l 637 535 l 637 888 l 772 888 l 772 0 l 569 0 l 237 744 l 228 744 l 234 345 l 234 0 l 99 0 l 99 888 m 535 983 q 483 989 508 983 q 435 1005 458 996 q 392 1020 413 1013 q 353 1026 372 1026 q 326 1015 334 1026 q 317 981 317 1003 l 317 975 l 232 975 l 232 996 q 257 1089 232 1055 q 340 1123 281 1123 q 393 1116 367 1123 q 441 1101 418 1110 q 484 1085 463 1092 q 522 1078 504 1078 q 549 1090 542 1078 q 557 1124 557 1101 l 557 1131 l 642 1131 l 642 1109 q 618 1016 642 1050 q 535 983 593 983 z "},"Ò":{"ha":843,"x_min":68,"x_max":775,"o":"m 422 -18 q 158 76 248 -18 q 68 347 68 171 l 68 542 q 158 811 68 717 q 422 906 248 906 q 685 811 595 906 q 775 542 775 717 l 775 347 q 685 76 775 171 q 422 -18 595 -18 m 422 98 q 580 161 527 98 q 633 341 633 225 l 633 547 q 580 727 633 664 q 422 790 527 790 q 263 727 316 790 q 210 547 210 664 l 210 341 q 263 161 210 225 q 422 98 316 98 m 483 971 l 319 1147 l 163 1147 l 163 1144 l 353 969 l 483 969 l 483 971 z "},"Ó":{"ha":843,"x_min":68,"x_max":775,"o":"m 422 -18 q 158 76 248 -18 q 68 347 68 171 l 68 542 q 158 811 68 717 q 422 906 248 906 q 685 811 595 906 q 775 542 775 717 l 775 347 q 685 76 775 171 q 422 -18 595 -18 m 422 98 q 580 161 527 98 q 633 341 633 225 l 633 547 q 580 727 633 664 q 422 790 527 790 q 263 727 316 790 q 210 547 210 664 l 210 341 q 263 161 210 225 q 422 98 316 98 m 359 971 l 523 1147 l 679 1147 l 679 1144 l 488 969 l 359 969 l 359 971 z "},"Ô":{"ha":843,"x_min":68,"x_max":775,"o":"m 422 -18 q 158 76 248 -18 q 68 347 68 171 l 68 542 q 158 811 68 717 q 422 906 248 906 q 685 811 595 906 q 775 542 775 717 l 775 347 q 685 76 775 171 q 422 -18 595 -18 m 422 98 q 580 161 527 98 q 633 341 633 225 l 633 547 q 580 727 633 664 q 422 790 527 790 q 263 727 316 790 q 210 547 210 664 l 210 341 q 263 161 210 225 q 422 98 316 98 m 199 972 l 350 1147 l 493 1147 l 644 972 l 644 969 l 529 969 l 424 1072 l 419 1072 l 314 969 l 199 969 l 199 972 z "},"Õ":{"ha":843,"x_min":68,"x_max":775,"o":"m 422 -18 q 158 76 248 -18 q 68 347 68 171 l 68 542 q 158 811 68 717 q 422 906 248 906 q 685 811 595 906 q 775 542 775 717 l 775 347 q 685 76 775 171 q 422 -18 595 -18 m 422 98 q 580 161 527 98 q 633 341 633 225 l 633 547 q 580 727 633 664 q 422 790 527 790 q 263 727 316 790 q 210 547 210 664 l 210 341 q 263 161 210 225 q 422 98 316 98 m 519 983 q 467 989 492 983 q 419 1005 442 996 q 376 1020 397 1013 q 338 1026 356 1026 q 310 1015 318 1026 q 301 981 301 1003 l 301 975 l 216 975 l 216 996 q 241 1089 216 1055 q 324 1123 265 1123 q 377 1116 351 1123 q 425 1101 402 1110 q 468 1085 447 1092 q 506 1078 488 1078 q 533 1090 526 1078 q 541 1124 541 1101 l 541 1131 l 626 1131 l 626 1109 q 602 1016 626 1050 q 519 983 577 983 z "},"Ö":{"ha":843,"x_min":68,"x_max":775,"o":"m 422 -18 q 158 76 248 -18 q 68 347 68 171 l 68 542 q 158 811 68 717 q 422 906 248 906 q 685 811 595 906 q 775 542 775 717 l 775 347 q 685 76 775 171 q 422 -18 595 -18 m 422 98 q 580 161 527 98 q 633 341 633 225 l 633 547 q 580 727 633 664 q 422 790 527 790 q 263 727 316 790 q 210 547 210 664 l 210 341 q 263 161 210 225 q 422 98 316 98 m 312 985 q 260 1005 278 985 q 243 1058 243 1024 l 243 1063 q 260 1117 243 1098 q 312 1135 278 1135 q 364 1117 347 1135 q 381 1063 381 1098 l 381 1058 q 364 1005 381 1024 q 312 985 347 985 m 531 985 q 480 1005 497 985 q 463 1058 463 1024 l 463 1063 q 480 1117 463 1098 q 531 1135 497 1135 q 583 1117 566 1135 q 600 1063 600 1098 l 600 1058 q 583 1005 600 1024 q 531 985 566 985 z "},"Ø":{"ha":843,"x_min":68,"x_max":775,"o":"m 422 -18 q 230 26 309 -18 q 110 151 151 69 q 68 347 68 233 l 68 542 q 158 811 68 717 q 422 906 248 906 q 613 862 534 906 q 733 736 692 818 q 775 542 775 655 l 775 347 q 685 76 775 171 q 422 -18 595 -18 m 200 -48 l 74 -48 l 176 114 l 208 155 l 572 812 l 584 840 l 644 935 l 769 935 l 667 778 l 639 736 l 278 85 l 268 66 l 200 -48 m 422 98 q 580 161 527 98 q 633 341 633 225 l 633 547 q 583 727 633 664 q 422 790 532 790 q 263 727 316 790 q 210 547 210 664 l 210 341 q 260 161 210 225 q 422 98 310 98 z "},"Ù":{"ha":857,"x_min":92,"x_max":765,"o":"m 428 -18 q 174 69 256 -18 q 92 324 92 156 l 92 888 l 231 888 l 231 319 q 277 157 231 213 q 428 101 324 101 q 580 157 533 101 q 626 319 626 213 l 626 888 l 765 888 l 765 324 q 684 69 765 156 q 428 -18 602 -18 m 490 971 l 326 1147 l 169 1147 l 169 1144 l 360 969 l 490 969 l 490 971 z "},"Ú":{"ha":857,"x_min":92,"x_max":765,"o":"m 428 -18 q 174 69 256 -18 q 92 324 92 156 l 92 888 l 231 888 l 231 319 q 277 157 231 213 q 428 101 324 101 q 580 157 533 101 q 626 319 626 213 l 626 888 l 765 888 l 765 324 q 684 69 765 156 q 428 -18 602 -18 m 366 971 l 530 1147 l 686 1147 l 686 1144 l 495 969 l 366 969 l 366 971 z "},"Û":{"ha":857,"x_min":92,"x_max":765,"o":"m 428 -18 q 174 69 256 -18 q 92 324 92 156 l 92 888 l 231 888 l 231 319 q 277 157 231 213 q 428 101 324 101 q 580 157 533 101 q 626 319 626 213 l 626 888 l 765 888 l 765 324 q 684 69 765 156 q 428 -18 602 -18 m 206 972 l 357 1147 l 500 1147 l 651 972 l 651 969 l 536 969 l 431 1072 l 426 1072 l 321 969 l 206 969 l 206 972 z "},"Ü":{"ha":857,"x_min":92,"x_max":765,"o":"m 428 -18 q 174 69 256 -18 q 92 324 92 156 l 92 888 l 231 888 l 231 319 q 277 157 231 213 q 428 101 324 101 q 580 157 533 101 q 626 319 626 213 l 626 888 l 765 888 l 765 324 q 684 69 765 156 q 428 -18 602 -18 m 319 985 q 267 1005 285 985 q 250 1058 250 1024 l 250 1063 q 267 1117 250 1098 q 319 1135 285 1135 q 371 1117 354 1135 q 388 1063 388 1098 l 388 1058 q 371 1005 388 1024 q 319 985 354 985 m 538 985 q 486 1005 503 985 q 469 1058 469 1024 l 469 1063 q 486 1117 469 1098 q 538 1135 503 1135 q 590 1117 573 1135 q 607 1063 607 1098 l 607 1058 q 590 1005 607 1024 q 538 985 573 985 z "},"Ý":{"ha":772,"x_min":21,"x_max":751,"o":"m 447 258 l 326 258 l 21 888 l 168 888 l 319 565 l 382 418 l 391 418 l 453 565 l 604 888 l 751 888 l 447 258 m 455 0 l 318 0 l 318 388 l 455 388 l 455 0 m 324 971 l 488 1147 l 644 1147 l 644 1144 l 453 969 l 324 969 l 324 971 z "},"Þ":{"ha":788,"x_min":99,"x_max":733,"o":"m 439 145 l 190 145 l 190 260 l 435 260 q 557 302 519 260 q 594 417 594 343 l 594 477 q 557 593 594 553 q 437 633 519 633 l 190 633 l 190 748 l 440 748 q 663 677 592 748 q 733 481 733 607 l 733 413 q 663 216 733 287 q 439 145 592 145 m 235 0 l 99 0 l 99 888 l 235 888 l 235 720 l 235 667 l 235 217 l 235 181 l 235 0 z "},"ß":{"ha":800,"x_min":86,"x_max":751,"o":"m 86 0 l 86 680 q 114 822 86 765 q 203 909 142 880 q 364 939 264 939 q 503 917 444 939 q 595 853 563 895 q 627 749 627 811 q 611 679 627 709 q 573 624 596 649 q 526 579 549 600 q 487 537 503 558 q 472 491 472 516 l 472 488 q 496 435 472 454 q 581 392 521 415 q 676 347 639 371 q 732 288 714 324 q 751 197 751 253 l 751 186 q 721 76 751 120 q 637 9 692 31 q 507 -13 583 -13 q 414 -4 455 -13 q 342 17 374 5 l 331 139 q 410 111 369 122 q 494 101 450 101 q 587 123 556 101 q 617 188 617 146 l 617 195 q 607 241 617 222 q 571 274 597 259 q 500 307 545 290 q 407 352 443 330 q 354 404 371 374 q 338 479 338 434 l 338 483 q 353 552 338 522 q 392 607 369 583 q 438 654 415 632 q 476 698 460 676 q 492 746 492 720 q 478 790 492 771 q 435 820 464 809 q 363 831 407 831 q 278 813 309 831 q 233 760 247 794 q 220 675 220 725 l 220 0 l 86 0 z "},"à":{"ha":696,"x_min":48,"x_max":621,"o":"m 621 0 l 485 0 l 491 161 l 486 182 l 486 396 l 487 430 q 447 545 487 508 q 319 582 407 582 q 186 562 247 582 q 76 515 125 542 l 88 629 q 153 660 116 645 q 238 685 191 676 q 342 695 285 695 q 472 677 419 695 q 558 624 526 658 q 606 540 591 589 q 621 432 621 492 l 621 0 m 256 -15 q 101 34 155 -15 q 48 176 48 84 l 48 197 q 108 341 48 294 q 297 406 168 388 l 501 435 l 509 336 l 313 308 q 213 275 243 299 q 183 204 183 251 l 183 194 q 212 123 183 148 q 300 98 241 98 q 393 116 354 98 q 456 164 432 134 q 490 231 481 194 l 508 140 l 483 140 q 447 63 472 99 q 375 6 421 28 q 256 -15 328 -15 m 402 761 l 271 950 l 121 950 l 121 948 l 283 759 l 402 759 l 402 761 z "},"á":{"ha":696,"x_min":48,"x_max":621,"o":"m 621 0 l 485 0 l 491 161 l 486 182 l 486 396 l 487 430 q 447 545 487 508 q 319 582 407 582 q 186 562 247 582 q 76 515 125 542 l 88 629 q 153 660 116 645 q 238 685 191 676 q 342 695 285 695 q 472 677 419 695 q 558 624 526 658 q 606 540 591 589 q 621 432 621 492 l 621 0 m 256 -15 q 101 34 155 -15 q 48 176 48 84 l 48 197 q 108 341 48 294 q 297 406 168 388 l 501 435 l 509 336 l 313 308 q 213 275 243 299 q 183 204 183 251 l 183 194 q 212 123 183 148 q 300 98 241 98 q 393 116 354 98 q 456 164 432 134 q 490 231 481 194 l 508 140 l 483 140 q 447 63 472 99 q 375 6 421 28 q 256 -15 328 -15 m 284 761 l 415 950 l 565 950 l 565 948 l 403 759 l 284 759 l 284 761 z "},"â":{"ha":696,"x_min":48,"x_max":621,"o":"m 621 0 l 485 0 l 491 161 l 486 182 l 486 396 l 487 430 q 447 545 487 508 q 319 582 407 582 q 186 562 247 582 q 76 515 125 542 l 88 629 q 153 660 116 645 q 238 685 191 676 q 342 695 285 695 q 472 677 419 695 q 558 624 526 658 q 606 540 591 589 q 621 432 621 492 l 621 0 m 256 -15 q 101 34 155 -15 q 48 176 48 84 l 48 197 q 108 341 48 294 q 297 406 168 388 l 501 435 l 509 336 l 313 308 q 213 275 243 299 q 183 204 183 251 l 183 194 q 212 123 183 148 q 300 98 241 98 q 393 116 354 98 q 456 164 432 134 q 490 231 481 194 l 508 140 l 483 140 q 447 63 472 99 q 375 6 421 28 q 256 -15 328 -15 m 140 761 l 270 950 l 416 950 l 546 761 l 546 759 l 439 759 l 346 876 l 340 876 l 247 759 l 140 759 l 140 761 z "},"ã":{"ha":696,"x_min":48,"x_max":621,"o":"m 621 0 l 485 0 l 491 161 l 486 182 l 486 396 l 487 430 q 447 545 487 508 q 319 582 407 582 q 186 562 247 582 q 76 515 125 542 l 88 629 q 153 660 116 645 q 238 685 191 676 q 342 695 285 695 q 472 677 419 695 q 558 624 526 658 q 606 540 591 589 q 621 432 621 492 l 621 0 m 256 -15 q 101 34 155 -15 q 48 176 48 84 l 48 197 q 108 341 48 294 q 297 406 168 388 l 501 435 l 509 336 l 313 308 q 213 275 243 299 q 183 204 183 251 l 183 194 q 212 123 183 148 q 300 98 241 98 q 393 116 354 98 q 456 164 432 134 q 490 231 481 194 l 508 140 l 483 140 q 447 63 472 99 q 375 6 421 28 q 256 -15 328 -15 m 434 776 q 385 783 409 776 q 340 800 362 790 q 299 818 318 810 q 263 825 279 825 q 236 813 244 825 q 228 778 228 801 l 228 768 l 142 768 l 142 792 q 167 887 142 852 q 251 922 192 922 q 300 914 276 922 q 345 897 324 906 q 386 879 367 887 q 422 872 405 872 q 449 884 441 872 q 456 919 456 896 l 456 929 l 542 929 l 542 905 q 517 810 542 844 q 434 776 492 776 z "},"ä":{"ha":696,"x_min":48,"x_max":621,"o":"m 621 0 l 485 0 l 491 161 l 486 182 l 486 396 l 487 430 q 447 545 487 508 q 319 582 407 582 q 186 562 247 582 q 76 515 125 542 l 88 629 q 153 660 116 645 q 238 685 191 676 q 342 695 285 695 q 472 677 419 695 q 558 624 526 658 q 606 540 591 589 q 621 432 621 492 l 621 0 m 256 -15 q 101 34 155 -15 q 48 176 48 84 l 48 197 q 108 341 48 294 q 297 406 168 388 l 501 435 l 509 336 l 313 308 q 213 275 243 299 q 183 204 183 251 l 183 194 q 212 123 183 148 q 300 98 241 98 q 393 116 354 98 q 456 164 432 134 q 490 231 481 194 l 508 140 l 483 140 q 447 63 472 99 q 375 6 421 28 q 256 -15 328 -15 m 233 779 q 182 798 199 779 q 165 852 165 817 l 165 857 q 182 910 165 892 q 233 929 199 929 q 286 910 269 929 q 303 857 303 892 l 303 852 q 286 798 303 817 q 233 779 269 779 m 453 779 q 401 798 418 779 q 384 852 384 817 l 384 857 q 401 910 384 892 q 453 929 418 929 q 505 910 488 929 q 522 857 522 892 l 522 852 q 505 798 522 817 q 453 779 488 779 z "},"å":{"ha":696,"x_min":48,"x_max":621,"o":"m 621 0 l 485 0 l 491 161 l 486 182 l 486 396 l 487 430 q 447 545 487 508 q 319 582 407 582 q 186 562 247 582 q 76 515 125 542 l 88 629 q 153 660 116 645 q 238 685 191 676 q 342 695 285 695 q 472 677 419 695 q 558 624 526 658 q 606 540 591 589 q 621 432 621 492 l 621 0 m 256 -15 q 101 34 155 -15 q 48 176 48 84 l 48 197 q 108 341 48 294 q 297 406 168 388 l 501 435 l 509 336 l 313 308 q 213 275 243 299 q 183 204 183 251 l 183 194 q 212 123 183 148 q 300 98 241 98 q 393 116 354 98 q 456 164 432 134 q 490 231 481 194 l 508 140 l 483 140 q 447 63 472 99 q 375 6 421 28 q 256 -15 328 -15 m 205 865 l 205 868 q 239 953 205 922 q 343 985 274 985 q 446 953 412 985 q 481 868 481 922 l 481 865 q 446 781 481 813 q 343 749 412 749 q 239 781 274 749 q 205 865 205 813 m 285 868 l 285 866 q 300 828 285 842 q 343 815 315 815 q 386 828 372 815 q 401 866 401 842 l 401 868 q 386 906 401 892 q 343 919 372 919 q 300 906 315 919 q 285 868 285 892 z "},"æ":{"ha":1129,"x_min":48,"x_max":1075,"o":"m 810 -16 q 603 36 680 -16 q 504 181 527 88 l 490 208 q 486 285 488 247 q 486 367 485 324 l 487 430 q 444 545 487 508 q 319 582 401 582 q 185 562 247 582 q 76 515 124 542 l 88 629 q 150 660 115 645 q 230 685 185 676 q 328 695 275 695 q 478 654 425 695 q 549 544 532 613 l 553 544 q 636 655 575 612 q 799 697 698 697 q 952 661 890 697 q 1044 560 1013 626 q 1075 406 1075 495 l 1075 380 q 1073 332 1075 356 q 1067 285 1071 308 l 942 285 q 944 353 944 322 q 944 412 944 384 q 926 507 944 468 q 873 566 908 546 q 783 587 837 587 q 661 539 701 587 q 622 409 622 492 l 622 344 l 622 328 l 622 276 q 633 203 622 236 q 670 148 644 171 q 735 111 695 124 q 833 99 776 99 q 956 115 899 99 q 1064 160 1013 132 l 1051 44 q 945 0 1006 17 q 810 -16 884 -16 m 263 -15 q 102 35 156 -15 q 48 176 48 85 l 48 197 q 109 341 48 294 q 297 406 169 388 l 501 435 l 509 336 l 313 308 q 213 275 243 299 q 183 204 183 251 l 183 194 q 212 123 183 148 q 300 98 241 98 q 394 115 355 98 q 458 163 433 133 q 493 230 483 193 l 535 143 l 512 143 q 467 63 497 99 q 387 6 437 27 q 263 -15 338 -15 m 1040 285 l 558 285 l 558 388 l 1040 388 l 1040 285 z "},"ç":{"ha":606,"x_min":60,"x_max":565,"o":"m 358 -16 q 133 64 206 -16 q 60 291 60 144 l 60 389 q 133 616 60 536 q 358 696 207 696 q 434 688 399 696 q 498 668 469 681 q 547 643 526 656 l 558 526 q 481 566 525 550 q 379 583 438 583 q 241 532 286 583 q 197 386 197 482 l 197 294 q 241 150 197 201 q 379 99 286 99 q 483 116 438 99 q 565 156 528 132 l 553 38 q 471 1 521 17 q 358 -16 422 -16 m 296 15 l 388 15 l 373 -94 l 316 -56 q 340 -55 328 -55 q 363 -55 351 -54 q 466 -83 433 -58 q 500 -158 500 -109 l 500 -162 q 460 -243 500 -217 q 347 -269 421 -269 q 291 -265 318 -269 q 244 -256 265 -260 l 229 -172 q 276 -183 251 -179 q 329 -187 301 -187 q 381 -178 363 -187 q 399 -152 399 -169 l 399 -151 q 376 -121 399 -130 q 293 -109 352 -112 q 283 -108 286 -108 q 281 -108 281 -108 l 296 15 z "},"è":{"ha":703,"x_min":60,"x_max":649,"o":"m 384 -16 q 141 61 222 -16 q 60 285 60 139 l 60 396 q 135 618 60 540 q 355 697 210 697 q 518 661 453 697 q 616 560 583 626 q 649 406 649 495 l 649 380 q 647 332 649 356 q 641 285 644 308 l 516 285 q 518 353 517 322 q 518 412 518 385 q 500 507 518 468 q 446 566 482 546 q 355 587 410 587 q 234 541 274 587 q 194 409 194 494 l 194 345 l 195 329 l 195 269 q 207 199 195 231 q 243 145 218 168 q 309 111 269 123 q 407 99 349 99 q 530 115 472 99 q 638 160 587 132 l 625 44 q 518 0 579 17 q 384 -16 458 -16 m 613 285 l 132 285 l 132 388 l 613 388 l 613 285 m 417 761 l 286 950 l 136 950 l 136 948 l 298 759 l 417 759 l 417 761 z "},"é":{"ha":703,"x_min":60,"x_max":649,"o":"m 384 -16 q 141 61 222 -16 q 60 285 60 139 l 60 396 q 135 618 60 540 q 355 697 210 697 q 518 661 453 697 q 616 560 583 626 q 649 406 649 495 l 649 380 q 647 332 649 356 q 641 285 644 308 l 516 285 q 518 353 517 322 q 518 412 518 385 q 500 507 518 468 q 446 566 482 546 q 355 587 410 587 q 234 541 274 587 q 194 409 194 494 l 194 345 l 195 329 l 195 269 q 207 199 195 231 q 243 145 218 168 q 309 111 269 123 q 407 99 349 99 q 530 115 472 99 q 638 160 587 132 l 625 44 q 518 0 579 17 q 384 -16 458 -16 m 613 285 l 132 285 l 132 388 l 613 388 l 613 285 m 299 761 l 431 950 l 581 950 l 581 948 l 419 759 l 299 759 l 299 761 z "},"ê":{"ha":703,"x_min":60,"x_max":649,"o":"m 384 -16 q 141 61 222 -16 q 60 285 60 139 l 60 396 q 135 618 60 540 q 355 697 210 697 q 518 661 453 697 q 616 560 583 626 q 649 406 649 495 l 649 380 q 647 332 649 356 q 641 285 644 308 l 516 285 q 518 353 517 322 q 518 412 518 385 q 500 507 518 468 q 446 566 482 546 q 355 587 410 587 q 234 541 274 587 q 194 409 194 494 l 194 345 l 195 329 l 195 269 q 207 199 195 231 q 243 145 218 168 q 309 111 269 123 q 407 99 349 99 q 530 115 472 99 q 638 160 587 132 l 625 44 q 518 0 579 17 q 384 -16 458 -16 m 613 285 l 132 285 l 132 388 l 613 388 l 613 285 m 156 761 l 285 950 l 431 950 l 561 761 l 561 759 l 454 759 l 361 876 l 356 876 l 263 759 l 156 759 l 156 761 z "},"ë":{"ha":703,"x_min":60,"x_max":649,"o":"m 384 -16 q 141 61 222 -16 q 60 285 60 139 l 60 396 q 135 618 60 540 q 355 697 210 697 q 518 661 453 697 q 616 560 583 626 q 649 406 649 495 l 649 380 q 647 332 649 356 q 641 285 644 308 l 516 285 q 518 353 517 322 q 518 412 518 385 q 500 507 518 468 q 446 566 482 546 q 355 587 410 587 q 234 541 274 587 q 194 409 194 494 l 194 345 l 195 329 l 195 269 q 207 199 195 231 q 243 145 218 168 q 309 111 269 123 q 407 99 349 99 q 530 115 472 99 q 638 160 587 132 l 625 44 q 518 0 579 17 q 384 -16 458 -16 m 613 285 l 132 285 l 132 388 l 613 388 l 613 285 m 249 779 q 197 798 215 779 q 180 852 180 817 l 180 857 q 197 910 180 892 q 249 929 215 929 q 301 910 284 929 q 318 857 318 892 l 318 852 q 301 798 318 817 q 249 779 284 779 m 468 779 q 416 798 433 779 q 399 852 399 817 l 399 857 q 416 910 399 892 q 468 929 433 929 q 520 910 503 929 q 537 857 537 892 l 537 852 q 520 798 537 817 q 468 779 503 779 z "},"ì":{"ha":312,"x_min":-2,"x_max":224,"o":"m 224 0 l 88 0 l 88 679 l 224 679 l 224 0 m 210 760 l 137 950 l -2 950 l -2 949 l 99 759 l 210 759 l 210 760 z "},"í":{"ha":312,"x_min":88,"x_max":315,"o":"m 224 0 l 88 0 l 88 679 l 224 679 l 224 0 m 102 760 l 176 950 l 315 950 l 315 949 l 214 759 l 102 759 l 102 760 z "},"î":{"ha":312,"x_min":-19,"x_max":331,"o":"m 224 0 l 88 0 l 88 679 l 224 679 l 224 0 m -19 760 l 85 950 l 227 950 l 331 760 l 331 759 l 229 759 l 158 874 l 153 874 l 83 759 l -19 759 l -19 760 z "},"ï":{"ha":312,"x_min":-2,"x_max":315,"o":"m 224 0 l 88 0 l 88 679 l 224 679 l 224 0 m 63 779 q 14 798 31 779 q -2 851 -2 817 l -2 857 q 14 910 -2 892 q 63 929 31 929 q 113 910 96 929 q 129 857 129 892 l 129 851 q 113 798 129 817 q 63 779 96 779 m 250 779 q 200 798 217 779 q 184 851 184 817 l 184 857 q 200 910 184 892 q 250 929 217 929 q 299 910 283 929 q 315 857 315 892 l 315 851 q 299 798 315 817 q 250 779 283 779 z "},"ð":{"ha":730,"x_min":60,"x_max":670,"o":"m 365 -17 q 138 63 215 -17 q 60 292 60 142 l 60 335 q 131 556 60 476 q 323 635 202 635 q 408 623 372 635 q 468 587 444 610 q 509 531 493 564 l 544 541 l 534 338 q 523 419 534 383 q 490 478 512 454 q 437 515 469 502 q 363 527 405 527 q 239 478 281 527 q 197 338 197 429 l 197 284 q 240 142 197 192 q 365 93 283 93 q 491 142 448 93 q 534 284 534 192 q 534 324 534 306 q 534 369 534 343 q 533 425 533 403 q 533 478 533 447 q 498 580 525 531 q 423 680 470 628 q 310 790 376 731 q 160 919 244 848 l 160 919 l 331 919 q 472 787 409 849 q 579 661 535 724 q 647 525 623 597 q 670 363 670 453 l 670 292 q 593 63 670 142 q 365 -17 515 -17 m 633 802 l 138 683 l 138 770 l 633 890 l 633 802 z "},"ñ":{"ha":750,"x_min":86,"x_max":672,"o":"m 672 0 l 536 0 l 536 419 q 523 505 536 469 q 478 561 509 541 q 394 581 447 581 q 308 563 344 581 q 250 515 272 545 q 217 445 227 484 l 195 540 l 224 540 q 263 618 236 583 q 335 674 290 653 q 447 694 381 694 q 576 664 527 694 q 649 576 626 634 q 672 435 672 519 l 672 0 m 222 0 l 86 0 l 86 679 l 222 679 l 217 520 l 222 512 l 222 0 m 467 776 q 418 783 442 776 q 373 800 394 790 q 331 818 351 810 q 295 825 312 825 q 268 813 276 825 q 260 778 260 801 l 260 768 l 175 768 l 175 792 q 200 887 175 852 q 283 922 224 922 q 333 914 309 922 q 378 897 356 906 q 418 879 399 887 q 454 872 438 872 q 481 884 474 872 q 489 919 489 896 l 489 929 l 574 929 l 574 905 q 550 810 574 844 q 467 776 525 776 z "},"ò":{"ha":730,"x_min":60,"x_max":670,"o":"m 365 -17 q 138 63 215 -17 q 60 292 60 142 l 60 389 q 138 618 60 538 q 365 697 215 697 q 593 618 515 697 q 670 389 670 538 l 670 292 q 593 63 670 142 q 365 -17 515 -17 m 365 93 q 491 142 448 93 q 534 284 534 192 l 534 397 q 491 538 534 489 q 365 587 448 587 q 240 538 283 587 q 197 397 197 489 l 197 284 q 240 142 197 192 q 365 93 283 93 m 424 761 l 293 950 l 143 950 l 143 948 l 305 759 l 424 759 l 424 761 z "},"ó":{"ha":730,"x_min":60,"x_max":670,"o":"m 365 -17 q 138 63 215 -17 q 60 292 60 142 l 60 389 q 138 618 60 538 q 365 697 215 697 q 593 618 515 697 q 670 389 670 538 l 670 292 q 593 63 670 142 q 365 -17 515 -17 m 365 93 q 491 142 448 93 q 534 284 534 192 l 534 397 q 491 538 534 489 q 365 587 448 587 q 240 538 283 587 q 197 397 197 489 l 197 284 q 240 142 197 192 q 365 93 283 93 m 306 761 l 438 950 l 588 950 l 588 948 l 426 759 l 306 759 l 306 761 z "},"ô":{"ha":730,"x_min":60,"x_max":670,"o":"m 365 -17 q 138 63 215 -17 q 60 292 60 142 l 60 389 q 138 618 60 538 q 365 697 215 697 q 593 618 515 697 q 670 389 670 538 l 670 292 q 593 63 670 142 q 365 -17 515 -17 m 365 93 q 491 142 448 93 q 534 284 534 192 l 534 397 q 491 538 534 489 q 365 587 448 587 q 240 538 283 587 q 197 397 197 489 l 197 284 q 240 142 197 192 q 365 93 283 93 m 163 761 l 292 950 l 438 950 l 568 761 l 568 759 l 461 759 l 368 876 l 363 876 l 269 759 l 163 759 l 163 761 z "},"õ":{"ha":730,"x_min":60,"x_max":670,"o":"m 365 -17 q 138 63 215 -17 q 60 292 60 142 l 60 389 q 138 618 60 538 q 365 697 215 697 q 593 618 515 697 q 670 389 670 538 l 670 292 q 593 63 670 142 q 365 -17 515 -17 m 365 93 q 491 142 448 93 q 534 284 534 192 l 534 397 q 491 538 534 489 q 365 587 448 587 q 240 538 283 587 q 197 397 197 489 l 197 284 q 240 142 197 192 q 365 93 283 93 m 456 776 q 408 783 431 776 q 362 800 384 790 q 321 818 340 810 q 285 825 301 825 q 258 813 266 825 q 250 778 250 801 l 250 768 l 165 768 l 165 792 q 189 887 165 852 q 273 922 214 922 q 322 914 299 922 q 367 897 346 906 q 408 879 389 887 q 444 872 427 872 q 471 884 463 872 q 478 919 478 896 l 478 929 l 564 929 l 564 905 q 539 810 564 844 q 456 776 515 776 z "},"ö":{"ha":730,"x_min":60,"x_max":670,"o":"m 365 -17 q 138 63 215 -17 q 60 292 60 142 l 60 389 q 138 618 60 538 q 365 697 215 697 q 593 618 515 697 q 670 389 670 538 l 670 292 q 593 63 670 142 q 365 -17 515 -17 m 365 93 q 491 142 448 93 q 534 284 534 192 l 534 397 q 491 538 534 489 q 365 587 448 587 q 240 538 283 587 q 197 397 197 489 l 197 284 q 240 142 197 192 q 365 93 283 93 m 256 779 q 204 798 222 779 q 187 852 187 817 l 187 857 q 204 910 187 892 q 256 929 222 929 q 308 910 291 929 q 325 857 325 892 l 325 852 q 308 798 325 817 q 256 779 291 779 m 475 779 q 423 798 440 779 q 406 852 406 817 l 406 857 q 423 910 406 892 q 475 929 440 929 q 527 910 510 929 q 544 857 544 892 l 544 852 q 527 798 544 817 q 475 779 510 779 z "},"ø":{"ha":730,"x_min":60,"x_max":670,"o":"m 365 -17 q 197 18 265 -17 q 94 124 129 54 q 60 292 60 193 l 60 389 q 138 618 60 538 q 365 697 215 697 q 533 662 465 697 q 636 558 601 626 q 670 389 670 489 l 670 292 q 593 63 670 142 q 365 -17 515 -17 m 188 -48 l 71 -48 l 161 91 l 191 131 l 476 617 l 494 647 l 543 727 l 659 727 l 574 600 l 544 558 l 263 75 l 243 41 l 188 -48 m 365 93 q 491 142 448 93 q 534 284 534 192 l 534 397 q 491 538 534 489 q 365 587 448 587 q 240 538 283 587 q 197 397 197 489 l 197 284 q 240 142 197 192 q 365 93 283 93 z "},"ù":{"ha":750,"x_min":78,"x_max":664,"o":"m 78 679 l 214 679 l 214 260 q 227 175 214 211 q 272 118 241 138 q 356 98 303 98 q 442 116 406 98 q 501 165 478 134 q 533 234 524 196 l 555 140 l 526 140 q 487 62 514 97 q 415 6 460 26 q 303 -15 369 -15 q 174 15 224 -15 q 101 103 124 45 q 78 244 78 161 l 78 679 m 528 679 l 664 679 l 664 0 l 528 0 l 533 159 l 528 167 l 528 679 m 435 761 l 303 950 l 153 950 l 153 948 l 315 759 l 435 759 l 435 761 z "},"ú":{"ha":750,"x_min":78,"x_max":664,"o":"m 78 679 l 214 679 l 214 260 q 227 175 214 211 q 272 118 241 138 q 356 98 303 98 q 442 116 406 98 q 501 165 478 134 q 533 234 524 196 l 555 140 l 526 140 q 487 62 514 97 q 415 6 460 26 q 303 -15 369 -15 q 174 15 224 -15 q 101 103 124 45 q 78 244 78 161 l 78 679 m 528 679 l 664 679 l 664 0 l 528 0 l 533 159 l 528 167 l 528 679 m 317 761 l 448 950 l 598 950 l 598 948 l 436 759 l 317 759 l 317 761 z "},"û":{"ha":750,"x_min":78,"x_max":664,"o":"m 78 679 l 214 679 l 214 260 q 227 175 214 211 q 272 118 241 138 q 356 98 303 98 q 442 116 406 98 q 501 165 478 134 q 533 234 524 196 l 555 140 l 526 140 q 487 62 514 97 q 415 6 460 26 q 303 -15 369 -15 q 174 15 224 -15 q 101 103 124 45 q 78 244 78 161 l 78 679 m 528 679 l 664 679 l 664 0 l 528 0 l 533 159 l 528 167 l 528 679 m 173 761 l 303 950 l 449 950 l 578 761 l 578 759 l 472 759 l 378 876 l 373 876 l 280 759 l 173 759 l 173 761 z "},"ü":{"ha":750,"x_min":78,"x_max":664,"o":"m 78 679 l 214 679 l 214 260 q 227 175 214 211 q 272 118 241 138 q 356 98 303 98 q 442 116 406 98 q 501 165 478 134 q 533 234 524 196 l 555 140 l 526 140 q 487 62 514 97 q 415 6 460 26 q 303 -15 369 -15 q 174 15 224 -15 q 101 103 124 45 q 78 244 78 161 l 78 679 m 528 679 l 664 679 l 664 0 l 528 0 l 533 159 l 528 167 l 528 679 m 266 779 q 215 798 232 779 q 197 852 197 817 l 197 857 q 215 910 197 892 q 266 929 232 929 q 318 910 301 929 q 335 857 335 892 l 335 852 q 318 798 335 817 q 266 779 301 779 m 485 779 q 434 798 451 779 q 417 852 417 817 l 417 857 q 434 910 417 892 q 485 929 451 929 q 537 910 520 929 q 554 857 554 892 l 554 852 q 537 798 554 817 q 485 779 520 779 z "},"ý":{"ha":696,"x_min":26,"x_max":670,"o":"m 336 120 l 412 120 l 340 89 l 531 679 l 670 679 l 361 -239 l 224 -239 l 331 80 l 392 28 l 239 28 l 26 679 l 167 679 l 336 120 m 290 761 l 421 950 l 571 950 l 571 948 l 409 759 l 290 759 l 290 761 z "},"þ":{"ha":754,"x_min":86,"x_max":694,"o":"m 440 -15 q 336 4 379 -15 q 265 58 292 23 q 226 140 238 93 l 181 140 l 219 268 q 243 173 221 211 q 305 117 265 135 q 395 98 344 98 q 515 143 474 98 q 557 277 557 189 l 557 407 q 516 539 557 494 q 395 584 474 584 q 311 566 348 584 q 250 517 274 548 q 217 447 226 486 l 185 540 l 226 540 q 263 618 238 583 q 333 674 288 653 q 445 694 377 694 q 630 618 567 694 q 694 395 694 542 l 694 288 q 630 62 694 140 q 440 -15 566 -15 m 222 -239 l 86 -239 l 86 919 l 222 919 l 222 679 l 218 520 l 219 476 l 219 197 l 218 169 l 222 -24 l 222 -239 z "},"ÿ":{"ha":696,"x_min":26,"x_max":670,"o":"m 336 120 l 412 120 l 340 89 l 531 679 l 670 679 l 361 -239 l 224 -239 l 331 80 l 392 28 l 239 28 l 26 679 l 167 679 l 336 120 m 239 779 q 188 798 205 779 q 170 852 170 817 l 170 857 q 188 910 170 892 q 239 929 205 929 q 291 910 274 929 q 308 857 308 892 l 308 852 q 291 798 308 817 q 239 779 274 779 m 458 779 q 407 798 424 779 q 390 852 390 817 l 390 857 q 407 910 390 892 q 458 929 424 929 q 510 910 493 929 q 527 857 527 892 l 527 852 q 510 798 527 817 q 458 779 493 779 z "},"¬":{"ha":707,"x_min":69,"x_max":628,"o":"m 628 444 l 628 138 l 513 138 l 513 444 l 628 444 m 628 377 l 69 377 l 69 486 l 628 486 l 628 377 z "},"¯":{"ha":540,"x_min":73,"x_max":467,"o":"m 467 797 l 73 797 l 73 889 l 467 889 l 467 797 z "},"˚":{"ha":415,"x_min":69,"x_max":345,"o":"m 69 865 l 69 868 q 104 953 69 922 q 208 985 138 985 q 311 953 276 985 q 345 868 345 922 l 345 865 q 311 781 345 813 q 208 749 276 749 q 104 781 138 749 q 69 865 69 813 m 149 868 l 149 866 q 164 828 149 842 q 208 815 179 815 q 251 828 236 815 q 265 866 265 842 l 265 868 q 251 906 265 892 q 208 919 236 919 q 164 906 179 919 q 149 868 149 892 z "},"·":{"ha":269,"x_min":58,"x_max":210,"o":"m 134 292 q 77 311 96 292 q 58 366 58 331 l 58 370 q 77 425 58 405 q 134 445 96 445 q 192 425 173 445 q 210 370 210 405 l 210 366 q 192 311 210 331 q 134 292 173 292 z "},"ﬁ":{"ha":832,"x_min":12,"x_max":756,"o":"m 317 939 q 413 930 370 939 q 490 907 456 921 l 503 801 q 437 819 471 813 q 362 826 403 826 q 283 814 313 826 q 241 779 253 801 q 228 725 228 756 l 228 722 q 234 680 228 700 q 248 644 240 660 l 158 641 l 158 657 q 114 702 132 673 q 96 774 96 732 l 96 777 q 150 894 96 850 q 317 939 204 939 m 254 0 l 119 0 l 119 612 l 254 612 l 254 0 m 489 543 l 12 543 l 12 651 l 171 651 l 226 651 l 501 651 l 489 543 m 744 0 l 608 0 l 608 679 l 744 679 l 744 0 m 676 779 q 616 800 635 779 q 596 856 596 820 l 596 859 q 616 916 596 895 q 676 936 635 936 q 736 916 716 936 q 756 859 756 895 l 756 856 q 736 799 756 819 q 676 779 716 779 z "},"ﬂ":{"ha":835,"x_min":12,"x_max":746,"o":"m 317 939 q 413 930 370 939 q 490 907 456 921 l 503 801 q 437 819 471 813 q 362 826 403 826 q 283 814 313 826 q 241 779 253 801 q 228 725 228 756 l 228 722 q 234 680 228 700 q 248 644 240 660 l 158 641 l 158 657 q 114 702 132 673 q 96 774 96 732 l 96 777 q 150 894 96 850 q 317 939 204 939 m 254 0 l 119 0 l 119 612 l 254 612 l 254 0 m 489 543 l 12 543 l 12 651 l 171 651 l 226 651 l 501 651 l 489 543 m 746 0 l 610 0 l 610 919 l 746 919 l 746 0 z "},"⁄":{"ha":294,"x_min":-203,"x_max":506,"o":"m -94 0 l -203 0 l 397 888 l 506 888 l -94 0 z "},"¹":{"ha":298,"x_min":19,"x_max":243,"o":"m 243 504 l 144 504 l 144 873 l 139 873 l 19 807 l 22 903 l 149 975 l 243 975 l 243 504 z "},"²":{"ha":412,"x_min":26,"x_max":383,"o":"m 383 504 l 26 504 l 26 590 l 167 701 q 222 748 199 726 q 259 791 246 769 q 272 834 272 812 l 272 839 q 251 884 272 868 q 181 900 230 900 q 100 889 136 900 q 31 864 63 878 l 40 950 q 110 975 67 965 q 197 985 152 985 q 331 950 285 985 q 376 850 376 914 l 376 842 q 361 775 376 805 q 318 716 346 744 q 249 657 290 688 l 165 594 l 165 573 l 120 589 l 383 589 l 383 504 z "},"³":{"ha":428,"x_min":28,"x_max":393,"o":"m 194 493 q 103 503 145 493 q 37 523 61 513 l 28 610 q 97 587 57 597 q 180 577 136 577 q 266 595 244 577 q 288 642 288 614 l 288 645 q 283 670 288 659 q 266 689 278 681 q 236 701 255 697 q 188 706 217 705 l 97 708 l 97 781 l 188 783 q 264 799 241 785 q 286 842 286 814 l 286 846 q 265 888 286 873 q 186 903 244 903 q 99 892 138 903 q 31 869 59 881 l 40 950 q 107 974 67 964 q 200 985 148 985 q 342 952 295 985 q 390 859 390 920 l 390 854 q 367 787 390 813 q 299 753 345 761 l 299 742 l 295 750 q 369 714 345 741 q 393 639 393 687 l 393 633 q 372 561 393 592 q 307 511 351 529 q 194 493 263 493 z "},"¼":{"ha":970,"x_min":19,"x_max":958,"o":"m 243 417 l 144 417 l 144 785 l 139 785 l 19 719 l 22 815 l 149 888 l 243 888 l 243 417 m 204 0 l 94 0 l 695 888 l 803 888 l 204 0 m 894 0 l 799 0 l 799 283 l 803 402 l 793 402 l 639 165 l 639 131 l 592 159 l 958 159 l 958 78 l 536 78 l 536 167 l 739 471 l 894 471 l 894 0 z "},"½":{"ha":1014,"x_min":19,"x_max":985,"o":"m 243 417 l 144 417 l 144 785 l 139 785 l 19 719 l 22 815 l 149 888 l 243 888 l 243 417 m 204 0 l 94 0 l 695 888 l 803 888 l 204 0 m 985 0 l 628 0 l 628 86 l 769 197 q 824 243 801 222 q 861 286 848 265 q 874 330 874 308 l 874 335 q 853 380 874 364 q 783 396 832 396 q 702 385 738 396 q 633 360 665 374 l 642 446 q 712 471 669 460 q 799 481 754 481 q 933 445 887 481 q 978 346 978 410 l 978 338 q 963 270 978 301 q 920 212 948 240 q 851 153 892 184 l 767 90 l 767 69 l 722 85 l 985 85 l 985 0 z "},"¾":{"ha":1097,"x_min":28,"x_max":1085,"o":"m 194 406 q 103 415 145 406 q 37 435 61 425 l 28 522 q 97 500 57 510 q 180 490 136 490 q 266 508 244 490 q 288 554 288 526 l 288 558 q 283 583 288 572 q 266 601 278 594 q 236 613 255 609 q 188 618 217 617 l 97 620 l 97 694 l 188 696 q 264 712 241 697 q 286 754 286 726 l 286 758 q 265 800 286 785 q 186 815 244 815 q 99 805 138 815 q 31 782 59 794 l 40 863 q 107 887 67 876 q 200 897 148 897 q 342 865 295 897 q 390 772 390 833 l 390 767 q 367 700 390 726 q 299 666 345 674 l 299 655 l 295 663 q 369 626 345 653 q 393 551 393 599 l 393 545 q 372 473 393 505 q 307 424 351 442 q 194 406 263 406 m 331 0 l 222 0 l 822 888 l 931 888 l 331 0 m 1021 0 l 926 0 l 926 283 l 930 402 l 920 402 l 766 165 l 766 131 l 719 159 l 1085 159 l 1085 78 l 663 78 l 663 167 l 866 471 l 1021 471 l 1021 0 z "},"ẞ":{"ha":881,"x_min":92,"x_max":822,"o":"m 228 561 l 228 0 l 92 0 l 92 564 q 172 806 92 724 q 417 888 251 888 l 788 888 l 788 781 l 522 461 l 453 490 q 518 505 482 500 q 578 509 553 509 q 761 451 701 509 q 822 280 822 393 l 822 235 q 752 49 822 113 q 538 -15 682 -15 q 425 -1 474 -15 q 349 26 376 13 l 336 154 q 420 120 373 134 q 524 106 468 106 q 645 141 607 106 q 683 244 683 176 l 683 276 q 644 378 683 345 q 513 412 605 412 q 456 409 483 412 q 403 402 430 407 l 403 501 l 653 808 l 676 776 l 434 776 q 278 723 328 776 q 228 561 228 669 z "},"ı":{"ha":312,"x_min":88,"x_max":224,"o":"m 224 0 l 88 0 l 88 679 l 224 679 l 224 0 z "},"₀":{"ha":494,"x_min":39,"x_max":456,"o":"m 247 -151 q 92 -97 144 -151 q 39 60 39 -42 l 39 130 q 91 287 39 232 q 247 342 144 342 q 403 287 350 342 q 456 130 456 232 l 456 60 q 403 -97 456 -42 q 247 -151 350 -151 m 247 -67 q 326 -35 300 -67 q 352 54 352 -3 l 352 136 q 326 225 352 194 q 247 257 300 257 q 167 223 192 257 q 142 136 142 190 l 142 54 q 168 -35 142 -3 q 247 -67 194 -67 z "},"₁":{"ha":298,"x_min":19,"x_max":243,"o":"m 243 -139 l 144 -139 l 144 230 l 139 230 l 19 164 l 22 260 l 149 332 l 243 332 l 243 -139 z "},"₂":{"ha":412,"x_min":26,"x_max":383,"o":"m 383 -139 l 26 -139 l 26 -53 l 167 58 q 222 105 199 83 q 259 148 246 126 q 272 191 272 169 l 272 196 q 251 241 272 225 q 181 257 230 257 q 100 246 136 257 q 31 221 63 235 l 40 307 q 110 332 67 322 q 197 342 152 342 q 331 307 285 342 q 376 207 376 271 l 376 199 q 361 132 376 162 q 318 73 346 101 q 249 14 290 45 l 165 -49 l 165 -70 l 120 -54 l 383 -54 l 383 -139 z "},"₃":{"ha":428,"x_min":28,"x_max":393,"o":"m 194 -150 q 103 -140 145 -150 q 37 -120 61 -131 l 28 -33 q 97 -56 57 -46 q 180 -66 136 -66 q 266 -48 244 -66 q 288 -1 288 -29 l 288 2 q 283 27 288 16 q 266 46 278 38 q 236 58 255 53 q 188 63 217 62 l 97 65 l 97 138 l 188 140 q 264 156 241 142 q 286 199 286 171 l 286 203 q 265 245 286 230 q 186 260 244 260 q 99 249 138 260 q 31 226 59 238 l 40 307 q 107 331 67 321 q 200 342 148 342 q 342 309 295 342 q 390 216 390 277 l 390 211 q 367 144 390 170 q 299 110 345 118 l 299 99 l 295 107 q 369 71 345 98 q 393 -4 393 44 l 393 -10 q 372 -82 393 -51 q 307 -132 351 -114 q 194 -150 263 -150 z "},"₄":{"ha":455,"x_min":21,"x_max":443,"o":"m 378 -139 l 284 -139 l 284 144 l 288 263 l 278 263 l 124 26 l 124 -8 l 77 20 l 443 20 l 443 -60 l 21 -60 l 21 28 l 224 332 l 378 332 l 378 -139 z "},"₅":{"ha":453,"x_min":45,"x_max":420,"o":"m 211 -150 q 118 -140 160 -150 q 54 -119 76 -129 l 45 -32 q 115 -56 74 -45 q 204 -66 156 -66 q 294 -44 270 -66 q 318 13 318 -23 l 318 20 q 300 72 318 53 q 238 91 283 91 q 180 78 206 91 q 136 44 154 65 l 48 57 l 48 332 l 401 332 l 401 250 l 142 250 l 142 167 l 140 105 l 144 105 q 196 150 163 135 q 277 166 229 166 q 385 127 349 166 q 420 22 420 89 l 420 9 q 398 -75 420 -40 q 330 -131 376 -111 q 211 -150 284 -150 z "},"₆":{"ha":471,"x_min":38,"x_max":438,"o":"m 246 -151 q 91 -97 144 -151 q 38 60 38 -42 l 38 131 q 93 286 38 230 q 258 342 148 342 q 339 333 303 342 q 402 314 376 325 l 412 231 q 353 250 385 242 q 278 258 322 258 q 198 242 229 258 q 153 197 167 226 q 139 128 139 168 l 139 45 q 166 -37 139 -7 q 247 -67 194 -67 q 316 -48 292 -67 q 339 8 339 -28 l 339 17 q 320 72 339 53 q 256 92 301 92 q 183 74 213 92 q 138 26 153 56 l 126 85 l 143 85 q 170 125 153 107 q 217 155 188 144 q 285 166 245 166 q 400 128 361 166 q 438 23 438 91 l 438 7 q 389 -110 438 -69 q 246 -151 339 -151 z "},"₇":{"ha":399,"x_min":22,"x_max":376,"o":"m 190 -139 l 80 -139 l 271 249 l 22 249 l 22 332 l 376 332 l 376 248 l 190 -139 z "},"₈":{"ha":478,"x_min":34,"x_max":444,"o":"m 239 -153 q 120 -136 165 -153 q 55 -89 75 -119 q 34 -16 34 -58 l 34 -11 q 45 44 34 21 q 77 83 56 67 q 128 106 98 99 l 128 110 q 79 130 99 116 q 50 163 59 143 q 40 206 40 183 l 40 213 q 89 307 40 273 q 239 342 137 342 q 390 308 342 342 q 438 213 438 274 l 438 206 q 416 144 438 168 q 350 110 393 119 l 350 106 q 422 67 399 97 q 444 -11 444 37 l 444 -16 q 425 -87 444 -56 q 361 -135 406 -118 q 239 -153 316 -153 m 240 -69 q 317 -52 294 -69 q 340 -3 340 -35 l 340 1 q 315 48 340 31 q 237 69 290 65 q 163 48 186 65 q 139 1 139 30 l 139 -4 q 163 -52 139 -35 q 240 -69 186 -69 m 241 135 q 311 156 288 139 q 335 199 335 172 l 335 201 q 312 245 335 230 q 239 261 290 261 q 166 245 188 261 q 144 201 144 229 l 144 199 q 168 156 144 172 q 241 135 191 139 z "},"₉":{"ha":470,"x_min":32,"x_max":433,"o":"m 226 342 q 380 287 327 342 q 433 130 433 233 l 433 60 q 407 -54 433 -6 q 332 -126 382 -101 q 206 -151 281 -151 q 127 -143 162 -151 q 66 -126 92 -135 l 55 -40 q 115 -60 83 -51 q 191 -68 147 -68 q 298 -33 265 -68 q 331 62 331 3 l 331 147 q 305 228 331 198 q 225 258 278 258 q 155 238 178 258 q 131 182 131 219 l 131 174 q 152 118 131 138 q 222 99 173 99 q 290 117 263 99 q 333 164 318 135 l 344 106 l 327 106 q 301 65 318 83 q 257 35 284 47 q 192 24 231 24 q 72 62 113 24 q 32 167 32 99 l 32 183 q 82 300 32 258 q 226 342 132 342 z "},"⁰":{"ha":494,"x_min":39,"x_max":456,"o":"m 247 492 q 92 546 144 492 q 39 703 39 601 l 39 773 q 91 930 39 875 q 247 985 144 985 q 403 930 350 985 q 456 773 456 875 l 456 703 q 403 546 456 601 q 247 492 350 492 m 247 576 q 326 608 300 576 q 352 697 352 640 l 352 779 q 326 868 352 837 q 247 900 300 900 q 167 866 192 900 q 142 779 142 833 l 142 697 q 168 608 142 640 q 247 576 194 576 z "},"⁴":{"ha":455,"x_min":21,"x_max":443,"o":"m 378 504 l 284 504 l 284 788 l 288 906 l 278 906 l 124 669 l 124 635 l 77 663 l 443 663 l 443 583 l 21 583 l 21 672 l 224 975 l 378 975 l 378 504 z "},"⁵":{"ha":453,"x_min":45,"x_max":420,"o":"m 211 493 q 118 503 160 493 q 54 524 76 514 l 45 611 q 115 588 74 598 q 204 577 156 577 q 294 599 270 577 q 318 656 318 620 l 318 663 q 300 715 318 696 q 238 734 283 734 q 180 721 206 734 q 136 687 154 708 l 48 700 l 48 975 l 401 975 l 401 893 l 142 893 l 142 810 l 140 748 l 144 748 q 196 793 163 778 q 277 809 229 809 q 385 770 349 809 q 420 665 420 732 l 420 652 q 398 568 420 603 q 330 513 376 532 q 211 493 284 493 z "},"⁶":{"ha":471,"x_min":38,"x_max":438,"o":"m 246 492 q 91 546 144 492 q 38 703 38 601 l 38 774 q 93 929 38 873 q 258 985 148 985 q 339 976 303 985 q 402 957 376 968 l 412 874 q 353 893 385 885 q 278 901 322 901 q 198 885 229 901 q 153 840 167 869 q 139 772 139 811 l 139 688 q 166 606 139 636 q 247 576 194 576 q 316 595 292 576 q 339 651 339 615 l 339 660 q 320 715 339 696 q 256 735 301 735 q 183 717 213 735 q 138 669 153 699 l 126 728 l 143 728 q 170 768 153 750 q 217 798 188 787 q 285 809 245 809 q 400 772 361 809 q 438 666 438 734 l 438 650 q 389 533 438 574 q 246 492 339 492 z "},"⁷":{"ha":399,"x_min":22,"x_max":376,"o":"m 190 504 l 80 504 l 271 892 l 22 892 l 22 975 l 376 975 l 376 891 l 190 504 z "},"⁸":{"ha":478,"x_min":34,"x_max":444,"o":"m 239 490 q 120 507 165 490 q 55 554 75 524 q 34 627 34 585 l 34 632 q 45 687 34 664 q 77 726 56 710 q 128 749 98 742 l 128 753 q 79 773 99 759 q 50 806 59 786 q 40 849 40 826 l 40 856 q 89 950 40 916 q 239 985 137 985 q 390 951 342 985 q 438 856 438 917 l 438 849 q 416 787 438 811 q 350 753 393 763 l 350 749 q 422 710 399 740 q 444 632 444 680 l 444 627 q 425 556 444 587 q 361 508 406 525 q 239 490 316 490 m 240 574 q 317 591 294 574 q 340 640 340 608 l 340 644 q 315 691 340 674 q 237 712 290 708 q 163 691 186 708 q 139 644 139 673 l 139 639 q 163 591 139 608 q 240 574 186 574 m 241 778 q 311 799 288 782 q 335 842 335 815 l 335 844 q 312 889 335 873 q 239 904 290 904 q 166 888 188 904 q 144 844 144 872 l 144 842 q 168 799 144 815 q 241 778 191 782 z "},"⁹":{"ha":470,"x_min":32,"x_max":433,"o":"m 226 985 q 380 930 327 985 q 433 773 433 876 l 433 703 q 407 589 433 637 q 332 517 382 542 q 206 492 281 492 q 127 500 162 492 q 66 517 92 508 l 55 603 q 115 583 83 592 q 191 575 147 575 q 298 610 265 575 q 331 705 331 646 l 331 790 q 305 871 331 841 q 225 901 278 901 q 155 881 178 901 q 131 825 131 862 l 131 817 q 152 761 131 781 q 222 742 173 742 q 290 760 263 742 q 333 807 318 778 l 344 749 l 327 749 q 301 708 318 726 q 257 678 284 690 q 192 667 231 667 q 72 705 113 667 q 32 810 32 742 l 32 826 q 82 943 32 901 q 226 985 132 985 z "},"­":{"ha":554,"x_min":79,"x_max":475,"o":"m 475 307 l 79 307 l 79 418 l 475 418 l 475 307 z "},"«":{"ha":694,"x_min":45,"x_max":665,"o":"m 665 615 l 469 340 l 665 61 l 532 61 l 343 325 l 343 356 l 532 615 l 665 615 m 367 615 l 171 340 l 367 61 l 234 61 l 45 325 l 45 356 l 234 615 l 367 615 z "},"»":{"ha":694,"x_min":28,"x_max":649,"o":"m 28 615 l 225 340 l 28 61 l 162 61 l 351 325 l 351 356 l 162 615 l 28 615 m 326 615 l 523 340 l 326 61 l 460 61 l 649 325 l 649 356 l 460 615 l 326 615 z "}," ":{"ha":799,"x_min":0,"x_max":0,"o":""}," ":{"ha":199,"x_min":0,"x_max":0,"o":""}," ":{"ha":279,"x_min":0,"x_max":0,"o":""}," ":{"ha":333,"x_min":0,"x_max":0,"o":""}," ":{"ha":278,"x_min":0,"x_max":0,"o":""},"​":{"ha":0,"x_min":0,"x_max":0,"o":""},"€":{"ha":745,"x_min":18,"x_max":692,"o":"m 481 -18 q 210 75 299 -18 q 122 340 122 169 l 122 551 q 210 813 122 721 q 477 906 299 906 q 591 892 540 906 q 675 863 643 879 l 686 744 q 603 773 651 761 q 495 785 555 785 q 321 722 378 785 q 265 547 265 660 l 265 344 q 323 168 265 231 q 504 106 381 106 q 613 118 565 106 q 692 150 660 131 l 681 26 q 599 -4 651 10 q 481 -18 547 -18 m 605 290 l 18 290 l 28 392 l 614 392 l 605 290 m 605 509 l 18 509 l 28 611 l 614 611 l 605 509 z "},"₹":{"ha":710,"x_min":54,"x_max":672,"o":"m 672 787 l 665 888 l 54 888 l 62 787 l 672 787 m 542 0 l 542 6 l 388 194 q 342 247 365 223 q 295 294 320 271 q 239 341 270 317 l 242 375 l 63 413 l 63 310 l 142 302 l 379 0 l 542 0 m 458 814 l 322 814 q 386 726 366 775 q 406 614 406 676 l 406 606 q 356 460 406 508 q 189 413 305 413 l 63 413 l 166 312 l 233 313 q 465 389 390 317 q 540 601 540 460 l 540 610 q 519 725 540 674 q 458 814 498 777 m 672 554 l 665 655 l 54 655 l 62 554 l 672 554 z "},"∙":{"ha":279,"x_min":58,"x_max":221,"o":"m 140 265 q 78 287 98 265 q 58 350 58 310 l 58 357 q 78 419 58 397 q 140 442 98 442 q 201 419 181 442 q 221 357 221 397 l 221 350 q 201 287 221 310 q 140 265 181 265 z "},"∕":{"ha":590,"x_min":15,"x_max":576,"o":"m 141 -168 l 15 -168 l 450 933 l 576 933 l 141 -168 z "},"µ":{"ha":759,"x_min":86,"x_max":673,"o":"m 537 679 l 673 679 l 673 0 l 537 0 l 542 159 l 537 167 l 537 679 m 222 679 l 222 267 q 231 197 222 228 q 259 143 240 165 q 306 110 277 122 q 374 99 335 99 q 455 117 420 99 q 511 166 489 135 q 541 235 533 197 l 563 136 l 535 136 q 504 56 525 90 q 450 4 483 22 q 367 -15 416 -15 q 298 -3 327 -15 q 248 30 268 8 q 217 84 228 52 l 211 84 l 219 -152 l 219 -239 l 86 -239 l 86 679 l 222 679 z "},"̈":{"ha":496,"x_min":69,"x_max":426,"o":"m 138 779 q 87 798 104 779 q 69 852 69 817 l 69 857 q 87 910 69 892 q 138 929 104 929 q 191 910 174 929 q 208 857 208 892 l 208 852 q 191 798 208 817 q 138 779 174 779 m 358 779 q 306 798 323 779 q 289 852 289 817 l 289 857 q 306 910 289 892 q 358 929 323 929 q 409 910 392 929 q 426 857 426 892 l 426 852 q 409 798 426 817 q 358 779 392 779 z "},"̇":{"ha":291,"x_min":69,"x_max":222,"o":"m 145 779 q 88 799 107 779 q 69 853 69 818 l 69 858 q 88 913 69 892 q 145 933 107 933 q 203 913 184 933 q 222 858 222 892 l 222 853 q 203 799 222 818 q 145 779 184 779 z "},"̀":{"ha":413,"x_min":67,"x_max":348,"o":"m 348 761 l 217 950 l 67 950 l 67 948 l 228 759 l 348 759 l 348 761 z "},"́":{"ha":413,"x_min":65,"x_max":347,"o":"m 65 761 l 197 950 l 347 950 l 347 948 l 185 759 l 65 759 l 65 761 z "},"̂":{"ha":544,"x_min":69,"x_max":475,"o":"m 69 761 l 199 950 l 345 950 l 475 761 l 475 759 l 368 759 l 275 876 l 269 876 l 176 759 l 69 759 l 69 761 z "},"̊":{"ha":415,"x_min":69,"x_max":345,"o":"m 69 865 l 69 868 q 104 953 69 922 q 208 985 138 985 q 311 953 276 985 q 345 868 345 922 l 345 865 q 311 781 345 813 q 208 749 276 749 q 104 781 138 749 q 69 865 69 813 m 149 868 l 149 866 q 164 828 149 842 q 208 815 179 815 q 251 828 236 815 q 265 866 265 842 l 265 868 q 251 906 265 892 q 208 919 236 919 q 164 906 179 919 q 149 868 149 892 z "},"̃":{"ha":538,"x_min":69,"x_max":469,"o":"m 361 776 q 313 783 336 776 q 267 800 289 790 q 226 818 245 810 q 190 825 206 825 q 163 813 171 825 q 155 778 155 801 l 155 768 l 69 768 l 69 792 q 94 887 69 852 q 178 922 119 922 q 227 914 203 922 q 272 897 251 906 q 313 879 294 887 q 349 872 332 872 q 376 884 368 872 q 383 919 383 896 l 383 929 l 469 929 l 469 905 q 444 810 469 844 q 361 776 419 776 z "},"̄":{"ha":540,"x_min":73,"x_max":467,"o":"m 467 797 l 73 797 l 73 889 l 467 889 l 467 797 z "},"̧":{"ha":408,"x_min":96,"x_max":367,"o":"m 163 15 l 255 15 l 240 -94 l 183 -56 q 206 -55 194 -55 q 230 -55 218 -54 q 333 -83 299 -58 q 367 -158 367 -109 l 367 -162 q 327 -243 367 -217 q 213 -269 288 -269 q 158 -265 185 -269 q 111 -256 131 -260 l 96 -172 q 143 -183 117 -179 q 196 -187 168 -187 q 248 -178 230 -187 q 266 -152 266 -169 l 266 -151 q 242 -121 266 -130 q 160 -109 219 -112 q 150 -108 153 -108 q 147 -108 147 -108 l 163 15 z "},"◌":{"ha":801,"x_min":75,"x_max":726,"o":"m 440 727 q 429 698 440 710 q 400 686 418 686 q 360 727 360 686 q 372 757 360 744 q 400 769 383 769 q 429 757 418 769 q 440 727 440 744 m 242 628 q 231 600 242 611 q 201 588 219 588 q 161 628 161 588 q 173 658 161 647 q 201 669 184 669 q 231 658 219 669 q 242 628 242 647 m 639 627 q 628 599 639 610 q 599 588 617 588 q 559 627 559 588 q 570 657 559 645 q 599 668 581 668 q 628 657 617 668 q 639 627 639 645 m 155 425 q 144 396 155 408 q 115 385 133 385 q 86 396 98 385 q 75 425 75 408 q 86 455 75 443 q 115 466 98 466 q 144 455 133 466 q 155 425 155 443 m 726 425 q 715 396 726 408 q 685 385 703 385 q 657 396 668 385 q 645 425 645 408 q 657 455 645 443 q 685 466 668 466 q 715 455 703 466 q 726 425 726 443 m 242 223 q 231 194 242 206 q 201 183 219 183 q 161 223 161 183 q 173 253 161 241 q 201 265 184 265 q 231 253 219 265 q 242 223 242 241 m 639 223 q 628 194 639 206 q 599 183 617 183 q 559 223 559 183 q 570 253 559 241 q 599 265 581 265 q 628 253 617 265 q 639 223 639 241 m 440 124 q 429 94 440 106 q 400 83 418 83 q 360 124 360 83 q 372 153 360 142 q 400 165 383 165 q 429 153 418 165 q 440 124 440 142 z "},"‌":{"ha":0,"x_min":0,"x_max":0,"o":""},"‍":{"ha":0,"x_min":0,"x_max":0,"o":""}}}
